<mxfile host="app.diagrams.net" agent="Mozilla/5.0 (Windows NT 10.0; Win64; x64) AppleWebKit/537.36 (KHTML, like Gecko) Chrome/136.0.0.0 Safari/537.36" version="27.0.9">
  <diagram name="Page-1" id="eiobrzbhb6WugRvTPkar">
    <mxGraphModel grid="1" page="1" gridSize="10" guides="1" tooltips="1" connect="1" arrows="1" fold="1" pageScale="1" pageWidth="850" pageHeight="1100" math="0" shadow="0">
      <root>
        <mxCell id="0" />
        <mxCell id="1" parent="0" />
        <mxCell id="ehCbc-gGsFOHaVZKTLyM-1" value="" style="shape=image;verticalLabelPosition=bottom;labelBackgroundColor=default;verticalAlign=top;aspect=fixed;imageAspect=0;image=data:image/png,iVBORw0KGgoAAAANSUhEUgAAAJsAAAChCAYAAADQgM1HAAAAAXNSR0IArs4c6QAAAARnQU1BAACxjwv8YQUAAAAJcEhZcwAADsMAAA7DAcdvqGQAAB3MSURBVHhe7d0J3GzlHAfwU1mTPa41slyJSFcklEQpW+RKqz1rES1kqdsilZCsiZuUKyItZClyrZHkWkJEopQilOxjvo8z72fe6Z2Z5zlzzpmZ9z2/z2c+752577xz5pzf+T///++/PKu12sgaNKgBq+c/GzSoHA3ZGtSGhmwNakNDtga1oSFbg9qwIKLR//73v9nll1+eff/738/++Mc/hucLGXe4wx2yRz3qUdmd73zn/JV6MO/Jdv3112eHH354dvzxx2d//etfM193AdxfA7H66qtnN7/5zbPXv/712Stf+cpsjTXWyP+nWsxrsv3zn//MXvGKV2Qnnnhi/kqDbtzylrfMdt9990C62972tvmr1WFe+2xnnXVWQ7QBuOGGG4LFf/vb35794Q9/yF+tDvOabB/60IfyfzXohz//+c/Zcccdl7373e/O/vSnP+WvVoORltG///3v2dVXXx1+3uQmN8lufetbZ3e84x3z/x0/1l133ez3v/99/qzBINzudrfLnv/852fLli3LbnrTm+avlosksvGBfvCDH2TnnHNO9u1vfztcSK+J7lZbbbUZwm2wwQbZ5ptvnm222WbZ2muvnb+7ftzlLncJd26DOKy11lrZzjvvnB155JGVEC6KbAjF/3nb296W/fCHP8z+/e9/B4L1e6toR4TDyu2www7Za1/72uxOd7pT/r/1oSFbOly7F73oReFal024gWSzPF500UXZAQcckH3pS1/KX00HPecNb3hDtnTp0mCuWcE60JCtGNZcc80Qpb7uda8rNUrtS7ZrrrkmO/nkk7ODDz44u/baa/NXiwPBkG3vvffO1l9//Vq0nYZsxYFkCLfHHnuUtirNGY1eeeWV2Xve857soIMOKoVogNOnnnpquFvOO++87D//+U/+Pw0mEW5S0XyZUeqNLJsP+cAHPpAdffTRIbVTNvgBAocjjjgiWLgqEWvZNtpoo2zXXXcNS/w04tJLL80OO+yw7B//+Ef+SnkoM0qdRTbW5owzzgimk6RRFRz0LrvsEk5Qlcp1LNme+tSnZu9617vC708jLrzwwmzLLbfM/va3v+WvlItb3epW4XqNGqXOWkb5aQhQJdHgX//6V1CuV65cmb/SoC5QCG52s5vlz+Igv/zBD34w22effcK1K4pZZDvhhBOyVatW5c+qBYMqQvVFGtSH5z73udnLXvayoIemgNQl9UeZKOrDzZBNIIC9deLiiy/OVqxYkT9rUAcI74K0vfbaKznbwzAsX748e+c731kolzpDNqLtb37zm/xZHO51r3tlW2+9dfbsZz87e+Yzn5ltvPHG4cukQF6OaNygPrhGlkQy1KJFi/JX48AodXKpqbLSDNk+/vGP5/8aDk7iS1/60uzYY4/NjjrqqFAvJrp0AB6LFy/Of3M4fv7zn2c//elP82cN6gLCyRQUIRyVgmLx1re+NcmHC2TD0O9+97vhhRi4K6zdJIz73ve+IYq7+93vnj3kIQ8JubVjjjkmu/e9753/9mBIfX3ta1/LnzWoE3KhfLgiSyrOMDbIGku4QLZf/epX0RrNkiVLst12262vJuWOeeQjH5m95CUvyV8ZDI7nz372s/xZg7ohUFBgSu5KDRpILZbU2Cg1kO2yyy6Lrst/whOeMPQuUHK84YYbZuuss07+Sn/4XJ/fYHxgIBRL7LnnnoWi1JNOOikqSg1k+8tf/hJdl49AyomH4fa3v31UQ4XPrbpor8FwIJwoFelSl9TrrrsuKkqdCRBi4aBiqzaUq8SA39Zg/OhYOMtiFVFqYANHMZZAv/vd70Lp0TCwllVnIhqUD4R7wQteMFKUKgs1V6FFIJtIMpZsX/3qV4cue3QzRZaxuh3LxhQ3mAzw2573vOeNFKWycL0IZFtvvfUCo2OAbKeffvrAEqFLLrkkMDx2efzJT34SoiGNxLG+Y4NqYbUTpXqkBg26tli3q666Kn/l/5hZRkkaseBIEnF/+ctfhuS95l+MRpZzzz03aDfE2lgImz/xiU+EnN13vvOdxoerEM61tJOVZNiDu+SaWFZTk/ekNH0q3ZgpMfroRz8aKjNT8MAHPjCkqESd2CzXiWyjpJ8Iw/vtt1+27bbbZre4xS3yV4uhKTG6MTbddNOgg6aUCrn5P/KRjwTDEgvyl5pIhqeDGbJx7h796Ednv/71r8N/jBN3vetdQyrlxS9+8UglyQ3ZxgeWkBSi8LKDGW3CsJGXv/zl+bPx4oorrghd2pZrDTcN5gdmyAbbb799mG4zCeBXnHLKKUHV/ta3vtUEDvMAs8hmGdl3332Tw92qwPf7+te/HhzUz3/+80kVBg0mD7PIRvF/zGMek7361a8O6aZJAT/S2k+hrqIJZ9rhutXVizsKZpENyCAEPf5bFV3sRU8KR5/VPfDAA7Mf//jHzbLahdvc5jbTSTYwn4OY9+Y3vznUq5UBJ0PYrfTI3yxycoTgEr77779/9uUvf7lZVnNwf6Yhkp6TbGAZVbf24Q9/OGglWvKLwolQgqLx2U8VnkqQYhP13UA4RBOpEoInKdwfF+iRsfWD48TAq00recQjHhGyBVJUeg2Y7BgYr3D/+98/TDX84he/mL3qVa8KaTFFl0960pOCSLjFFlvkv50GhLOUWlbl4Kpozp02vPCFLwxDfCYZUaYFwQi+CELZjwFisWSWYqTrzgbIw3rtU5/6VLgjqc2p4LMJFlhKKZWUmrz5CDWG73vf+0Ij8f3ud7/ge2sutiKV+ShyrTroO1imH0SFMc0xD3rQg7J3vOMd2WMf+9j8lbkhoc8P87vGCBSdAcIftDxLd3VOiOV7IWQQeiGnaXaeGzC2AjsWX/jCF0KQNgxzZRBYgyS0I9VW20oNfSxZsqS1cuXK/F2D0T45rbPOOqu1zTbbtNrL7Jx/b9ijfWeHz1yxYkXr2muvDX930aJFc/5u72Pp0qWtK664IrynwWA4v3Odw95HezVstf39/F3/R7qHXgFYoic+8YnBMj3nOc8plIBvf5dQqtQJROoYSNwgDRNBNhBQWAKR5U1velNySQsgnIJNrYQqR2IqihvUh4khWwf8JhqfaUr3uMc98lfToB5eXrWJUicLYw8QBkGnPMlEIr5KAbdIgIDIyuNpfgpFp0lglhkiaVlJRJgpeqdrP8vp74O5AoSJJhvIixrxwFKxWFWAwGyi0kMf+tDQjzHs5PMHDeFB0Jhod1LBT5aNefjDHx7dFjAK2SZuGe2FMQ78OC1mMU3PRaD4ULHma17zmpCVUE/XD0rgBSDq7aaZaGCLgTe+8Y1BIK8DE0826ORqjUtX0lwFEOfMM88MpCZE64WYS/OzDwR/cj7MlaPB2anwc5/7XC3+7VSQDSjkT3nKU0J6yvCaWLOfClkJ1g3p+GO9zTc/+tGPst/+9rf5s+mH3LK2y2bvqh6oFOEL0uNIG7F52lQo2rzgggvC9oi9052Q0VI6n1DXd5oqsgHCWVYl4flyVVUVW2JodhLc3f2PupLq2p+zLvg+dXynqSNbB3wMom1iMJ0M48QQrhMM3POe9xzrflxlQ+Rtgmgd32kqyUbTsr0R+aGOMvGzzz479NUitj7ZBz/4wYVq8SYRNDcVPXXsATGVZ0znvXInVSJ1AdlofraVVDKvjGfaoQRJsLXVVlvVcvNMHdnIEdr6jUategntBqKRCFwUAxGRXRM18o2yEcU4YKOTxz3ucUEvNDymil6TuTDxGYRe0LeUqX/2s5/NXxkMAQUrpMDy8Y9/fPBNhPmqh5W8x45Y9XdIL/Zz6gxa4TeKXMuuGasDpCPVNamBwSgZBNYhCVXUs6WgTZRW+06c8zN7H2rc1Kq1/br83bPRXoZbO+20U2uttdaa8/29j0022aR1/vnn5+9emJj6erYUqFmL1YRYNKO7+vXASn8Rb+VGY8AiTsIslGnFVJItFpbOYc3WKh9EY+27MX+lP8gftsdsUAxTR7aU0al8tGHguxj9pdRmGOh68yEnOi5MHdlSqm9jhUoOf0xEKRIeZfbcQsfUka3tZ+b/Go7Y5LLlMab4MeWzG9wYU0U2FzvFspA3hqHT8GysZwyQsmi74ULH1JANyZSHGyAdCzraoInl9DFVHd/85jejSez31bpNUxn4pGAqyKYc/GMf+1jYCVDtVSwItsY/KBfqrUvz/LzzzgvCc0ql6le+8pUwZ4So3CyraZj4DII8KK3MLs9kh9QLLNqko5E3RJ2CAT4agrFofhZx+u9zn/uEUvKypjzVBZkQ58D4C/0WqRglgzDRZFPeo2bN1MlRi/voaOQNUaclkI82amSpeDNGMpk0OAeS8DYkNkZWrjQW85Jsv/jFL7Idd9wxiLjTmHucBiDE0qVLQ/NObNXzKGSbOJ+NaPqZz3wmjFtV798QrTqw7LZr/+QnP1nLeZ4YsjGwNmHTi2mMVqcytkG1UHwqwq6qJ7cbE0E2upUoc9myZcH0GvXUoD64yVN2bymKsZON+V65cmXY45I5b4hWP8hAdQjVYyfbihUrgn5mv4NRpg6V3S2vWkSURiqY77C7T+rOe0UwNrJxTgmuSqup/EUdVLPd6HA0M+XaowK5Hvawh4URrErPDWCZzxA1brDBBrVM3aydbEw2WQPJ3vve9xZW4Z0kg2BOPfXUbJdddgn9o4RfIzgXL16cpH8hmBm05ooccsghIUKzrRLh87TTTst22mmnJC1qWqAknNit3H3e9Y2q2ZfbNAbr05/+dGFRlcl/+tOfnr3//e8PjRudziBLH9/vxBNPDENitt5661AcSSmnIxEzEcuDyKvRY/311w/dRVJQ5sV6Xzex/FvLoAEsKn+nfVl1/EZZmH2HZL6X1sQ6UJuoS7VHAgQReRa1aC4+acR+VpprB0GEZQPeyy67LJQbyRogvBPO8iGbv/GABzwgWMZB7Wzep4rErBHdXUVvFOkzy/Tmm29eaJzrqPDdZQ80W9My7RWbglFEXRc9CUUaXgxU3m+//VrrrrvunL8b+2jfgbMGNNeNNsFaF154YTgHRQdNty90a8MNN2y1l/zW9ddfn//l6cFEN7zwz7CbEz9o7tkwsAQnnXRS9qxnPWts/pNl2LJsdJflughIDKpRLF827l9Ic38rI1ubyKHui/MukV70pFp2bGukKdiF9nycsAxZck1slFYb1lAzF5wbw2pE44ZVe74QUBnZWDSRneF5RU6mi3q3u90tXJDDDz88W7RoUf4/kwMBiG2W+KXtpSN/NQ18QNsAqXCZ73ngNQ6M2a6jC6QACfJhsFz0FiymgKyBaGrGOLRF4Rgs3/o9L7nkkvCg66mTk3/1/7S6oqG//exNw1RA4DOKWHA3pqCJ0+68eX7xxReHvyeVJH8pwHKc47bsrj0ODIPzaY8ywVAH0dGoX9NGJxKkQ1UFJ/TJT35yGMQ3yhbipkNKMJuX6+J1yHXDDTcEq8kSWQKRhZ6mwHKTTTYpbEERWjUx7dBnpcLFUdxJpkGwTv2e80G2YeUVahJgHacZI+NA5fVsLpIPEfoL+6saU2Vs0+677x7moRVNP7kh+FKWt4suuiiQYFjej+NPQVd9q6DQ7oNFRkiRVuiIZvKmNFPHgjRDrnFzsBp2wylSbTsKKpU+vvGNb7Q222yzsA/UmmuuOWeYW8Zj8eLFreXLl7faxG61fZf80+PhPatWrQqzPUY5Vu/dbrvtWm2rWOg42styq+1/tdpEmPPvl/Eww2TttddubbXVVq1zzz03fGZdqET64CNgJnVdVMm6VeHAWtKkl+z/brtwS4bXUtD+HiGPKatgkvcox+q9ouddd901NLWk+p2WQ2kv4rW99i2DZcP3ZUVVy4j2HWcdVRujYs4AwTJ52GGHBbJRzqsCx1+66fjjjw8BQRG4KRDMGK2U0QzDoJiwbdWDn2TZSr0B2nd3CBwse3xGJEaSsmHat5uDC0CSQcJBD4FMJ4vCfUhFqQGCk2JInJDcdjlVgWPurtx7772j6997wXo50SZBVjXwRQ6R1SUqFwGLI6BS56/vtSoQutvuTv6sP/h9zrc8L8lmo402SrK+pQUIrITSGoLlKGp/DFg0Qm1qbq4bNDxJfct8FVajA3leJ3mU0aZG6St5nySIbEX9AiKWOAajkG2WzyZZ7ReqJhogSuzUx7mgoldiv6honAK9pYoKUv23Diw9MaMg6objOvroo0Phah2YRTbLRUrH+SiwRNs8oyi+973vhQtYV27RZynQLALVyJM4RNBN6oY3eb2OUWAzZPNhNrRPjeI4mvyAQeU5/WC7nnboHvyalAerZgyCrRdT4Bg5rkWOlU9omyGuxlzH1O+BZEiaelN0jjU1MEmFYxTAdG8sUhVmfDYVCPyfWIgk1YJxoKnblHmpIMq9zfBjlzZOqkqOFLCKmmNiZnS4WDIFUkEkCRGb96tzc6wpArWo1Cj3lOS7GwJJY8Z3SUXxYQm1PosfxaXpnNeqrI/gh5sggzEMIwcIiGHvSaF+DESS/ggFu7t6lcVhraRs/K0qdLlUOIHGndrAViqqc6zuZCQw6cgmus7BOCEidOPJoAieOg0o/ESEtQ8DH7VMeaeDbbbZJpRNkU+GYeQAQUVrTHIdWDSl05LkvfqTkHq77bYLGt2SJUvyV8cHcoBjkf6Sjuo+VhbE674LqzdOOC6l2QcffHAo1e7udGLtlK6LZmmJLmKZ8PdpifTAqhHIZkmJLXN29z3jGc8YWH0gpKahVaGep8CsEBa7n4+mFp/Fk/DnH40LCKSphrDdfUN0Q67WnqtFCwX6gSukK03DT9UIV4FfELuMIBu/ZxCcPNrUsB6BqoFsw4IB1s+21XWc7H5wvrbddtu+ROuA++L8lwXfXUptiy22GPrZZSBcCeUssWRzZ8VYLEvqMFJWjRgfBAQ4saJmFXBDCLRiwHWJheUYobofghsNPnK//Gv1gmUvzf0QyJYiBXBYY4gpOCgqgpaFWNeAnDHuYMYxxCA2Vy3vqTWRMtD9UGunxo/6wBesE4Fl/IFYM6p8WfJ3EJBR1FRHJmIQ7H8+DI7VdyLdjAu0rphsihsCUWLAqo27qrcXgWxMeKx1ozYPS3ojo6SzO2mcsKnZMOtKv5JbHXYDVQnWSk4a6QZBdkfmJAai7XEHaL0IDBP6xh6YLyyfNmiJUmclyT7uZVSWQfVKv4tIF1TKTeEf5zLqPJkQYIvJfsehVFzjT6wIzV8dpXejCgSyicTUtceAb4FI9CAWofvkWDppRbrVWYxxQ4qIzqayQUqm29fUUGKTNGKmsqpxwnFJazkeSn43odzUHHmaYEqRJDVAQDBJmElXSf8QDbsvyDDw80Sc+gUsQ9IqsU45iAANhkkx9z6HoJxaMMB/4S7YYoiIzU9LAWcaEVIKDvmM6thYpRSIDkWddMBO+i8FfHCVwiqXy0Yp9WzybgrpBm1SUTbkRKVhUoDMlkZNJbF3eRk48sgjg4VMAZK5MfhjdS3TDACRlsVWbl82Sqlns77vsccetSnplm6qeSp8CSeTVlQX+LQKDFNBv5N3LFv1HwT65pZbbjm2Vr9BmBWCSkNtuumm+bPq4O7j88X6ib1w8WUHunOIVcHyq02jSEWx76lhyAy0OmQIioJsiPx0kf6CqjGLbJLV0hdljwztBaumrKVotOR922+/fUjdpAjSRaDjy41RFPwnlTF1XHzjSvfaa6/Kr19RzLpSllAbwmogKdqEEgNdPiaDayQuCrVp++67b7beeuvlr5QPy5GGnKKpLNGw6U26x+qoKDZbRXlSrEBfN25kFpxYYbYasCJd4TEQk4iw5OeMjqJ3pUTB4IRqleMIS/iXeYIteazmW97ylsLFBGQguphAxndN/X6x8L25E5xxasI4q1eGYc41yDInimI5+EdV3inkBPNDSBkpskkHKhZOOOGE4GuWIWK6cMqOkNiIriKg6bHc/kaVtf2CJZLMUUcdFQzEpKPvFCN3Nwde1EdioE1Z/sqGO97FWbVqVdDsFDI6iSlQRm3Jc1drLvZIlRq8V0MtQZq4mlJd0YHPlD1hzaqUO9z8yo0EAmYBG91VV0BQ+RQjS4KBKeecc074eemll5aucTmBrCiHXGl0kUiTFSGkOk45XAQeVk3hcxQtumD8Hf8ucuEk8g20Yamr6lATDLkJBFfkH2Pz65RVoBRRdxiQi8VQySHV46IineedJDZ5gDU8//zzw0iEIuAniv60+RWth1Ofx08yuFmVhIlCSms6Y6gQjC+molhaR/TGUhQNBKS7BAEmCRByi1g0Fwfh6XIsvfPr5uEaOK9uRLKG46YaqEur0r3ph1rI1g0nE/k8vL3zJ3x5yy9Sco5FYkWS8UwwuYAvVtRvAsfVOU7H3H2crITP8RjloiGaG0N9WNHKEedM85A8LhJ1n1vH5uE4/d4ox1oGSskgpMCFstSwBPJ3xrx7+LfXNU/YlJY72N3RFAsnWn0X1V7utGitmc91geRee4/Ta6NcPORVaiXr4qQWJRorq+lGR5q8LVK5UJ3j9dN5dl7HTbRRUZki6iS6EIceemhYrorAMu1CHHPMMZXKB6lQf6ZeT25XAUMRII6UEqsocq3LwR8nKiMbuEPlP0kAGjrctalAMu9nKatyvFNg2TzllFPCjcQ3LQLngXOPaLrQFgoqJRu4gwmktCCtaEUyExx7eyBIpanpGpeFI//wzVgijc1FwILJ0rD4pAE35EJBoQChKIw9MGQF8YoMOQaRI9ISgofVwZFsTKRUSq031ggEaSPvE9GJ8DbeeOMgCA+LfBFNYejJJ58cAqCi4O/yzVSEFLH044bCzphawNKi0VEgOjXAT4e3YssikOGw/Jgj19vJ7evQ18gQdC/+VW80Ci46q+uCs7b8r37d8ZZO0SLi+lsNhmMiyNYB/WvPPfcMP2Pb2LqBJPQ4uVXzPDoRrElM1Hv51lT4m7amZDUl+hGSYi7nSPtqEI+JIhsQhG2nww8rujSZKcJKEnBV8KaWe/eCtdMsohCB7KCs2xLcIA0TRzaQbyX+Ll++vPBF5W9Z6srs5rJUW3qL6mcLHXORrfJodBhcVHvEH3TQQcFKWbpSwXkvu23QTdAQrTisEL3XcuxkA/k//pcBx2SBaYzSGswGsvUOTZwIsgGzq7vLwDtb+jSYbjAYvTP6JoZsHWisVUFB0+KLuUMaTBcQjTTVu6/W2AOEfiBlKNI74ogjQolQEXmkQf1QIqbejgTVu4xOLNkAwYx4MFvk7LPPHqn6wxcn2ApI1IlJ8o+6gw0HWAZiISTRB8H55Qap8FFzxw2aq6hzoskG5AeCKnnEsOXULiXlOdr+jCKQIpKq0utgrIFhLmeeeWahPgFBjVzt0572tCagacMN54bWTtj3fCDbNKBthVrHHntsq+3TzWwzGPNYtmxZ65prrmm1l+X8L/0fnl9++eWt/fffv9U+SXO+t99jnXXWabUDmdZ1112X/7UGMZh4y9YLdWRKp2MmMGr1s6nHIMg4SOwbrxUD5eOW9aIlUwsZExeNDoM8aOwoqJhNRBQwqi2TmoqBxP+0VmyMG1NHthTE7sWgXbGMntMGgzF1ZBP56B2IgRr+GIikYtNkfq9ISq3BlFq2WBKRN2Jga6HYbvx2gBBN9gazMXVkY1Vit75RujQMtDt7lnZ6SoeBvxhL9gazMXVk45jHbqahO31QfZtA3LgEm7rFVuBqGJ60WbXTgqkjG/GQ4x+TMyUA6+4yDVztvIwEgvnpuTENOpxiq3B9NqITLhukY+p0NoeLPDvssEOoYxsGpJQ60clkjod+A4WWxhuYB6JVMBaabczWlTVokI6pIxtINWlOKTpPpAiQ1nguabPYfaYazMZURqMslSk+RSYdFYUEvs8k6DYohqkkG9/JhbdPaF3QY6pGq9HYimNqzxxHnfMvV1k1RMAG/NWx2/B8xlTfpkqHdt5550pTTf62ca+S/w1Gw1STjZJvJKnlLTaRngJ6mlY0o0QbjI6pjEZ7oeLWWK3jjjsuzPMoAwIBRNMd3yyf5WBekA2km+wcrNbsggsuCBW+RcA/M+1SeRJtrskWlId5QzbQqGyjNwP6THKUYE+BZg0k22233YI1W+i9BWVjXpGtG2aH6M5CPCOzVHV0TzIi0pIxJNVlFkwp0qjRJNmrw7wlWwe+nolGNo+VeUBCRCMI67Yyfbu35axBNZj3ZGswOWjk8Aa1oSFbg9rQkK1BTciy/wEG9m+nMb8GPQAAAABJRU5ErkJggg==;" vertex="1" parent="1">
          <mxGeometry x="90" y="220" width="67.39" height="70" as="geometry" />
        </mxCell>
        <mxCell id="ehCbc-gGsFOHaVZKTLyM-3" value="Synthetic Data&amp;nbsp;" style="text;html=1;align=center;verticalAlign=middle;whiteSpace=wrap;rounded=0;" vertex="1" parent="1">
          <mxGeometry x="93.69999999999999" y="290" width="60" height="30" as="geometry" />
        </mxCell>
        <mxCell id="ehCbc-gGsFOHaVZKTLyM-5" value="" style="shape=image;verticalLabelPosition=bottom;labelBackgroundColor=default;verticalAlign=top;aspect=fixed;imageAspect=0;image=data:image/png,iVBORw0KGgoAAAANSUhEUgAAAPUAAADwCAYAAADYfCLWAAAAAXNSR0IArs4c6QAAAARnQU1BAACxjwv8YQUAAAAJcEhZcwAADsMAAA7DAcdvqGQAABBzSURBVHhe7d3PbxXV/8fxA20p/UWxGoM1MbogqcFYqQGLsdGFMfEP8D8wJnSjxGABI4K/kUSMLHTh/+DOjQsTRaS4IKlFKxs3xrgC+ovSltLvfR3u6be9nynn3s7vc5+P5J07t73TTmbu654zc+bObFutMACCsb36CCAQhBoIDKEGAkOogcAQaiAwhBoIDKEGArPlUGt4e3Fx0fz+++9mdHTUPPvss6ajo8Ns27aNSrF83n33XbO8vFx9ZszKyoq5ffu2nV5aWrKPCJxOPmlU5U1iH9955x2duLK6Y8cO+7h9+3b7SKVXPnrNqVOnVisBXr1165b9mdteaA5bOqPszp07ZmRkxFy6dMlUAm1bgNbWVvtzpMu3ubQ91FIfP37cnD592lQ+aE1LS4uZm5uz22jnzp3VVyJUDXe/1eU+evSoDXRXV1f1p8Z2Ddva2qrPkBfX9f70009tKdALCwumu7ubQDeJhlvqq1evmqeeesp+6ivEesMo3Hq8e/du9VVIi29zuf3uzs5OU+l+m7GxMfPhhx/a7VXPPjnKr+GW+ssvvzR9fX22q60g6+DY/Py8DXRPT0/1VciLPmh37dplA60gnzlzxoZa20sHzRC+hkOto93Xr1+vPrvX3dN+nMzOztpH5EfbY2Zmxn7YKsjaNgr1+++/b/evEb6Gt/LU1FR1ytgWYf3BMe2/IV/qdou2i0LshrG0f33ixAk7jbA1vE/Nflm+6t2n3oyCferUqbWDmuqSq3XXQTR9ALheF8qL/liT+eSTT2wpyDomot6V+yAg0GGgpS6ZuC21WmgFmnHscBHqkokb6vUU6pMnT66NYiAMdL+blA6o6Yj4sWPHbAvd4Gc7CoxQNxnGscNH97tkkup+q7utbrcOjumot/axP/74Y7ZvAGipmwzj2OEj1E1G3W7REfDac/U/++wzvo8dAEKNDRjHLj/2qUsmqX3qzTCOXX6EumTSDvV6jGOXE91vRGIcu7wINTZgHLv86H6XTFbdb8axy4uWGhswjl1+tNQJc+vHrVbX0om6tvq5AtPb22tefvll8+qrr5rBwUHz2GOPmYceesgGCYiDUKfADQtp31SXFlrv0UcfNW+//bY5fPiwHR5yJ3poHp0MQqgRF6FOmELpLsKoa7bpudaZ9lE1RPTGG2/Yy/WKztTS6nfDRWrBdXAKiINQp0CXTNYVVhVonbjR399vvvvuOzMwMGADrKPILuyia6lrM3BiB5JAqFPgWmvZv3+/+f77782ePXvsc61u/U6lVpn1iaQR6oRp/WiVKrCPP/64+eWXX8zDDz9su9rt7e3/s/5cK+1abu1bA3EQ6oSpC60Aa7/5t99+s11uN96rrrgoyNp/1vAR6xNJ41BrwtzXFD/66CPzyCOP2GntR7tAa39aLba7D5nrpouCDsSmlroRmoXavCqBXe3v71+dnp5erQTYrrNK0O3j0tKSfZRKmO3PJyYmVg8fPrw6NDS0WmnlI/8mlVz5nDhxYsN2qnzQrlZ6Wna60sOyj0VHqFOoL774wq4rF2ZRiB33c+7vnX356DVlv783oU64HnzwwdWbN2/adaU3hgvz+k/55eXl1eHhYft6F+jW1tYNf4dKp3za2trs644fP263n1pqmZ2dXWuxi45QJ1yvvfaaXU/u012P7o2hN4mev/XWW/a1lf3qtVDrzeTeUFR65bP+tadPn7Y/cy12WRDqhOvbb7+162n9G8G11nqcnJy0r1PL3NHRYacVbrre2ZSPe11nZ6d9HBsb29DjKgNCnXBdvHixuqY2drnd9Ouvv77a19e39noXbFVPT8/aNJVO+ai3tGvXLvtat0v03nvvbeiKFx2hTrj++eef6pr6/y643gx6U8hzzz234fV647guOJV++bjXuQ9bt220j12W1ppQJ1yiAyo6GCZ6dNNqrXt7e9de61oE98ZpaWlZ+x2VTvm4brda7NpdomPHjlVfVWycUZYw3+pk/eUr7vYpw/29OaMMaEAZrotOS50wWupii7t91EIr0EW+LjqhThihLrYkt09Rr4tO9xvYgiJfF51QAw1Q97vw10VX97sRmoXavHyi5qGyK5+oeaKqyOPYtNRAA8pwXXRCDTRA3W7REfBKy2ynnaLc35tQAwkqwjg2Q1oJ861O1l++0t4+hRjHVqgboVmozcsnah4qu/KJmmerldf3sel+AynIcxybUAMJKsQ49r0Gu36ahdq8fKLmobIrn6h5tlJ5jmPTUgMJKsQ4djXcddMs1OblEzUPlV35RM2TZGVxXXFaaiBDmYxjV8NdN81CbV4+UfNQ2ZVP1DxJVlsG1xUn1AmXT9Q8VHblEzVPWpXWODbdbyAHaY5jE2ogQ5mMY99rsOunWajNyydqHiq78omaJ41KcxybUCdcPlHzUNmVT9Q8SVal220fdcAsreuK5xpqfVoNDg6unj9/fnV8fDyxcbr7iVqO9ZW2qP9JZVc+UfNkWUmMY+cSat2YXY9nz561f9PdniYLtctSW2mL+p9UduUTNU/WFff+2LmF+vLly/bvuU+flZUV+5i2qOVZX2mL+p9UduUTNU+WlcQ4duah1kJ/9dVX9m+tX1CFOosWO2qZ1lfaov4nlV35RM2TV211HDvzUA8MDNi/oxAr1JL04Pv9RC3T+kpb1P+ksiufqHnyKHdAbSv3x858nPrIkSPm+vXr9hss3d3dZn5+fu3uBtPT0/YRaFaJjGNXw103zRKndJR7Pe0zcKCMyqp8oubJo+KMY2feUu/bt88+Vv63/TTSt1Q0rQKaXRLfx878aqJ5h9e3/GkvH1cTzdfMzIzp6emx07Ozs3ZaAVJXNxSc+42mMjU1VZ0ya4GuvSh/2RFqNJWJiQlz48aN6rN7d9pwFycI5UAt3e8adL/DpmM6k5OT9kiyAq2L62sEpr29PZguOC01msq1a9fMuXPn1g7Qqvvd1dVlf6eQh4CWugYtdfgU6AsXLpjh4WEbZI0Na79aR5tDQEuNpqNu9qFDh+yJHQr04uKiDXTeDU5SaKlr0FI3DwV67969ZnR01Bw8eNDub7tx4jLjrpcJ861O1h/iqCeudL+BwBBqIDCEGggMoQYCQ6iBwBBqIDCEGggMJ5/USHv5GKdGHIxTA02IUAOBIdRAYAg1EBhCDQSGUAOBIdRAYAh1iel2RYODg+b8+fNmfHzcXsFD45hplk/UPFmWT9Q8SZYuYnjlyhXzzTffmIGBAXtFFV0+KdNLJVUWpCGaJU7lLWqZ1lfaov5no9XM9/f2iVqm9ZUVt00+//xz+3+1zbZt2/Y/y9No1YMzymqkvXxJnFGmy9n+/PPP5sCBA/a2LLpudVYXzst7/fkUYfnUY9KlkrQsqosXL5qRkZFEbhpQz/LT/S4ZvVkqLbQN9Nzc3IY3it5MyJe7M6W7kKE+dJ9//nm7zXSN8SzQUtdIe/nirj/tp/355582zLrBoG4HvLCwsHY74LTlvf58irB8+h+V7rfdJtpGCrNCrm33119/VV+1NfUsPy11yXB/72LTttEHi7aJbsCnq5NqW928edO8+eab1Veli1CXzDPPPGP6+vqqz4xtBVy3u7e31z4iP27b6CYBOvbh7N692wwNDVWfpYvud420ly/u+tN+tG4To+VUt1stgbp6egPF/dv1yHv9+RRh+fQ/9EHr7tOlVluttdtecdSz/Fz3O2G+1Rl3/TW4uRJHqOPJYvvT/QYCQ6iBwBBqIDCEGggMoQYCQ6iBwBBqIDCcfFIj7eWLu/7Q3BinBpoQoQYCQ6iBwBBqIDCEGggMoQYCQ6iBwDBOXaPo49TNvv58yr58PvUsPy01EBhCDQSGUAOBIdRAYAg1EBhCDQSGUAOB4brfCfOtTsap08U4NS01EBxCDQSGUAOBIdRAYAg1EBhCDQSGUAOB4fvUNdJevrjrD82NcWqgCRFqIDCEGggMoQYCQ6iBwBBqIDCEGggM49Q1ij5O3ezrz6fsy+dTz/LTUgOBIdRAYAg1EBhCDQSGUAOBIdRAYAg1EBiu+50w3+pknDpdjFPTUgPBIdRAYAg1EBhCDQSGUAOBIdRAYAg1EBi+T10j7eWLu/7Q3BinBpoQoQYCQ6iBwBBqIDCEGggMoQYCQ6iBwGQ+Tj0zM2N6enrs9OzsrJ2+c+eOaW1ttT9LW9nHqdNePp+8159P2ZfPp57lz7ylnpqaqk6ZtUDfvXu3+hMAcWUe6omJCXPjxo3qM2OWl5fNjh077PT09LR9BLB1mXe/9+3bZyYnJ83KyooN9M6dO838/Lxpb2/PpAued/csi+5XmsrevS368vnUs/yZt9TXrl0z586dMy0tLXYB1f3u6uqyv1PIAcSTy4UHFegLFy6Y4eFhG+S2tja7X719e/qfMXl/kmfxSZ2msreERV8+n3qWP5chLXWzDx06ZM6cOWMDvbi4aAOd9woHQpDrJYIV6L1795rR0VFz8OBBu7/d2dlZ/W068v4kz+KTOk1lbwmLvnw+9Sx/rqEOkW91Eup0EWrOKAOCQ6iBwBBqIDCEGggMoQYCQ6iBwBBqIDANj1Pv2rXLfg9a9NVJTesMMZ3DjfTHqdHcUhmnfvLJJ6tT9y5yoLPCsjhnG0B9Gk7j008/bfr6+qrP7p3qubS0ZKd3795tHwHkp+Hu9x9//GHP0VaXW3X79m3T3d1tH+mC0/1GulLpfusLGEeOHLEB1htUwZ6bm7PTarUB5Kvhllp01ZIXXnjBXLp0yQZZ34nWd6T182ZHS400pdJSi1rpX3/91YyNjdlA61JECjRvWCB/W2qpHYVblyf6+uuvzfj4uLl69aq5detW9bfNiZYaaaonrrFCjcbFDXXem8u3/Czf/WWx/RlgBgJDqIHAEGogMIQaCAyhBgJDqIHAEGogMIS6ZNx32cVN80Wa4nCnSi8sLNhH91y3lXLfZkwboS4Z7u9dbPoOhLgvN7mTTXTNgcuXL9vptBHqkuH+3sWmbaBtom8vqmV2FxDRV5OvXLlip9PGaaIZi3uaYLPf39unKMunbaJbNKsnpdZbj/v377ffj4iD00QDxP29i83tN2ubaL9aLbU+aHSH17///tv+Lm201BmL21JLM9/f26cIy6cDmLoakFuWn376ybzyyiv2ls1x1bP8tNQlpG429/cuLgXatdgffPCBefHFF+3uUVZoqTOWREvtKNDNdn9vn7yXTwcx//33X/Pjjz+as2fPmv/++8/2orSbpA/euCMV9Sw/oc5YkqFG86knrnS/gcAQaiAwhBoIDKEGAkOogcAQaiAwhBoIDKHOmL4u6bjpLL6IgXJwp/p2dHTYR/dc5ze4b+P5EOqMcX9v3I8746z2ggo66eTAgQPVZ/fHuylj3N8b99Pb22vfE/pqrVpmF3KdOz40NGSnfThNNGPc3xv10Dn8ui+d3iMKuB51kQW9d3xoqTPG/b1xP26/WYHWfrUCrXZXd5h94okn7O98aKlzoA3F/b2xGR1A1Qe9i+bIyIj54Ycf6v76Ji11DtRKc39vbEaBdi32yZMn7UUWtHtWL1rqHCnc3N8b6z3wwAOmv7/fvPTSS+bo0aNmz549thfn9q017UOogcDQ/QYCQ6iBwBBqIDCEGggMoQYCQ6iBwBBqICjG/B+GqcypypaD7QAAAABJRU5ErkJggg==;" vertex="1" parent="1">
          <mxGeometry x="230" y="220" width="71.46" height="70" as="geometry" />
        </mxCell>
        <mxCell id="ehCbc-gGsFOHaVZKTLyM-7" value="Dataset&lt;div&gt;[1345297,11]&lt;/div&gt;" style="text;html=1;align=center;verticalAlign=middle;whiteSpace=wrap;rounded=0;" vertex="1" parent="1">
          <mxGeometry x="235.73" y="290" width="60" height="30" as="geometry" />
        </mxCell>
        <mxCell id="ehCbc-gGsFOHaVZKTLyM-8" value="" style="shape=image;verticalLabelPosition=bottom;labelBackgroundColor=default;verticalAlign=top;aspect=fixed;imageAspect=0;image=data:image/png,iVBORw0KGgoAAAANSUhEUgAAAJgAAACeCAYAAADOm8M8AAAAAXNSR0IArs4c6QAAAARnQU1BAACxjwv8YQUAAAAJcEhZcwAADsMAAA7DAcdvqGQAAC9cSURBVHhe7d0HvCNV9Qfw+MeGqKCAgNJBKUtfRVhAEJEm0nuTIk2KCkpRkAUFEVRUUEDpIN2VItI7S69SBFRYFAQBBWkqlvnf79ncx+wj773kJXl5WfL7fOaTZDKZzNw59/Rz7luKhEoPI4qrrrqqctxxx1VeffXVyn//+9/q3krFo/jf//4X76eZZprKdtttV9loo43iczN44oknKgceeGDlmmuuic/5P/1f3mDuueeuXHrppZV3v/vd8bkV6BFYB/Cvf/2r8sorrwQx/fvf/67urcTnTGAwwwwzVN7znvdUPw0f/uvuu++uPPXUU/H5P//5T7z6rzKB+a+11lqr8ta3vjU+twI9AusAXnvttcrLL7/cx0ne/va3x+tb3vKWeH3b294WD9lrt6NHYB3A2WefXfn2t78dnAwyYZVfEd0ZZ5xRWXDBBWNfM3jxxRcrl1xySeXBBx+Mz/n8gJCJY1hmmWUqyy23XLxvFXoE1gE89NBDlcsuu6zy0ksvBZF5BGVxicNNO+20lX322afyvve9L/Y1g8cee6yy9957V6688srqnsn6V3+su+66lZNPPrn6qTXoEdibBPQuBOxx23zO722Ievrppw/CbiV6BNYB4FY4V9mCrIXpppuuT2x2K3oE1gHcfvvtlXPOOSdE5ECgF2266aaVFVZYobpn+EDM9913X7grBsOMM84YOtj//d//Vfc0jx6BdQAnnXRSZfz48ZXFF198QJ/ThRdeGMd85Stfqe4ZPh5//PE41w033FDdUxvzzDNP5dxzzw33SKvQI7AO4IQTTghH609/+tPKfPPNV937OuhKc845Z2X//fev7LvvvtW9w8fDDz9c+fKXv1xZYoklKp/73Odquj+OPvrosDSvv/76yswzz1zd2zxaxwt7aAh0Kwo152b/je7VDsw000zBpeadd943bO9///urR7UWPQLroa3oEVgPbUWPwHpoK3oE1kNb0SOwHtqKHoH10Fb0CGwEICQkPYfn3vbPf/6z+s3gcFz+ja2cK9Yt6DlaRwC/+tWvKtddd11fop+0mWeffbZy5plnVhZYYIHYV4bQjiyKsWPHVj760Y9W91Yqq6++emW11VarfhoYCPOmm24KooQnn3wyogebbbZZZbfddutL1SnjW9/6Vjh+vQp6Az/dqquuGu+Hix6BjQCOP/74SL155zvfWfnEJz4R+xZeeOHKLrvsEs7P/sCpdt9998rf/va34H6/+c1vKn/+85/D+49IhsKkSZMq2267bRAWiAzgoHLQBvLk//jHP46owQc+8IG+/DAho4kTJzaX+IjAemgvEicpttpqq2KWWWYpfvGLXxTPPfdc8eKLLxaJeKpHvBEvvPBCHHfRRRcViyyySLHDDjsUieCq3w6OxAGLvffeu5huuumKAw44oLjvvvuKxDXjnIl4q0dNCd85LhFzcdBBBxWJ0IpDDjlkwOPrRY/ARgiJgxSLL7548alPfapIHKa6d3AkrlUkjlUsv/zyQSCNIInjYqWVVirGjBlT3HHHHdW9Q+Pee+8tVlxxxWLjjTcOAm8WPQIbQdxyyy3BjfbYY48hH17So4qkDxUf+chHigkTJgTBNIrHH3+8SDpcEMsf//jH6t6B8fTTTxef//zni2WXXbYhohwMPQIbQRBdxx57bLHEEkvE66uvvlr9ZkoQS2eddVYx33zzFUlvCu43HDjPxRdfXCy55JLFgQceGGJwICBgBJ2MjuKMM84oXnvtteo3zaFHYCOMZD0We+65Z7H00ksXV199dU0d54YbbgjOlRT14qmnnqruHR7oeocffngQGaJNCn/1mylxzjnnFPPOO2/obIMRYqPoEdgIA0E99NBDxVprrRU6EoIr49FHHy0++clPFksttVTx+9//vrq3OSRrMoh17Nixocj3x6233hoEvd566zVN0P3RI7AOgPWIey244ILFRhtt1Kdf4RysxQ9+8INhzTVrwWU4zwMPPBBcc7nllgv9LoPeteqqqxZzzz13XXpao+gRWAdxzDHHFDPMMENx2GGHhT521FFHFXPOOWdx8sknV49oLS688MLiQx/6ULH77ruHPsh9QlzPOuusxcSJE6tHtRbTjJes3UNHICefM5RHn9f9ggsuCM/5zjvvHE7ZVkPUQDSBV1/W7P33319Jelk4dddff/2WFnv0oUpoPXQIzz//fOg+008/fbHuuuuGftZOvPLKK0Ui4OBk/HLeP/PMM9VvW49eqGgUQChIm4A11lijsvzyy/eFatoFoaQ99tgjuFkSz5VFF120bfWXHSUw7Yt+97vfVR555JHKn/70p+j+8txzz0WVMTHR6hq90YqcbfGud71rRBqeJKU/Ypv+N3GylnbT6Y8RJzCzRl8GhacyDJKIIKZjoxeoblEASjVM5vqbgsCmZowIgeFIf/nLXyq//OUvIyPg73//e2WWWWapLLnkktHRBYumgLay4LOH0YG2E9gLL7wQXfPkGiEsRLXOOuuE+GtXLV43Qe6X/K1//OMf8WozIaXY5A3XtxFpNiKuFuhROD4dLrdlInJtcsC8vuMd7wgLVa6Xzft2Som2Eph8piOPPLLy61//OqqKN9988+i1UCvhbWqGITbRnn766Uqy2ELP/Otf/xp9u4yRDoQmH1eF93RTBJeJD8HZEFcmuFrIxJWJKhMUQsqvWhVQRd773vfGJrmQ5DDZVXTLT5MTZvP7ZtE2AjMw+iroCyr5bYsttqjMOuusg1orBtjA+60ZSBdrRX+sTkDG6l133RVNRxgyDBhEhKhsmZAQzEBALIgBcWQDwOS03zh6RVT5HDhb5nrGECEyHvzPQPB7hOd/cmU5okNw2hostNBClcUWWyxUmOEQXNsITNNZYvFrX/taNLN1A/1hoG+88cbKFVdcET1EPRSDYqAMICIzk5ZddtlojoYLGuzRCg/TvTBg7rnnniAinMiG+2S4L9xijjnmCCvORid1ryaUh4uruFcEkLcsAiFPVK/5EXrNmzH06n+NqWvBLRlVOCidGEfl6NUcxWuZEJ3X/xOhnt3ss88e6dobbLBBZf755++7jqHQFgIzyFtttVVlk002qfzwhz+s7n0dCIsH+Uc/+lHcnJm41FJLxWyZbbbZgnUTD24a4d17771xw/S2b3zjG3FsO03rRuHhybvnU+JyMaSZu+A8Y8aMidx6+qd7xBlqTbhOw3g/8MADMTmM+6233hpEiVjLut9nP/vZuFddqYckNATWSiQRV6y99trFxz72sSKJhOreyUh6RHH77bdHcHWuueaKQK80kcFSgdNNFU888USRiDGyDHig99prr0imSzddPapzkDj4xS9+MWKKUqLleqWJVfzkJz8pbrvttmHnco0WPPbYY0Wy/ouk7hQrr7xy8eEPf7hIDCAC8klCDZjTltFSAkMMZ599diStycIsI4mJ4txzz42cozXXXDNy0wVbG4Fo/3e+853ICl1jjTWKJF4HzG8aKQggJ70l0l0kB7YqxWY0AsOQBbLLLrsUSXQWiy66aHH99ddXv62NltqnRJ/+UuT1iiuuWN07WTcgNjlPhUK++93vRnC10Yb/dBZ9rlimWPYBBxxQufnmm+P8nQK9i1JNX9HTiyEztSIbXvkeqTGe+WBoqQ5GV0riIhTyL3zhC33uiN/+9rfR5dgFHnXUUUGAg0FXZLWDboRCmev0yrjzzjujQRsllD7AyukE/vCHP0QpGL2Fsp5ESJSmjRs3LnSvbrWCgdX76KOPRldsuplNG84kSULvFDs99thjg+gGBAJrFS644IJIorvuuuuqeybrXUnRD7Gp6KEW0sVGmdVpp50Wn7/5zW+GPmNLXKvYcsst31AkQf/CrmUEJEu1YXHbKiQLrTj//PMjj4vYSCZ/nz5GHVh99dWLZJiEepCIsWW57q2CcZR0SDem3sjL33rrrYtlllkm9GS5YjPNNFPoXe7NPdrcmyTGodAyDsYU/tnPflZJRBKvZi+Y4SL3Ck1xnDI3IlrMCt/jckz3733vexFSEvHfeOONo287S0XOFPPd++yq4HzEEVmqSaerJMMi9o80uCGI/e9///vhf3KNxL/7yw7SDNeeHlwl6WzxmpTlsJxxP24K7gmc3jn6uyVs+X0ZHmF2S5Rf+RW5JPLGycsVxCfnvQQDQW/XXIbzs4JdR/a78Y/hWvyU7sFzZk0OhZYRGFl86KGHhtvBYBswp+ZoJTYPOeSQuKDy4NCfJLuR5dwP+oRiwY4hdr761a/GYlAG6vDDD68kThFEtuuuu4ZzEBCwcnj73XR+ICMNYoMacPHFFwdx8f+ZdEQn858nn76WHZ8eaq2h58zk2nAO7hrvbVQBD9b37jEToXN48MbIM8jOXP+D8AdCJh7nteX/Ma6YAMKnnlhpRNtNnbEPOuigcFt4ZknKVM80OFpGYG5QpqSZs/322wfFm71ktEzNH/zgBxHULkMeFKXdjZ1++unh9T7vvPNCb6HHOR53E2oyyw0cR6H+Cdtss02cw+VT+m1inplzdgJJBQhipz+ussoqcU36nyIuBIjQODhtOIkxyxuCQCg2hGHsTDyvOOFQMCkRTH+iQaiIJhNQ3oeIEDCOabyFiGykiH1Zfza+/GGYBGnjufBfmtD1oGUEhrAMGmD1bthMNavNKuIjdy82aMInWC+CwrmI1c985jMx683SzOko/DgTrzOlkijk/Zegt/TSS8cxzrXmmmtWNtxww+i/0CkYA5Np2223jXsTwdhvv/1qPgxEg5AQVOY2xitzN+OAwByXXzOx+R/fe3TGCdFw3CKkMpFlwsL5fHZM3p/VjKFgcpAml19+eeXjH/94PEcO4/x8hgQCaxf4TThdOSLTIFX3FkXSt8KHQkHnP2IYJH0gvkuDFwq98vo0iPE5ca7Yx8fkfGmAihNPPDGOB8dJN2ZIeD8YXEd6qEMeN1w4vzrE9CDDQFHAkQij+u3wYAwo44m4oiLIlggynJxend8x7UCSMEXieOFgZQQ0ei9tJbBE/dGLgZVXBmtTmVQSpVGvl61OD57H3oNJLLz49Kc/3Vc3yNu/xRZbFIkbFMcff/wbCIRXmcMzccTqnsmEp/wrzbqIGiBkFhErz5ZmZPH1r3+9uOuuu1rqsEUAvPmIzES68847q990F0499dQiccAiidAiceIg5kbRUj9YfxCZFrgk+ijxGcSY2B2LcZFFFumLy+lpJYYpk5XuIjmRY/bnP/95iBLtjlgxFH56QzmlhIhJ3C0WHaCHERMsU78jEhxPaaW8+j/6HP8OEewYVu6OO+4YPix+HSKuGYhJEi18g8ZAe6SsIox2IAl6l1ZR9MU00aMF1bCuH4ENF2W2jbqTLhFci1/l/vvvjzo//RXMhDL22Wef8ButttpqURPoN86lTlBhaJ7xGnHgZjgbEUD0qE7mm9FxhqgtQxxUKElHmk033bTYd999o1yev6YsojP8p1hb0v+C47hWFdf8Ws7VDIyLcBjRgpPxhRmnbkDSaYtk8Uf7J2G5ZAlXv2kcdXMwymfSgcJ3QuGmuNuXFU+nSSIpPrOKWE04BMWbu6HsvZcnJaRkc4wlTIRZcDVK8dZbbx2e+UQsoYxSMHEqvhwKPc6mMdpFF11Uc8HOfD1lY2Eo4Iyuh9EhSiDrlrLOXzVc14cx4qdjxLgmCrJ7q1tB7gC4IUgIy90YP2Ndj79rIAxJYNwCzH/+HeLEZ47Dso+GODJoLohoYeYiGG4GqTV8Yv3BXyY2qQDEgyW+OP/4y+xLHCvOw6dGbGHVFtREwK4FYWLjWby2ClwJCJdIcA/y2iTcDZcoODL33HPPmDxiqYlLV1ZaaaXqt6MLxtZqvEkvDevR8+GeaEpdQGC1QCRplLHBBhsUs802W7BKCnF6yMFCWX0apKUHH4WbNgo5a4/IY+EMZNn4DWuQ0p1md4hAcLzfClvoMCN7gqLuXEceeWSRuGCEYCjoSa+L39RC0sPCEEgPNdJ6GrUYibJE5MW4ceNCFNfbMG4gaB7HwqUwCx01e752gUGUdNEQ6dQTz7RZDEhgBgVRyfvRUtGDbwRl4qLr0IFsdBMdXOg6SQwFMbAi6WX+oz9R+kyfExtThczi0/NKXM93iJzlmdNkEEcyHuJhsiqZ2Ihyu+22C92wESTOGvldrE36ZTNIYj50GtekH0Sz52s1PJckKcIFRA9uRu8qoyaBIQCdWJjYgrT+vBEglGuvvTbaMSICBCEBUee8ZFkFAVD8k+iJm8KZ5plnnnBpIDgcjQKPi8n5onDvv//+QfD2OadjrrjiisgLS9ZkcLQkvsOdsdtuuwXx8ttI/JMoh0iSWK1eYf3ABQV2EWjSLat7hwf5Yrgvw+WUU06paXh0AohdQiHOlVSVSALFFFqBN2ivFHXKNR1J0cZ6660Xcat6QDfjJjjiiCPCxGX2+yzlg1uA4i7QStkl13fYYYf4HXN+r732iriiMMsdd9wR7gohJ2nXV199dZ9rQfwyEXDoMowHRgD3BZeEtB2xTyEnbgfefd/R74RHpP+kew4XgmPqAReLcJZwFf3EPQ4XUpi4Uuix3BaMHdfTSTA+uIGE9Iyx4hwRk5bFdIPMSrj77rsjTUPKRtaN6gXxpZGHbnpSbnjpcRacaf311w+9zczlZNUu6KqrrgqxR7ydfvrpMbOJO132cA0cyG/NKqLKsfRC/8NhikvhSlwkXBgcgmPGjAnOmAatbxbSo+g+dAociddf+nW9HM04cH1ojtvfNdIIcF7j679xC9ffCj1nuHA9RDfJ4Hq4dkivVuINBHbooYcGGyfeGkWa5SHq5MwTk8QgYpODj7A8KOKRSKNEGmj6kX5V+oJ6zxfFR6Z5LXGnGS1DQ09TxoFBcW4Px+/zddondxzR8qP5bYbroUsiMkos/5v/QjR+Vw/oJCaM629GfBCL1A5KP/0wcfm2ha2GAj2bseU6TMzE2avftA5TEBgCoNNQ8oYziB6WDsqIBHcQt/Kg7c/6hs8eLGXXfyE0VupJJ50UCjvOJuwj191vXIdYZH99BWEhlkzMMNA1+x5h4MxJrEYRCYKeeeaZg/PVc6/0lJ122ik4cbNWIEMEh8eFjUMSl9VvRg7GxFggLgyF5W7ythpTEBiioAxTqBsBb7hMSGLJA6e0M/MzPEDElm+A28ENcWmw7BgUqoUGY8/EoCod3IlYYVn6nZaT2Tr0PwLs3CWOofRnwvSd/3Ud4HXzzTcPTnnTTTfFvsHg94geUTMumoVJQ51gtSF8RlE7HnAtMNrOPPPMvkxVEZd6JtlwMAWBcReQx+WAcT0wG+k/dB+sX3A7+8GefPLJCG4TceR95jaAEyTFN3QsgW+DPhCkWyMo4lP4ZaGFFgrdKhMHruD8G264YXBQeh7XhnRtnLEM14RrEOeC4PWqA45zDccdd1xLxJoJzVLnUsHNWdAjAZPU+CEu4071aBemIDAxOA+bEt0I6EgGnnijh2WOgpiIFUSLGBCGmFx+OOKEZi8xNVScLnMPDlfEimPaZzYiZCIPF0Qw+RipJs6Py5WV6dyXlOO4kTIzRopFDdQP4JStwKWXXhrXKEuEqyBnj7QLJhcdFFFz3yC2dnLOKQjMQ3KzjeoYOAZuYbDKBbEclRRjDxzRGkB6T1YmWXS8+YgC4ZXFan+ccMIJYTBQTPsDkSBw5ylfO73ptNNOC4UewWUI5OK2jVrJRO6XvvSl8OW1atZ7uEQUAmNFi0AMNdmGC+ORaxo9F7WrWWVoF6ZwdqQ/Cz9PuoDqnvogbSax+8iVl4rD1wUC486lGEMWpPJ5aTUCy+CzgHJ60NHHwlYLSY+KADvfTOJE8bkM+eL+S0pQmiDVvZXw6ygckb4jYM7HB0rexRzFCJPyX7nhhhsicD8UxFqdMz2ovnM1CzFOXYds0ptcj9TkViMRcmQNC+Z7JlLOLQ/ontqKKqEFzHY6Tn+dZShQpLF2/itGAl8VCOdwD0gUxB158lmMZV2LuDSL+L1YlLVAHBFLFGJ6A6vHOfPso2fhjAOxeq6AVVZZpc8TT58TqsKthW9wX6JiKNArx48fHxyQuGwljBmRhbsYp0ajJ0OBdKBiOL/r72+VtwtTcDCJebz2OFkj4JXnrdcwo+wBlqKDq9ivygaX4A1Ppnn8B66iMOLcc8+NbIlaqTcgc8PvHS9KoAkKrpUmQnwvidBMVHTRH0nchNdeQYPMD0iTIDImcF3ZEjkzZCi4ZtzL8a2e+bgsCSCDQyUSrz9u3yzSM44UJylDnpHCYJIiF3W0HZPpbDLoRGRzoytt8SuZHfSg9OCCU2RuYSbiZKy9rGjT0cQU+dvoVeKUHH10uKFg5kkqzNEAoLgyIqRYc1/gbLiZ/6Pf0MG4UMB+ugjOiTNS+K3lWA/X5kZJoiX0MPpYq8EVY43GGWecMfxT9MZmOY3rxP3520gJ2TAjiSk4GF2KjmFmNwJcK9fSOUcSh8EZcC4cUfqzHl855Zb+omRNUqKZqgxKktu4cePi+4Eg4VAinCojuWa5ZN3/ql7C0ZS5qc+ky+B64qrimmKKgJv5L3V9ZjJOmAiwZnuC/kgEGdesTrAejtco6EZJTYhYoDEyLuKw9KfhwO8UMSsJdL1pYkSHyRFFldACZrx4G99UI8AV+Lq4I3Cx7Iey2JOFlnAxMTg6Hn2JDnbzzTfH99wY9XADLg+WJr2JNYpT4UIZ/gNXxF3cAz2GS0GIikMXcCD6GG7rGK/cFbicexgMvr/mmmvC+uQeGer4ZsDK5gCmH4rlZp22UZAa/JK4F+ux0XSlVmAKAiO6EBd/VaOsmUjkm0JkAtfibRRvvjUBYl5rD9M+ijICIdKY5iIBQ4H4ECUg7rg/wPVySzAw8gMn9og7YhthlZVlBC7KwIvtGP/LuVkPgfv/gw8+OIyF4T7weuFeRDrcK6OGGG+0RoAbRVkgpd5E5iRu56QYCFMQGJidiMBro8BRMlfBOQwQDia04mYVQeAwZhTr0uxqxBfDx5b1NQPOZ4RAzXYPpP8A+owI8/7cLEVyY73/mYG7834P57fDgesWk+UQRWSs8HotS8whl82JVvTv1TaSeAOB4UTEC6ofLHQzFIRiuDxsogNEm5Rczk1mMu9/LaIYCiIFiBOhEMOCz67XvuzAxW1UEjE4pP9wS/gfhEGJdiyDpl542H7nP8udg9oNnJloQ2CkSj3Gl3vn2Jax4ndWunX9ncIbCAzEIokzM6jeWdMfZrzMSDcrZEO8ZO+372zDxRFHHBEpQK6PbiYTA7fMab5eZcrSsehMLFXE7f9ZoLieFKF6gaj8RvFpu7zstWBSuBf3Sh/jJxvM/+ZZyR7O+V3aXpVjv51ATQIzC5jjOb7YLMygVs4iDk8cKhM/ohGHtB8uueSSICxBaeKZSOVYZVDgQnQageZ64H+4QOSeEdEjDfdIXaFOIBpxVc+nFnBw+V2I0fW22hk8HNQkMKD8JpM24nsjFeUfLhgmvPvEibwv3MmSxCxXXEBQXWoK/U2viHIy4mCwvLH7H04CQCth4ihQdo8kSy1/Ib1LAbGsFv6ukRTlg2FAAsNxOOWwW6y21am0rYQZTql1rR6CvhayV3OmhBnPhZGdsPWAhSmFmGgcyVytgcA6xokZSJI6+4PF7HpxOelS2dHdaQxIYMAizOm99AAPbCQsqGbgQVCGGyGmMvyG3iM/S1SDUVH2t3USxCMC0qW7P0QzqDQUez7JTk+IjEFLR8QYVRWJ/yUWHFU6p556alT/+DwakQa4Mnbs2IjtNRIvTIQVrRFkHCSOHVklyv41/miqsrmFSNw5XtNze4N3P+9zrbbR0p5gUAIDF6s3gQ6FCEz4QgvFY489NrrhJH2memR3QqpQ0q8ibOS+3J9QjVAT4qq3ZK/TqEV0owENtW+SSZCsyshqSEpkEJ/cKrE5WQA5lplnvFmUsyu85v04S/7sATou97fwmvd77X9s3m8bDmRXyEeTWZDEaMRL5V8hNL39TSbZFjI+RhvEW3HVZCFGr4s8tqC37TrrrNPXETLHXjuNhvuDOfzFF1+MwlwPR+MSgetnnnkmCCQTTEat9wbG+7xBJpj8XR68/Ln8Pm9+k9NO8v9mgizvA9edlP2+rkAIyuekZ8XDQFwmiz5ioxVvCgIrA0vOG51M1qkHmJTi6hGT4XPeh4M43ivQdbz/978nL0GXP3t1TrqRzWcEUT7eeXz2Pm/5nPk9+G/EqLpbXpicqKQQR+cfBNUMRxxJdCOBmdk9dAnUMbIiuWDSBKrunQxOVb4/frBGwmDtxutToIce2oAegfXQVvQIrIe2okdgUxko/mXlv9No+EqS3tZnvWXrsNs39+Keemg96nZTcBkobhVOURTCJcF9UOfPRy34yhR8KNhdZJFFRrUvLLsp+Owuuuii8PllZDcF/yQ3hWjEaEBdBMaDryJYV0FO1akVqpSsxGtBKw7Y0YZMYLpuX3jhhVOsN9TVBGYZPe0q3QQn5RJLLBElaN3gnBwKbt8EmjRpUhTu4sraf1qDUthrNGEoArOiiNeuIjD6iR6lJ554YmWhhRaKbAN1hOrschimm+H2ef1FIPQq1Vtj/vnnj/eLLbZY9ajRAf3r9bdV2W7VuXItJ85lCUH3IeNF34lRAQQ2GJLuFR2WeZC9Ts3Q0dp9ygMbLRmhZeiY7frUH+ihq+2Vhb7UKCgLVIGkOCSX9Y0GNGRFDiQSdXjOIGIEk9O54zPu4HOG78u5ZN5nC85vWHVli87nZoELS8mRjrPBBhtEnwYB+/4Y7SKf2JPv9tJLL1XOOeec6Puhev2AAw6I5Xi4J3QxmmOOOaq/6Dyadph4eIKvGdJ5GAOZqGRcpJnXRzRXXHFFZcKECfEelLXnJiaC2dqUS2jMcGwOjA8X2gVoUYCYF1988Wi2ooy+TOjdABYuVUVenlYM0orytvzyy0cL8r322muKFladRks8cuUHhWMhlMzBvNdTIn+mK2SCAoq1VB9w7G233Rb9HzIkOtIrmgF9hVVIfzHr8yLyus50G2RJWCDfxDNR8sbKN5FliYwm3Xj0uHwTco5X2RPNWm0k9bkWEKh0Y+k6YHEu/8V67Ebw3bkfY5M3Cv9o8uBntOSKLNie4caxcoMAs846a3Q4zDePlWPvGVb7mG+++eI9/WLTTTeNPK0M/cPq6XwzGKQ+62Ko0wx90aLyiEzefg9tRhJdgyKJvz4rUlVLLSQdqfpucrlbUsyrn17vD5Hhsy2j/L5dUFdogYlcTq/SW0Ftf+j4M5qtyG7EkBysLM/LWaJllB1+OFXZGvP7Muv2uXzO8vt2QefGffbZJ5R96yAxJBZeeOHqt68j31//a+xh+BjS0cr6sygWBysHJE8y8cLLTTfq9gfh/lipCkE4KLkwRCs00ROb7KE51BUq4mPhzWcBMoHNfrpWEidTBYHxKwmx6I2Ki1n9zUq77ehiOBBeeOGF0BNZ0CImK6+8cvWb7kZdBManpcjAEnTcCFMrGCQbbbRR+MwYKiMFHJQ/EPfk8iHSEXiZyFi8JkIdj6suqMbKBS/tRF0EBmY2f5aZro6QL6vsse9G4L7EPCuV+Mc51HaOdE2kcbW2JncD4rZwPIcwkZ1x0kknhf+uWadzhjirImOTqp2om8CAOOG5z6/CON1MYMAAybWUtuxeGUmojte8mB6o8FfjYg5VjtMMVfRqUFsROgN69IYbbtj2yVQXgTnEyhhWfSUq77333hiUVt1sp8FgUZ0uDcYKu7hH2TJuN0xW3aR1vhbV4Fc85ZRTolq+21EXgYkN7rfffpWLL744PhMpvOLlyuluRbYiTRiBeIW5QkqC4mX3SruByKgeNoSOw0wNqIvA9JXXYQd23nnnsCKx1qnFTSEGSre0Csmdd94Z8byzzjprighFO+ERSEMXyGapL7DAApFcOBr7YzSKIQmMGKR4snKki2DdOaY3NcF9yhKVkcCCpFQvs8wy1W/bC6lDFo+49tprw/emuQy3kC1DuhEncavUEkmjq666avuJGIENhnpCRaMdQlXaqetIPXbs2FjIoVZz3E6FijQnTkp9rAOgs7Rr1IW7jKOOOioWErPsXys2i+0nrl09e/swJAejl+yyyy7h2bYkiz5a/cGFsf3228eyLI1YYcQTv0+zDluzWoBcmnMtPPLII2ExjRs3LhLypLu4Tg7kcqaG1CG5bZRrkQu60EiAj+uwww6LMVZ4onpLQN6yMhnEeKtcFMD/RRK1W89sCYE5Zu211471g2RL1AsP3nnpdc34Y2688cZwAOtZVgselmqok08+ObzzeoNZq5LRUs7s6BSBAaLynw8++GBck4TI0Z5hWw9aTr44USMbTmIW1fqukW0w4BBma+ZWPNj+dzTlg1n6EFExqEzoqYG4oCUcjIhS8YIzCHPUC+f2kLk9mhlQokOMNFu6/XHNNddENoXcM2tSUuaJR/t5zzM6xcE8AhxWIoEICStSnn3SlapHdC9aQmBOIdxRLu4YaRB9ZWIpg/7i+lnCzz//fDhVZYgo/yqjUwQm4/bggw8Ob70GxiYAtUFBRwYVwPXxl7UCrEh1lJI82woENhimBisSWJLuJRFbtCpPBkb1m9fRSStSa/K99947Vn6zuJcytDKsuWQxCat4tGKznOFIrARSV8Jh1pF4u4m09Lvqt90D9yCDgMVay0HMEs7FKI5txBpuFrivyiCFGzIoLKqvfXwZxLu+IBzCrdj0trCQayPAPcVLeQvKhTmDYUgRCXQbyqeHoG8DC4yDbiQfQrtg0LhKWHGcq+KsPPlcGSPlyQexXiL84YcfDjFJRI4WRd8YIUqEpRpLTFrocN99960eMTDqIjAzZ/z48VE0wXeFE5DducNzN4OBQne0uTf610EHHRRB76Gs0zcDhK4uu+yyqGdVMIPLe+4+c0sNhboIDAS8hTJYXuoJiUvKs4fSzcAlWLEIi7N2tdVWC3E1NUyeZoCp4FZXXnlliEP+TTlzQoV6YLB465mAdRMYEJGyKrkFvO924gKDhMik59CFpsY4ayNADghLTpqW6CafhjCI6vjjj48VXjioJWfWg7oJDDHhWCia55zOksVKN4NCz99kdqqfxMXolm9W8YgcZJUccsghoXfRv4yPjFtuFDWsCK7eeoW6CAzHkmjImZqtBw9gankI5UnCD2YApRS/WYkMSCr+OK+Kn3MURF0G/2C9Y1MXgdG9dtpppyAu1dDKulQVlQPF3YrMmZnfqopklGpRSdeQn99tcD8YAncM7jwccEZLHFB4wgGMo6EBqUziug2NCwIbCsmqihUkkiIcC3tyBibrq/pt94PjNYmD4uijjw5Hqx5bV111VfXb7gFH8uWXXx5LRg93tY800aLvWNKxYmURa6tLb5pnnnli7VAO60ZQF4HJU0rKbyy03q1ARNbpNkGsDlsLkyZNCgKba665iqToVvd2BxDXhAkTIpfMsssWxNeczn3XiyQOo8XCggsuWIwfPz6IK3HEWPEX0eVF/RtBXSJSzykxSOY7Jb8W0p+HiMlYYYUVwoGpTD9Dhmj2oWQosOBRpuNlEMECvo7LrZsEsyngUnJ4ukE8zf+wdAYDEYi1c6QSIbIpTjjhhMgPK4OPhxLrvNaLlJffLZCKdOCBB0Z8NXGwsPb4LTWTce/1dM4WYHceCr0qpzyufIU2lnbDemmQ2RDAcnEwWZC1QFwmAyAyJWefffZYVzoRR3HMMcfE+tnWvU46W3xOimN8b5ZoBWl9aS0fp5122ogB+r32kGKBMjitw50svFjS2XEWdse+F1100Zit9cQMiYtEyCH2EsEW6UGEuO+f1WpZ4szBzjvvvOre0Q1cx9jPOOOMRdKTi6effrr6TRGtNY2xTF7NXgZSa15++eV4xprDGJtXX321+k3zaFk+GNN+u+22i1CLUBLgFokow2mnPXgGbmQxUC0tHZOuIzibjAH+l7LxwOdiVpWj/oojWDj1hnJwXY5CcT7nMcNxRjnu3QruAwmbcsgU6O66666hlOO+Ge6T1cc4k9+fJlhkx5SBa/MOUOSFAWVwNJJyNRRaRmAIRfcaLbSJS8BO+VJYJOW2mB7ucccdFw/YMTYDRgwreHCuDKJMEJhjN7NnnxGZRUXrsZSkIT/77LNhKYK8NRNCiVo3wliYjGKBxlzXRkRChBlbURabYhKZxrpEih0TgaxjrgcwDsSnmkznkjPX6gjGNEmZG199PyA8dOVcsi6VtdcC05huxMTFoVQok/tiWYiMs05vUblYHrTj3DTnJq8wPcmNM6+5CeTO87AbMIRFX6LD4W5+aybilHSOoXKaXAfvtHvQMzbrX/LbygF7/6+cnjdfyKhWi6dOgy6EI9O3jAuiUG9goqn85lbA9W2XXnpp6Lg2axsYdxMb10KMuJvxwN222Wab9oTHJkvKwTGUDgaJQMLqsLHSyPs008LySDcUrywdZi5TOG+JMMNS4frIGx3AvjQD+/YlbhX76At0J/t8X4/Z7FpUFe2///6hp9AFy7pKRjfoYEkchv4qXyxJgL6FSY1j4lTFvPPOW2yxxRbFOuusE7out0VG4mrRCp1eRt9NRlNx5plntlTn6o+WEdhoB+LMRD8QUY5mAnPtXAeMpWQZxrW6pwwTPFm+sRrugw8+GISFwBIXqx4xGe594sSJUSZ3/vnnN+zXahR1uSkUhSqnTzcUpm+i/mCnw/UUjzakQQ4RLx9Lqo7MCvogUd1pGHM6LV3Jkj5cJ+KE1IsyXL9mKcQnnYtasu6660YHauK+U6iLwCSasVbIazqQ6mO9E1gb3U5kHiDdixFC6fVZNqleXcJhnQR9S68KCZ9e6Uks71pj3tUEZtBV4bAQWX5mlJufmsC4YJzgWopcVB91Eh6L3DuBZtYgwrKa2kDx3+ESmBR4RhwrGxAvoyBnlTSLuggMHOaizXIExiLhqUd83QyW6nTTTRcVSfxqIghDRQZGAvxSoglcKSxFFvRgLaWGS2CarqjK9zypPQiOVcrt0YpxqJvAykBU9Bavw/j5qAJTH5HZsp+tk+DjQlhEtNCcWgjNWFzfYBgugXGMy5LAtYXdOLq5aaQstaIus2EC4+TkS6kX2CzFdNtttx1ykFoFnmsOxUaWitG6gLOxFYM6XPD5aUInciHygcj6+6ZMakSYYVIQm6RJMwTGWavbDm4JrSKwhjV0N0i5b2QzACPJ6egslPZGNmEXD6kTMKbCaQhc0F9vMFZsLccn56lkSJVHnNG4HJVl1AIHmxqRHlr4eOrdHN8p3HLLLcUmm2wSwfvEecOnNRDkrCWRGb7JLbfcski6Y5G4UJ8fbI011igefvjhCOzX8oP1xz333FOMGTOmSDpfOK933HHH2DjBW4Gpw5FVA0QHi6jerRP6F86lAJZYssg+X5c26izawUCcq5t0LANlNGOqJbDRDrFU62rqkcFpKgaqcodKMTWhR2AdAMcuJZpHXgGFdBtFrNnvpFpr4403jkQAm9alIijD9T0mFSAMHgZALqLlbhoJ9AisA6DIc1oTczJPZXuURTSl3THaCUhJYumJppStx0bAgJChSqTKhuHnUsTj3O1Gj8A6AMmPcuSIx4FcN/YLz0kzajYmioPZpCdx30gCTfp36IDtRo/AOgCLtnMv1Fu82ipIUkBcI7lofI/Aemgr2kpg4lpSd3t486ItBKY6WmoJViwrYfPNNw9PeQ/dC8yC3si63WyzzSKiUA9aTmDiaVJLpJogMlYLK0h0nlXUQ/OgnKthEOCmrJfBvyYzwgKn/eF4LpL+lUUgTOb7Wq6Q559/PvrDcQhPmjQpKsLElgXGa52rjJa3KNR5RwGuJDnUbjB0DMylUYpqexgcJADC0XmaV18xjc9y8vTR58bQpNhxXA2KPcRTNYiTmCimiWD8hnvDd4gO19EVyT7PxWfncg5dCx3n96qw+MtkVQCi4jZRgK2VJwiOe56MhlymWAvDStcZDPw7iEkFtgoimDhxYpjcZlW+6B4GB84ghMX5ysVQDmf15xo5KI5oyhwoZ1r03w/53OA7x2RwkZTdJ6SS8JRoQyYmhG5NS1wMIxkILScwHMziWcrW1OG5eM5EdYz6eirN76G7oNxPipbog9bnCJc/DXFJDZLmMxBaTmBYs9o8BKV4wixRG7nlllsGgY2GbNEeGoPnR6+WYyZsRf+TF8hhLJ462DNtOYFlTJgwIap0QMKhfPKeeOxeUOypPiQUka0wRr3A4IUxlcr/AyuMYLRJJ5loAAAAAElFTkSuQmCC;" vertex="1" parent="1">
          <mxGeometry x="350" y="189.6" width="58.1" height="60.4" as="geometry" />
        </mxCell>
        <mxCell id="ehCbc-gGsFOHaVZKTLyM-9" value="" style="shape=image;verticalLabelPosition=bottom;labelBackgroundColor=default;verticalAlign=top;aspect=fixed;imageAspect=0;image=data:image/png,iVBORw0KGgoAAAANSUhEUgAAAJ4AAACjCAYAAAB7YacIAAAAAXNSR0IArs4c6QAAAARnQU1BAACxjwv8YQUAAAAJcEhZcwAADsMAAA7DAcdvqGQAAEKaSURBVHhezZ0HvG1VccYPaBQDxh5FERugCZpYsERUVFBM7JooFgIYG7GBQRSNAvbeE3vFgmJXFEWUUDT2rklQYzcBu6gY0JP9X/d858357sza51zuU7/fb793z8yaWd/MWrutvfba2/zmN7+ZbrvttpOI3/72t227wAUuMNlmm21m0jUM5dv/6CKm02nT4cv9yQb5ZviDG3r3hwwdcH9jMWHrOvlDVnHIdFW8lO/FlPFbJqbKH7bOAWyNnGd5EL8s50PZxcJylBXeTMJgo/7YMn/IQeavFxP6C17wggs62YCKA+Vdp5gyfmMxZfzgAbKY2Hr+Mg7nnXde+3/VnKsu94cuywPlq5iazVBgLbIBCLLCcgK8cumyypGjzwhXDUT5VRso8lsloT0OYzFlus2MCchfFtMYP+cAev56/DJ/PQ7SZRzkb97xELD1GjWrvCKsILPKt0YCgPurYgLUg20VL7KKQ6ar4qV8L6aMXy+mZfg5BwCHzGaMX+ZvjANblXOArlnJUVYYOciSsyphoMrdZswfW+Yv8osYiwm9n16B/GX80FHedTGmLF7klb+xnEf0OCBnyzjo9Jpx2EgbVhzGYkKvmNrNRVZYToBXLl1WuSrICFcNRPleAsb4ZQ3k/n76059OPv/5z0/++7//e3Luuec22e8Lf/RHfzS5ylWuMvmLv/iLycUudrGZdDwmdBvN+TI5Eip/G+WQ6bYZGmG6aqerCCNH7/7A1kgAcH/I2aK/j3/845PHPe5xkzPOOGNy5plnzo8Avy9wpP3TP/3Tya677jp5/OMfP7nBDW7QjUk6crBsjsDWyHnFgW2Vdt9mMJhuFuFVK99a/qLNt771rcnVr371+W/KODaiG7PJ5CDT/ed//udkp512avIsJvKA3So5YudCVuWoyjl65O4Pm4yD/GUcKn6tDheoUbMKcNIjnFXe89dLQEVY/noJlc0555wzOfTQQ9vfgDIOlXUd8p4OVP4yOah0cPz1r3+dxkQesFs158h6Oar8xfwB2VQcsnYCFT9k6OaeJACrVo7ebQA2IKt8LAEVYeAJRZ75++pXvzr55Cc/2fxg75D/TCe4rmdT1QN6HOD4ta99bSZZA2XPb84j5M9zBCp/yNBVHNgqDtj22nDuTYJVO0mvcrBqAip/kV+EgkHu/n7wgx+0GwnKOOTfdch7OlD5y+Sg0skfHOEqUHYjOfpDGBymHvmLEAfQ2ioKqgqQu06Eq8pBVXnlLwvGCUdEf84BXQWV9TJeb0RlA9BV9fV0wHX83mjOkfVyVPnz/MkGmduIX8YBOaieAkV+26rwKpVXhAE2wImpcmwqf5UN8IQirxKKXHYO+cd3BuSu69mgq3xVOuSZjt/wRlflCDn6iJjzCMpXOar89ThEfxkH+YuI/iK/Vipr8B5htqzysUN9FkzPH3KQ+UOHPPOH3m3wLf/oI6LOUdkAdJkcVLqeP7ij38ycY1PlKPNXcZA/6nGb2OmiTjbA/Q2/11egIF0nwlXlyFZNAFv0x/XO17/+9ckHPvCByXvf+97Jpz71qcmPf/zjpgPRn3MQPw71FdBXcJ38ZzboKl89Hah0q+Yc3c9//vPJpz/96cnxxx8/+eAHT5x885vfbDlE1/Pn+UOmNnQb6SoOYJnTq9C4LVt5RRhgA7JO1yoZbCp/MZj/+7//mzz/+c+f7L///pN73GO/yX777Te55z3vOTnooIMmJ598cquHLfOHXPwc8o/e0dMhy+SgkoOqHraenbgIYzk/5ZRTWm7ucY97TO52t7tN7n73u7fcPe95z2tHwirn7g8ZOmRug466sk5X5Tz6yzod+vkkAf6rGpXCbFnlGqjMglnV38Me9rDJK17ximbnuPzlLz95yUteMtlnn31mki2QPz/S0VnpuD/5yU8an4hY7w1veMPJO97xjvmjNMXkSVslJo7St7zlLdvdqupyDgDdxS9+8ckb3vCGyc1vfvOZtJ9z/BDb/e9//8l3vvOdmXQNlIXbgQceOHnhC184k675ww6d+yMm2UUo3owDcvSukw0yz1+MiYI8q50OyZ4OBvxcADJ0lHEgZ3NQdmjE0h+66O9HP/rR9KEPfeh0u+22K7eLXOQi05122ml6+umnL/gVvwwf/vCHpzvuuGPpj42/995775lF7a+XI+liTEPHm+68887zumLd2sQBjnAVxCH6E8jdqaeeOr3iFa9Y+tNvcvrDH/6w9DcWk7eTMJajTIdN7BPz4ZSsxw+OunsJ8F5NeeywqfzFveRXv/rV5MlPfvLk9a9/ffudgbLYcfTgCPbud7+7+YKD+EWIQwZ8yR9bRM9fL0fokCsmIF/A6xEH4DrlyP0BfL7nPe+ZHHDAAZOzzjprJl0DZbGL/l73utdNnvjEJ7Ycuz/KUReyLF50fjQDkV9E9Jcd6dAjl922Spo7ojAbcq986NHt/6zT9RpIhKO/ww8/fPLiF7948stf/nImWQRlsRP+93//d/Lwhz98uJD+4DzI6E8J8PpBLFchi3csR35hDZCPIcYlZDkCyE866aTJP/3TP02+973vzaRroGzmiw73spe9bPKoRz1qwZ9yhCyLSfE6B+Tos5yjA1WO3N/we7kjk6COVXW6yp9XzjUQHejlL39568hZ4iibyUn8wQcfPPnoRz/a/Ar8zVHxIx/5yOSoo46aPOQhD5nfEcc4Mp8g8gOUg1svJs8DiJwc8h85wBGucP63f/u3FkP0QV6JiZizTtcD/Mkxz4OVC3xj5zHBSTG5X/Hx62jZUN5zgZzN8woWpr4DCiLKCsdeHXWx8qyB3N/ZZ589OfrooyevfOUrlz7SCfKBjhkdz372sye3u93tJsO1zOS4446bnHDCCZOPfexjbf6dEG0y7Lnnnu0IGkHZsR3JGwgb5IBhjr/8y79s07CEXkySX+hCF2o3Gbe97W0nd77znSeXvOQl26XFIx7xiPRGovIHom649pvc5z73aZ37j//4j9fFJO6xnYSsDYFskGU5ymxAO3gNyjk7BPzMejx7DjLv1ZTvNVBW+XDRO3nNa17TfY5ayUHUDRfZk7/5m79p41hc9zDLIyLW6z6lu/GNb7yu440d6ao9H5Aj7qRjx8u4g0o+3BxMLnWpS01uc5vbtDHNb3/72zPNGrBzG6HS0am5Rn7Ri140k6xBMWXtrj6Rxds60FDe+8SYPzD6zgVQYa9AlfcaKPrjKMSRzgOPoOyM0jr0dBVUt9tFeTzirRqT4DnidHnd61637QxjHECmc5lQ+QOVXZTf9773nTzhCU9owzjI4J7FpHjHdrII2WT5U46ajj8oiLNlEiqo8qqB3B+nHu6wXv3qV7ffGXpJG9M5otztXB5/n59OF2122GGHdpoE+O1xqHQZ0FU20jncn+52aZMqptiGEcjQAddFG89fzBF1tbtaDCSI6HU6dM1B0kDo3d9jH/vYdofF5MwMlMXOIR+r6GK9lS7KmYYOiAneWUxs3kD4iDmKOk6Vf/d3fzf7tYhYzpHxE9BlcqGyAVFHG3DDobtd56M+MRZvhHI01o+kaxn2CoAKeyOo8l4Dxco5vR5yyCHtqQPXX1VyMrlQ2YDKDrnrKpvrX//6TdaLKcsRcuCNgC9yRNxXuMIVZtI1RA7L8gNet6OyyeoBPJ7k5o6RhXgjRkyU36y716ofDb+X66FAlWPjjkQ42hAQh3RuJLwOAXmWGCHTyZfrkPfqAW7DzclNb3rT9ncWE1uWh96OiQ3lt99++3Zp8Wd/9mcz7RpWiQmgQ57pAM9qeWstIvJ1yB+gbWgj2kp1ZDsSMYGs08nGcxFzFPlQfmGSAIidLoLC6ChfdTqv4Mgjj2yH9I0c6XgFkLtVh/xXdsB1lQ2nQ553XvOa11zgDYiJLet0sRFc5zn6q7/6q9b59t577/Y7413xA+gyucBTHyZWPPe5z213rWDMX4ROu7RVFW/VJ5Qjb3cQbVJ/wx9znDd7zjY4m0nWwO/4nC0CmT/T+9nPfjZ92MMetvAc0bf4TNG34fQ0PeWUU6Y/+clPpvvvv/9c7s8i41bpXM7fl73sZafDUWg6nP6nwylnxnoLspgE5chBWeRZjqT78pe/PH3BC14wHTrjdDhCTf/kT/6k5C2ule4Sl7jE9ElPetICR3J2+ctfPi3P1quH/2kz2k4Q7yxe5SiLVzaeP37LZj6cMvxoPdJ7NerBoPXaZY50Or1yI8F1xMz9AiibyQGnjGc84xltABUwHnbEEUe0o0Zm53tThHTIh0Zu769ydOModKMb3Wh+UxFBTGzZnooc+B4uHbJlckRevvKVr0xOPPHEyWmnnTZ5//vf3+QRlPV4BHTcGDCbRy+EU5aN8cxHPvKR7cX1iMqfOKG78IUv3IZa/vmf/7kNtVR9QjFh6/HKJssROuTNZhCUvXqooHuky3r1oYce2vbGsb0r2y51qUtNTzjhhFangP9f/OIX0+EiOLXBX+ZTMnwOF/nTj3zkI9OzzjqrHeHgXcW0kSPdqjkCyLH7wQ9+MP3Qhz403W+//aYXvehFF7hX27Oe9azp2WefPfO05cgk/uSQuFW+lyOXDx2u5Uv+HGMxsTmyHDFCnzrKCgsKMNr8/Oc/nz7kIQ9ZCMK3XkKZGsSpIgL/4sdp94ADDpiXV9IynzvssMN01113nQ577vTMM8+ceVvDKjEJ4uBYNUdC5o+yH/jAB6a77LJLa3yPiTiRD9d0M4stwJdzIJfVlDC2KnfaHvjAB7Y2jVBMWbyKKYs3s2kdzwuvmlDm0x122GHtmiULgq0XJNdb733ve2fe1oB/BSMwx+3ggw9uNlnihrvI6XA6nQ6n+ulwqplZrWHVmAC/0VU5Ql75y2yAxySoLnL5nOc8Z7rnnnsu5HO33XabPu1pT2s7oNDjgI6cktuYI7Zep5OcumlT+ADFlNWlmDxeflc5XzdJgJ9DwS3n4oDBUdP7+ZuxIG7LV33gD7j2wpaZxRo7oix1ZdcQTPV57WtfOxkap71fIFzmMpdpPG5/+9u368RoNxYTW++aLrvuXTVHABsw5m9orMn//M//tJe8mQbGtdc1rnGNFhd/y6bKkfzxP1OpmL833DQ0nTihc7iOyQTYMhFD/DYaU0TjPRSYMxgrzBYbiE7AfDpuxytQNlSxADrdW97ylvk4GqAs9QAPRhzooNTNBTqd73KXu1y7aRiukWYlFzHsjUvHJPQSig3lV/EHB2SZvyrnAL37AthkHMQPuexOPfXUyd/+7d+2zoeMMg6VzXTccAxH29YRI5SjWJdQ5Vzx8kfDQHZDp1eup/xwra06nLNxCnjf+94387YG/HPIrjiM6SI/sGpMoMcBIM902CF3fwB/bI4xflVMFT9kWUyAXGenXbaxUy9tzE0j0+gFxZTxWybn7Yg3oNzrhkKtl3qv5lae6erDHedMsohqzwLDXW97qedWt7rVUqdXcch08AbObywmtuzIBNAxjMPESVabYobJsKO1YZAhcbNSawPQHGWHi/j2BOTSl750m8oUfYrfKkc6xZvFhC7Lg/xlMSEfOslkuHue/MM//MN8QihQWewd6CTnaHfve9+7vcEmfqvGxCZ+bZmyZQsDks+kxJe+9KXtd4ZI2MFjpLe//e0rn14zfvAGyMVPINHLxIQPnqwwOZV3eLkmYmyNpcOqCQ09XOlKV2pvrbFTaaxwOGq0HUwcxxoIfRYTNsjcRv5iOwkeL6ddJphywIh8IqIP19FxuebTU5KIKufiF5//toUZs8JOGLC383iGxys4ykBZJytwccxNwb777juTrJGiHuwyDugznepH7olCV8Wk/7///e9PvvzlL7fZyizcSIerIP8eVyWPGE5v7caJ1T/pkHRMNUAVbxZTL0dsVafDFl0EA9ZMhf/GN76Rcu/FhS/mVDKZl8eagHK9nGf8yu9c4MwTwBv+vDDMm+sZKJuRBZyCmKFCp/t9nF4B+i9+8YvtEoGjGjcmTNiUD+fuviMqG4DO5ZyWd9lllzY59O///u/b5NOIKufIqhyhI96s0/VyxFmLia8PeMAD2isDgso5d4BOcmbzHHPMMW0nEocs5/Bmy/itG07pFWYKNm/4//KXv5pJtiASc3BY5rW839fpFTmnTh6ov+1tb5tJt6DiLv+uq+RgTCf5da5znXb2YHo8O6Lilb1AvMg8JvxUnU75i6c2IBvKY8dpl0eTnMmiD+cuneRcLh177LHtSL7K6VVAvlBahD0YOeFa6JxzFt9pAJR1sgKnV17CyTqdEhCBHH0WDBwAcueXJYBxRd5E45XAW9ziFpva6TJUNsDtPvOZz7ScMDuGN8vIbSyDD3USYkKvhSbZOForhxHKX9bpPOec/rkWjajijXKGsrj+bR3Icg6oB523LUAH5kc8EcaJJ0CFufjmZZHvfve77TegbCQlSM5cMfZspoKD6K/qdNh6ML1OlyWA1wCf/vSnt4fm/nYWkA/n7r4jKhswpuvJGYe84x3v2CZDXPayl20ycoGemFitnsXDuS5lujp6RgY4XfNAXxMFejnynHPXznUaB4Uxfg4mt7Lkxh577LGQc0A9bNQTOQDxa7rBMeMqSxXmNpxFYjSbokcYSMcpjtm4wBMgiIN3IFAlFPiRjjq5UeAJRg/LchcqORjTZXKQ6VgThWsoQEz//u//3p4eMKwDMhuecrBjIx87vQLOBJwFNOMHuM9KDrhOf9WrXtU6f4TasDq9AnG4wLAnHUVh73RUiByoMMMC7J2cGrTnZfDk0BGQXeta12oX2Vmno3zsQELV6SiPLtpwl/aUpzylTQuSXQbnJ8i/62K9jsoGjNllNlw7If/zP//zVoZYPvGJTzRd5Y/T3l577bVuiAM/5BY75Zxpa7xby7Q1+avizfjxLjMHEu7WI6gn60fA+xFoHc8LizDwTsJAKXdmdCY6XwQ+2DLCJA8dc+JigqiH8ujOT6fjuoc37Tm1xkHeiIqf5CDTgSymMV0l7+mIi1zxOJDB6Wc961ntqN6zIV6OQsyhEyhLbtGrDTm9cuap5jaCSg54Hs5zcq5NKSdQD1vW6dSG3o829J0LDqWMf3G9pyUV5KMKRmCSKA/zgQjHDiSIg3c64KdXrlPodBoU7XFYVbcRVBzAKvyIj/yM2TCswfAG11yAsuQPvdqQ0ytjd3ScVTgILBPHMBSD4hFqw2VOrwL+100SwAmoOp0anHIsrUAnovOtEgwXyg984APbJAH06kBC1emcA38zs4Wv4zCLo+IAevyinOsWjur8f+UrX7ldHjAGySUG78lyqQB40sFDd66vGAvjjpMhG/7mJsBXcwLLcojo2QB08FTH43fWhrxR9qAHPWjBLqKSAzodTyu4bo5tpU5HPbIXkOMr60fo5h1PAuCFVYEaXEDGQGS2mAyogmFqD9cuHPa5boxYttNx1ONag5WmuOmhrNcDKg5e/iY32XOy9977TK597Wu3Tz3x3JXnkxqdF8QhcgPI6YwMSDPU8bnPfa5dC2fT2iMqfmDZmNTxrne966016qCP7cTwB+OG3KAs4y+CTsf1IOu5RJ/qE1mnUxuWnY7yw4+GoSHb5hgKljMeKD9UMh1Ou23mLLMZtDGrgS3KopyJjcN1zMzTGsQhqwsO1AUoc/TRR89nxmT1SF7p2JjsyKzmoZNMhwv05p+tihd5L0fiB/j717/+9XRo7Onhhx/eXgfw+nv8VonpGte4xnS4Liz5Me0/lo9bjwNtetppp828bIFylEFt6PAcLXznIuuh6LI9fHDU/kfHIZ5DMaco0NuDAHL2vv/6r/+aSfpHuiGQJtcex+mVIx1yylb1gEzHaZNhIUbuOQUxkBonWFZ7MbJejsQP8DfXPYx5MZeNAePDDjusPTaLPjJ+VUzilOlAxg9kZyPQ80db0qa8GBVBu7Nl9fT6ETYxR/PvXHhh5FlCATqczZ0M/7NU2K1vfev2G3gwBKlABZ4Zgl6ncw7cSHBNN3Z6rXQMaNPZeA+VDie/MSbn2UvoWI7kixsAJlewbgmXGD3ulRxkOiFrQ8pzunSM+eMumTaNceGPjXpkL8Q2jMA/NpSPuvZX1UORuyMqyCrn2oa16UAvOdIxpMJ1lH5TTxYMcnHQkEnvRkI+XMce/OY3v3nyr//6r+3xmQ/psGUcOKqCLEdjnc794YOZ0nRABoZZHi3C6xaqmEBlo5gAN0gMhQjL+KMt4wQC+eMo7nWq03mfUI6QeY627SXUK1AgfuuMnCMRnc+BD/mJgdIAV73qVZut10U5P70yOMxo+0aGTFh9/a1vfWvbg4drl5l0DdRPeU8aUNI2o9MhQ4eMGxb+j3r+pgxbhMq4HET7COqJeeWpBrmLMVb+JKctebYtX2yeBxA7XQR+xCHL0YIEwTIJjUAGyfe9733tQXZETEwMlMa/613v2q618OflnAMyjlSf/exnF5ITkSWUu1KGEHgnpFqmgvLOAfQSen46HTqeHTM54PTTT2965JG3IB+r6MQB3pHfHe5wh8nuu+/edJW/KOdpCIPxHPXwGTutoBx5HvAT442Y52j2e17YCQMqyCqXzZe+9KU2CyQDZdgiOMVycc/pLguG+iMHbgKY8TzcFa3zBeQj6oY7tfa2PQsQ0sG9HnizUY/rNvP0igwdMtmwZBs7EUC+bExCpevFtPPOO7fOlw30VhzYMZi/uFmn18ivaVQ4IyxCGWF0VMx4VXz3Ah/uR+A0w9HLHzDjy0+vgDsyLnQ5mopLhOqJOjodMy94L4Sjq3MheHF3nZK2tTod724w4xkgj7wF+VhVp0aNHIA6yb3uda+2E0ZUHABPO2hbB/WALEfikOWITTlvM5C9MIdZRuKza7YMrFhOeaGXnDvd6U5tsDN2ZMpljUrgj370o9vM5QxZPZxesYGTrqUiiJXy1OM6NdDW6nSAWdysa6ypWpE7yGISKl0cQK5iEj+mXnFHD/id1QOkY/jnBS94wUzaB2eyq13tauseCmQ5au9cxD2f8TWe6XEHyaltGSzz1pIC4cN43FVGZEc6wOmbaeKrzKfjmo7Ta+9IFxMgwAHZ1ux0QB3PF9MG8uExgZ6OmzQ6HpM3IrIdiUd5zCxhp858AeqKOj87VWBHp/M/9alPney2225NVuWo3dVKwCng6le/euscEKRD+cYMB736pw3go0qO5JwyGTsTKFd1OuRMEVql03H3yt3bqp2OBkK2tTsdOoY14iwSQT4o46h0yNl4huwrX8UjXQT185piVg/An+uqdtcmHSvcc5PJdH599JBceI7AfGFG5mnx8F7BrJKAiCw5gL3hJje5yTzplKsaFfDA/Y1vfOPs1xZUHBinY0+rbiQonyVADbS1Ox1y/DG0wUs2EVVMoKcDyJm+Hq/dFFPFj1UFmKDhoOyqHCodM6MZb40HNqHldfZ3m159xhlntL/dCYZVBWM6gJwZHiRIDTzWqEwAyOb7Aa8HMG/tD2nIJEI6NQJv6mlqGEDPFkE5+XedgJwZI1wa6Zo5xuT8pOOsplnOAmWzeioOPX7IuaTgMaHKCJzJwDxDLOTHoTKrXMgqECqd5OyRXFvwuzq90jiAW/jsxRyQ8eMxGJ3ag/xddTqwbKcDDCPx9ILPevJUgaEOjthxY6avNpfzPxf9vN/6pje9ab5mjGLKOMSYOOvEnZT/KeOQPtMJrpMNp2CmjEXE6+j5OxfMoX/wgx88K7IFvcorXSZnlU8u/HuNygYYf/uXf/mX9reAz4wDL8fw7JXruwh8UZ56xEfYzE6HDB0yt5E/P/oA2TAMxRCLjgRjkD/uIOPpUjFl/LKY3vnOd7ZTPnMKKeOQj1V0Xi87FisPAPFTzuffuXDgpFcBG/Kqcpez+DQyTwCgfjZIMYmSD8YJsa4I1cMC3cu+HA08AQLlswYClT9k6JC5jfxlnS7mnGs+jnjcmfIqKJMJGB7hd9yQoeNIx++s03ldvZh4TsxNCWUc8uE65D0dQO66yE9o06KywWGhqiBDRYpOp9vrrFHZlDSWlfChBvcHkHHKYiazpjQB+fNOArIEAHxVDYQv9Jk/dMjcRv6yTid//jQAGTqQcVBd7k8xuQ3oxcQ1N9eG/uxa/uFTwXXOKUJHcs/5ukkC4PxU7nKu67hRoJ4qoWogEsW7HBq4RpZxUF0sPsO1ioAvymcNrgbyeCnfayD0yKM/2SBzG+kyDvLnOzoydMD5RQ5el2LK+PWuo9koz2mQx3dcM0ZgX8F1Xq+D+rOY5lPfWTaMazw5WrWCDMwD49qRU2FWOVtsIAY173a3u7XltMAYBzqpxgXxhcwbAWx2p2uJG2RuI38xJgE5etfJH8hylHEAG42JLXLgIQFnGd4a5IX9sRtMfDOlC8hHVT5e4wnil3Y8d+SJ4sKWoGK5SIJrB54L/uM//mN7hBXtQZYAQNBcx2QcQKyDdyTe857j22m28gfinVQEPnoNhB65+2tJG2RuI38ZB/Fb9UjHlvGjHpDxGzvSZZdVqmcZMN7rY6XEEYEOmXc85ajxm8nmcCcCcuk4IvEyC6tGsZfwP78lY4/gCcIqnQ7gC2QcFIx0vJjDoDS+kGX+1Ek2o9PJBpnboKtikr8/hNOr1wNUlwMZdYmjEB+jUsZtPX5B/sRv4Z0LB04yRzy7466KIxuPYDgCMjbExkUrHQJkjaAEeNJAtkZdxoH6eRsMYOuNABTTZnU6dMgyG/nLOMhfhPyBjXS6LH+9mNjcBohfliNssnjFgTIO+Xed+FGP/M3fuXB4YBHsWcg8EEAFGeFeAqRjzboKkQMXw7yCiA31uD/4gSyhvQZCn/lDl8VEeXRVTOhdJw7A+WGjutyfbJwD6MXE5nfQoOIgfpTP/KHPIP+ulz98RQ7tWa1XLmCUVSSb6Ihyyxzq3UZB8pCZ57MRyDMOHFU50ro/IH9VQit+6D05kZ/boMtiAvLnHIDqyfiBjB86ccjqqmxAxQE/ma7yhxxk14jipDojqpyXd7XAHaFDxjgbp1cBWa9R2byBsFEw6Pimg4ZGehwAqycxR0yndAEOIGvUjXQ6dMiWjQmIQ+bvC1/4QhsqUtwR4uf+FL/LAX6cG0COXdaxqhwBZrgw/OV5lT/qYip8HH4RL/EU8M+EX55LZzlaeTgFuXe8VY90wJPz4Q9/eP6Z0B4HZM985jPb47cIOKD3hFJ+1U4HWnIGmdvIXxUTWzwqUJ4JGKwzw4PzP3QwdY13ljXbRTEpXiZuMMmAZ7GKnxgd9A/6VHzlFcxzPvu9AHdUVcDvjXQ6Gg7b2Em01ghl0VUcAKfaCHWSzeh0skHmNuiqmOTPOTDHkcmsWafDhzZHJQeVHPRsltGx5AZHKXYW4lFM0vOkQ1/WBOgdlOURX5x7CdTurT0QRGN3pApdzu9eo2YNJBvgNjwor+Acsrlnm9Xp0CHLbOQv2gDkmT/AWSSumODAji3C441Al8lBpav8Ic903OTd7373a8NiHhNHc3YkOlbFAznvuzCBQ4jtjr92VyuhoyLMb+xwwhaBnK06KoBMp5eFvK6MgzreH8LdqzpdpuM9FKZ4ZfCyguQxXgFdJgeVrucPIHcdNhzxWPEgvksDiJcJBpxG6YTKIxt/c53ILGQmm6pu9a+YozaO54kGKpARxpEqiqBxsgbCR6w8Ah02GSoO1CsOmT90lMn4oUee8ctiEr+sY4l3xoGteq9CfigTUckBukwOKt2YvwxRTufjO2b8D2LO6Xyshc3Hclhr+klPelL7Lh0PAVhZSlC7e17bcIoLe4QB5d2GRsgaCB9qoKpRMyzDYbM6HbosD8jlL9oA5D1//F8Bnet78aKr/FW6MX9gGQ5co/LYi6lq6GPOeYjABFwejTLT5a//+q8Xbjpjp5NvgP9Btnynk85tSDRbNlCJHGQdEmLI8Bdv4XscAK9fej3yh6+M3yzYlJ84RFAenfMGvU4Xk+2gLGUc8lHpMjnYqD/gup4Nlwt0LD/tUlZt6FAeqnZfn50BFeFMTuOogSJUAch02NA4aiAtotNLgHR+I6K6oj+BetAjzxKAzG3EL+t0yEGWUHTIPF5k7keQHHsHukwOKt2YP+C6MRs2Trf3uc992qoRgLLKuewFtXuVV+TrOl5VeSbHyVgDZZVnDc5zX6HiIMS5/PLXgrG64IAeebRHhs45AOS9hI75804nUIYtQj5cDtBlclDpxvyBVTkA6bh+O/DAA9t0NGTE6vmLnU72gPIx581KhTNQMCMlR9npVf6yo4Ia1QlrGa2sLvmQTstn9fzBDT1y5xcTEEF5dNmORD2ZP3EA7k+gjMNjclRy0LNxHfVUdfU4VDpOuywPwuNNlRF67e453+a8885rnlmCnjGnCApmpFjjl0HcrBG0+Z6fVS6gY4A1ziYW5J8yAnsdc72Q4cv9VZ1ujAM6twHyV8UEXAdYHzr70IvHxFtiLLvBG2d6AuP8gPg55Cfyhg/T13jtE6iM4BwixnTIWTGAVbj4ZD2IO1/kQdk053S8QTEdnCysf1uti8v2/e9/v9lE8Btf8hch3UBuJtkCZGzDUWx68YtffKEeOGQ89t133+mPf/zj0t+qHNCxlIfbAPlzjMWE/qSTTlrHPYtnxx13nJ588slzOwfyrB5Q2YBjjz12XV1sVV6X0cXfe+yxR1v/Gg6r5nzohOv3cPXqCn4oBUMl7X/X4WeoeH2PH4ANGzrm2PEMUJCPjAenWt5Sz/xR3mNCpnrcRvyymJBjV9mAKibg/vx3BD7Rexn583qA+LmN4hXHCJWljMAQCGvnCVEnYOdyTrucJfk/a3dxy3I0X8JCyCoQVNZtFCCVR6hyKs4qRy/CbPrCo/xnPNAxcMkL6BHyRz2Rnzggcw7o4J51OmyAX8NGfx4vcjbnAPQ7i0nIOLB5PQA5gF+E+HmswP0L3Njx8RQWU8rKIKt4M+OGcTytQiHAAbss52zr2FUVZJXzu9rz0VWVI2+VWwNpJgM6rwuIAzMjWNhQya/8IesloNfp5C8i+ss6HXrkbif/6B1et4A/towfvFVXROTniBycB78ZzmI1fb4iecELbvGLnZcX5JO7XRYCYrCZsvBD53lQTMgXNQW88ji1neCz5EjXq9xtWGWognNgFgXz//GF3P0hQ4fMOSg5VaNm/GQDVolJiNwFymZy+atGDLDJOl3V4PJRcRAYWWCe4/Wut/Zpqoofctcxzsdpl/+pfyxH7VntcAE4U69HVjmLK/J15mpjr+HLPXyVm+lOslflVYPzVj0vfzu8LGDmhGYse4NTH/W0AC0B6Kgr44AN2KzTqzqq5w9QNpPLn9cDkIPe6dXjdU4RmY7RCtrtZje72TpfERl3TrvMk2RSb4T4xZy3JSyqCqrkMIDI+rjZxjM9PiHPx5E5/PKc7z/+4z+aH7aq0wFeVeTrjhHikPHgAyAg+qMcQSLzuKSrOh36ygZknQ498syugmJy4K/iR45UV4T4ZfEC9Noi5N/l+OLtQD6EzAEk1odNxV06nXb1hKOKaeC6fi8BvQoquI51i0888cQ27sbfWUJ1tEXHdsMb3nD+oHmMAzMj4rQjylaNgFw7mXNAniUHf9op0EUooZU/bFfJK0C+WafXHuTfefBb+ePIx5K1/rVGtwHuj9dcWWuR2cpVjgbZaskBy1QuIOe8TydxKGkxoXwgmDn9TjQDXwZimrYW5lbSPCbpvGMB5Oir05fzA8jZsoSqoyJ3Hb89PxFeD6AesMrpFXlVjzhleo+Jaz6+0MlgMdf1mU3lj5s/tizn5Ghdr6uSg7ynQ+66WCGre8aXgdVAnuwdd9yxfT+r8uccWDaXUzxJQ7eRTuccZANcF228LsUUG09w3ssAfz1+Wbzi5/UDyZwHOzBzB3kixYdseIqkjdW7nve857UzkaPyB1gVAl/OQ3mds6ZHs1dlTqoKkLtjwW1Yn0PTaqpOR1kSyam5gnNgIJnvg9Gps0Zoe1fSEZCjh0PU4b/iR3m2yh9wf4DfzlvwskIvR+iwqzqdy4HqyXjwSQdyzqLg2cbCl9w4RFT+kLNxCaVv1QnwFr/GkB+szeYLOEdkhIWscgdTmTgyxWu6CHwo2Tyz5Ms/EfjMOCDnaMpz0QjKZh0LqIE2+/TqDS6+GW9QxUQ9IMuROHhdPX76ndWFjp2WIxtHvbix8Ln+Zs0UoeevQux02M/fueCNIN7Oj6AAW0UYuesiqajjY728RMKKUFWniwll+SxmuI5xEFhTWDcalCWuXqerGhVknQ595CfETpfVVaGKSQ1U8cPOOcSYnIN+Z3VVHJD3dKDnz3Uxr7JvHQ/BxS52sfY5TqGqALl0jsoGoOPdWfasCMp6pwN8qGO//fZLAwFeF3slY4f4J6asI8RGjTpkMTkRalTnB9TpMn+yyUBZ9I7oL4Ky6LBzn5GfxwvExVFxECob4DrkWd2gyvnCdy4YQ2NQlheruaNhER4e3sdNi/NEHahIAem44IynRMpCLGtUeN397ndvi0078Iet16VpQFxbxCCBGihr1F6nY8OX+1MnyTqXku02QNwzoKv4ZTkSP+ReV1UHGONQ6ZBvROe8KTdfSQDImOEJRp83+kmpCCVE1XAk41qP02jV6UimePgnpdxfBLqLzD6eF5fglz9vIGToQNbp0FPe+cVO5/5iTHF1BEDZjDc7LwO28e0sIH4Zh7GYkL/5zW9ed6NWcZCPjegyOWDOJNPlU36z33MB/9N4TMokEWx77bVXmznC/5LFzW8EhIwwHZpJp4DG7iWUEfTDDz98plkuOVxDPuUpT2mv23Ejo6MPdWUJAFWng4PzU6fL/FU7EqBsj7dD/tC7v8jP7RUTcvIXUXEQevxch9zrFqI8/o0P+CGbR1Q1AoWVAK8IG3RMp9l+++1n0jWobBYMj9O4hc/8UT4mlOVsmRDA4zR0mT/KRh03Mow9Pec5z2mnXW84ylXxImfDp/NTp8s61mZ3Ojhk/sQPudv7iAHzG1mEB1QcQE+HfBVdL6aYv4WFGbNO10sAeuQ8bYhL/qtyJwXQMZHzjW98wzxRIPqL5JHxKSo+LOyrGIEqaXQ+jnzcHfvLQdQFsk4nDh5vTJrzI47MRvVk/KociR/6zB96eDsH+CGLMbGsL2tKM+Wp4sDW02Xo2QDX8RvuxCN+84UZs06nYKoEIEfPcz0WctkufLyuIoaca7fjjnvL/AN57k9AJn5MNrzOda7T/hZi2QjkbHQ+PtTC2/AaaqnijRw83rhjOj90mQ1An0E+XK940bu/KkegikmfY3jiE5/YRi0c+Ks49nQZVo2pvexTdbosoThh80bgRoRHXdnXFgFlnRTPWVnrTnV5Qr3j8ylTRtJZZyXzB+TDdTz/5Y6XN9/ZQSIUUxavOl3Gb+xIx0eG480FyPjp5oLr6BivUOUcwAHZWBtyluGLijzGyvK2LLh04bOsEVlMgJsL2jfjR+EFDAF2X2JBRxkH8gc96EELL4Noq14gGe54mq3763F429veNh1OIet8sVX1xO2ggw6afuhDH5qec845zZ9iyupCnsXLb14OqnKEjjLUE+uu+PGyz3AHvK4eIH4ZB/Fz9Pihy+qp5CDqeMkqcu/lnBfIqhwt7FqDrO1Z1V6HHrnvdYOjNouBeXgOymLH5mD5WRD99TigYxIqU240fijIR1YPOul5vDZ0vjbcwqwZuOuoEIEceLz4r2zgzZYdmXr8BLfp5RwdqI50yLOYZBeBjepyIFcuwNDRZ38tF1OWoxbT7Pe8cpxVCc0SgB2zgR/xiEe0pwcRlM1IIWeL3+MSKg74UQI4fHPtonE6carqAlHHxAI+/MJNC52QB+Bcd1I3UD1ZvOiQZ/ywh5PbVPyQe1mhl3M1fu/06jaKzXcK8UZWxbTqjuRlhRhTq6lXOXL0WeUEyUTP7PPtVeWS00Dx+oc68FdxQCcO/M/AMp1dS1/0ElDpeDj+1re+tU354dqR5baYZsVg+Nlnn93qjag6XeRXIeNQoZdzdMpBBOXZMn6q2+UAHf4yG+rKOAjyG1GVxVf0t82QsME+r1wJQO4O2euYm8+HVBiTi6BsRgpIx4U0bzUx/47fSmiWgNjpIuDw2te+tj1j5igWobIZjx4/7v64EeFOnRk7DKTzN4tB0smHa5d2t8jfHLE9oRF8t+N2t7vd7NciIr/45KLKOTJuENghHOhk40AufhGyAbJjwJkZSr2YyDOrgWaIMQF92SeNiYvTWedbADJdJDuQnXrqqdOrXvWq6y4oqwvNeBG60047TU8//fSZt7WL+IwD9VQcsEEHuOEYOkdaV9wk7+lc3tuGo2672K4wnA3W2WQcdHNR5Zw67n//+6/Mb9Vt2JGmBx988PTMM8+c1bwIeLGKRGbrMbHp5iKLKV2YcSjUemjW4wdH7bacVcyzI10P+GQk/bjjjmsrSvIbfxkH6TIO8AO6xuMrjieccEKb5KDlzrCPiD4qnctBLyZeNmKSpM+4gR+bH2UisrqQxXj5zbuqXItyZF+VX6VDnukYKuHal5XfmbgboZiU84jI1+ExAWRDe+edbuGwOAO64UjXniJolXaBsth55cil471Zvn3ACyT8xh+6VTodcvRuw3sBnLr56rQ6nyAf2LFFiJvLgXQZ5JOdkOtNoeJH+V5dwHPOApS8cOOvCwoVv1iXQ/5dJxvwla98pb2mqHWpq5hA5U/wmADtvuAJQRMmhbmeYhYqichuJMaC5NqBI4TeWqo6HfKxTpftQei4Nnva0542ede73jXT9BPj/iPQZTbAdW9605taTuAufhFj9QhejqU63vGOd8x+LaLHD/TireyinCPeJz7xiYVO5/wqf7Gc2+APzFs9Ji0rjIy7vfg6IfCyDnzysPrYY49d6vQKj4wDcuCHetlQXna8jMxRgqMf8/ko45D/SpfJQabjt9aLy05FgtuJg0PlePkm47EqP6C6eroIhpdYDwVd1h49fxkoN+90Q7u3lleny3q1ClM5Eznj9QxlsfPKkUvHHRuzRPTmmDpJ1umoq+r46KuOSnnsIrgLZWoU10ZcGsQxQ3Fjc0iXoacTjwxZXSqb+VN7ZKg4IO/pQMZBNq7jN50v6xNCz5+DmID8tUkCbFkFnF6BGvXCF77QZLvtLtz+rioQpOPpBDcTAFmr1DoQ9Y91Otch006R+WNjeIBTO89oTznllHZDBCrevZgqnThpRdMI8XN4jBHKOWVYsDGixw/0+FV2lQ0zgRjqcojfKv6Uh9iGbVpU1eDI1OnArrvuNtl992uuKxuBLlbO39wpsaAL41DeSdDTSTIOyMHY6TVCnS7uSNhzumcFS+4SuXDmZiQuje+8Iyqd5MyqZmqYgIxN9UdEmfv0nDMCoIWMKg6g0qmuns4hX7zaEFcRQKacZ6g4VAeH4Xf/9BrBpMw73OEOzYlXgo+qcuS8+8r0nPianIKpOh16JywbymedDj1ytyMm9Lw6yQ0IR+FXvOLlk8c85jFtoaCMN+jFhJzOS4eOwzjUA5yDYqRM5TPGxOTagw8+uA1qV+V7/IDrok2mk+yIIx41ucIVrtD+RqaYPOfRXwXvY5RdtzCjn16FVnhwwPsV8TvzEVnl8s/1witf+cr5VHYCoTM4KaBOAgcnXO1BlGer/AHFxP+cRm59633b+xm8m8CFPHfDHJk5ymw3mzpVJRT5zjvv3Kbx6y178aN+56DflT/gMWHDOKHWMXbgq8cv043Z8P2xY445ZnLggQfNZVXOhcofqNpw4WUfbyBBhalYlfOojHGzsblxmZyOe+SRR7ajRSQF6DzYZBzQAdfFTufJiUnLEpDZ4IsX0Fl0hpsphkr4zQDrueee2+pndi93zzxOA+JHHfKnl31Ub5YLdJzW/GUf58e1Mm/Rfetb32oHB8+bgN1GdIARAI7+ugRRTEA5Z96lvleLryom5HpkJiBTTPxoGIJZaW7X0BDTww47bLrDDjssPCbRlj1C0cajmeHI2XxEUAccqDOC38idA6hsgGLK/GUxAWTZIx6ALpMjy/hpPl6VB+VIj8yEMX6ZHJuKX2UDKpsqprPOOmvO3eORXDoemQnur+2ag6D1yGWOdALXHUcffXSbVu7QXoW9Ax1HDk5RvA8hUM9ArnGIe6U4AOcAKOs2QDaVvywm6mfjZiTzh63L5Q+5+xOHKg/AdfIH78wfepcjgzdwforJ5QB/sosQhywmwXmDsZiiv7YwI4JVOh1k0Q89u43RcQEcX6VD55UD6pGcU5a+Cs5pDGQclLSoQ84sieOPP759MfCd73xnG9j+2c9+1vTwBlkD9WJicw5A/ip+mb8exhoIXyojUA/wesSB8pmODd6VP9eN+dNBqgJlIuQPX9Ff+ytL6FinQy7CHLl4cdefkUZQ1kkBBng5cnK3myUAOD+eFzOBkzeomAvIUhfcbfNxXnTOD4zFxJY1kDqd24gf5St/7gtIluUCm4wfHLKYAPKMA/KeDch04u05V0xeD6A8m/xGyJ/bLdxcAH6u0ukE5onxsPxlL3vZTLIFKuvEJGewkg7Ews9AHNB7AnhZhVcpdZSMoDwX6pz+6YTxwn+s02WPutTpNrpjMoHAVxIAnodqJQGgPLBxROfNua0F4qxu+NjQMxarmwtQxQSylQQAvjCYYxB0L2q5OKRMBL/jReOhhx46HRK5cLGpv+MWL0K1MedsuHtr/tgi8P+Zz3xmuv322y/YaHN/Q3KmQ+DTr371q9PhzruMqbqRyDgAjzfC/cWXfbJ4tfnNhYC/4Xp4+vnPf3760Ic+dLrzzjun9pu10W6035e+9KUZg/Ux6eaCrRcTW7y5EPCDv/nuOsiW2otj70WGDplsGCbhiMOb/8gp46j2EvZ6XuThOxZ+lGG9lf33339+FIrI/DFta7jrbp8oZ+yQWR4MBaiMuFNPjAmoDs+DbGK8gnKU+aviBV5WgAPlWcz8Lne5y+SlL31pe1YOsKnsevIxG46mL3rRi1qe9c2KzYyJHBEX/lr2MN6MTge42+Wa7173uleXVKaDA2ODXPNFMNOElcSzhYHwh6+qLlacZ+CaGyDG3XgxnPdE1LljTECdznX4R4ds2RxFVPwyuTgw6M7lR5yGJhu3Q175E6eeLoIpUeSLccwqpowDqDiQIzbldb6EBRWsktCs0wHKc4dLwpiWNBxyZ5rlEkCyeQTF81QGTXkFkfcetLdHOKcIdKqH/7k+4jNUDONwI8KzVe6q4zsMxARITgT26KocSed81IGqeDO5OOCPpTe4cxd68YKqHrCKDjlvDHLU8zqHy4zZX+tB2aweZMQVd+b5dy6yhGLgCUXW2/OjP45c97vf/Vrnk4+MWKbjyIctd6wZxvxlciA77qJ5S+2pT31q65TwxqbqdNhVOfKjI0DuMqHi5zmPr4vKV2ZX+RuzAZkOMNYaZz5TDn6eA0H+HOoTnqPBz/k/vQLpYgWcdnkIz3uw6NkcKus6yPIWm38sD2DT85fJgeuYWs4yGryMTjxZp+vtZOg9R0Cd2G1Ajx+I/lRONm6HvPLnPiLGdKpruAmYSdfiBb2YMn/eJ4TBz/IJRYfMbShfVcAETB5yc9rlhiNCZZ0wcm2OTCagy4IHlY5nzTx39lOIYiLWLEfSOR/5cRvQ4wfcH0NDmZ+IzJ98rKJDHvkxxKXZKexIYCMxVU+BFjyRTJx4ApD19vzmyGyAGogOyUIvzAQebr+bTmV7pF3Xs0FX+ap0yNk47a7yhSD0vpMhU478yAmQV/wyUHaXXXZp8wYzu8qfOK2qA1HOdTqvKpyfTpdh7q/9O0AJzTpd1QjSZUc6KkAnG2bTctplQBFg66TxoWAyXSYXKrnsHOIrndZx4bc6UNXpPEcAHVil0yF3P4Cy+GMn5SaLI58gm8ofWEVX+eNRqGZVZ+2b2QheVlCnw1/L7FhCkWWdDkcZKfnzwyzXfEzC5KahegUxQ0/HKDpDJPzP1x8jT+yy5Mif6/gNd3x4vMilcz46vXqnk/+Mg1BxoA788ViQpTXoBEwMJW+cBvnfN+Sr6qIc/9TDpF3GDuGyakxVzukr0d98CQtPKDIlwBsB3VinywjLHwOVRx11VBtfY81iID+Ui6jkgPljvDLJMhHcmfKIijE6hgH8SzRC5Y8bGZbUBVmno3yVI+DxAla4v/3tbz/7tQj8iIMembHGdJVzJkV89KMfbS/Rq87NBtd0nF7pfFW88GBpjwwxJqD5ePFINwePf4ZAhvJbwG/ks065AHS9x0yZTv7YBJZl4PFMfMTiW+9xDMtnnHbaaes4Dh15esYZZ0yPOeaY6Q1ucIMFm94jHpabyID/LEfAYxIoy3bSSSetqyfjoEdm+MpyLg4ZKhvlPOM95i/TyR/LW0Tu2rK88sis8jd06q17epUNiD2e6xaOViw3xqHe4f4jePeDyQhMFogc4YAvLsp50sFpnaMJkD/4ZMiOWPhjy3I0JLP973aKl/+rGCoO1JPlXBwcVT3iAFwXY3Jk7QTkL8sDQFbFBDJ/C+9cqAJkWQLQ4SQLBr3P8ECGjvJeOXL8PfnJT26dL64aL//YO+h0dFifyaGEej2g589jERSTx4tMOcoSqgbKGhabjIPgXCirmFyHHGT80GX8kGf+xBtU7b6ZnQ4O81oi4VU6HXL0mQ3+QJYA2QyH6MkRRxzRBpkFdGwOrj1e//rXt+umWB/+2DJ+gvujXFVWvLNk4wdZllDlyHOhurKYKg6UhUfFgW1VfmxZjqJN1CFXXj0mQFnKONy/IH/o5/PxSBoCrwB11elwwpYd6eTPEyAb6vG6mEPH81NsHdxIcDPCunoRFQegVa2YEOBQLLPw2+uOnLp5VIQs88fpVTEN1zBto5zi9Zjiyz6qJ0IcGGTn0kFLfPRiop5l+DnQZTmv5IrJ2535eNe+9rVHY0IXX/aRP9W1zRAgF47NIKscXSsYKgfI0XuQsgFZp0Of1YWOJDC5gKnszJDgkRavIe6+++6TQw45pM0uiXbYsHlyAHKtHuAdj7LwOD9gR6BTMYFVDeEx8VYYn2GosBk8fh+oeKsNpFPH4zftEXPUPjeQJa3XqDoiYRN1qgBUnc5tgPxhw/NBhgxYMIaZKqwyxc2CbhKEZfgxDT52POcaIZ3LQU/Hp1bZUXyIgbKsCJoNp1T+Nspha/jL5KDSZf40A5l2Qh/7WLkwY69Rce46ZLEDRcgf5TN/QDbclfLO6j777NPWJeaRUdXpON2M+ROca4T7iJCuSjY7CAPYETFHjp6/CmMcQOVvVRt0la9K1/NHLtB7Hxt+LwowZvOOBWhs4AmlvDqW69RJqMfrUifJOOh6xXXylzVq1ekExRYRk9bTOdBJzrUk3+8H4iBbR1YPkD/XjXEAPX8VVrWpdD0OIGv31h9mfzcgIHEUlEMBOc5dhww7ZFmnQ4/cK4+dzv2Jg9vgjw1/GT/gNsDLCpJnSRvTuZyXkOAGPCbAb5cByTfCASzLD4zVlclBzwa4TnKQtSHl59KxRqWw65BVDS5/WSPIpqoLm8rf2OnVdUIvOQ7p3Aagy+RwAxmHnr8KYxzAKvyW8ZdhI/4E90s7qU+01sWYLUtaTGgE5dFR3nXIVUFWOfCOhb/q1l7+vB4QO10E/nhVj2tG/o6ISevpHOgyOWBg23lz5wuyeoD8uW6MA8hsKn5j/pD3dI7KH3LpuCnkWl2g/YD6WFuYUUcZGQnIce46ZNghyzodeuTeELHTuT9xcBv8sYlwRPQXIX6sW7fHHnvMpGuQD8o4xnSZHPBwn7vbCMpSPyu2O/DlsQgb5QdWtUFX+ap0YxwAOu7yGWYC6hOx3bfhoX7VqBT2gUpk6CifdbqxTuI2YOxIVw2kAvcnfvLH6kosygh6SRvTZXLAVC9mjfhwijjwuS1esYwvoFf+Nptfj/dGdGMcgHTM9mHlKbUTuVAZsG3WSWhskDUqOsq7Tp3EKwCx8gj8VZ1OdWUddYxf9Mcadny+k6MSg9GZP4AtWwaXsyOwjtwtb3nLNp0pfumGssRLDtj49gbvdTD4zemH+nv1bFSXoZKDjeiQ93Q80mStQHU6tRNtEfsEZdctYUFhRFWj4sA7iWy8AlD1eMrrqJD5Y4ND5W9VfprezstD8SWWjYB3R5i7xuqiWksO9DjwMvnnPve59gmB81v/HyKImWs6Tq8sHUIesj4xz9Hwx7zj0aj89AZHpr3YGxwnbKt0ErA1T68RPX69oy3+Mht8KUcRyNBRfhUOigmbqBuLCb3bgF6OsMtsxG+zcl7FBOY5n/1uFQNPTkyoVy7CWQWx8gj8be3Tq4AcvccE4Ics46CEZjboK96Vv4qDYvK6ev6Qs1X8QI+f20iX5Vz+Vs05cH7Y0O6KqR3xKIyiqkCFI2TjFYCYAK9cjZr5Y6s6Cdhsfpm/il8vph6H30VMsgGZrorpd80v2rSVBBC6ExEGFWGvAETCXvlYAjjU9/xFyF8MRujxY68DlT/k7q8XE/X0OLgNwB+2brPRmJCDih82G+GHLqLHL8aU+XOb9pc3uAgj88pFuKoAOCkRRp7plAAHcpAlQBzcn/hlCdWhvkoovtxGHCrelM90bBkH+XNdzx9ytsxfL+c9fmP+/HpPNvjK+KFH7jHF02vEurtaVQC8gaoKQEyAV151Ovyx9RLgHMQvC2YZfllMbBm/jca0kRytGpNsQKbr8WPb2jkfs1mQiDDoNVCPsFc+loDq9IptlgB0VTDoM3690yt2yN1fLybloYop46CYXDcWU+UPOdgIP7cBG8l5FROobOb8Zr/nAgp75SJcVQCyCtAhd538eT0AOVj1UC+d89vM0ytAR3nX4Y9trFGjThwyf4qp8gcyDpU/dPjrXUdvxukVVKdXyjOGeeSRR0/+H1aelm/4SaNQAAAAAElFTkSuQmCC;" vertex="1" parent="1">
          <mxGeometry x="440" y="220" width="67.86" height="70" as="geometry" />
        </mxCell>
        <mxCell id="ehCbc-gGsFOHaVZKTLyM-10" value="Preprocessed Dataset" style="text;html=1;align=center;verticalAlign=middle;whiteSpace=wrap;rounded=0;" vertex="1" parent="1">
          <mxGeometry x="450" y="290" width="60" height="30" as="geometry" />
        </mxCell>
        <mxCell id="ehCbc-gGsFOHaVZKTLyM-11" value="" style="endArrow=classic;html=1;rounded=0;exitX=1;exitY=0.5;exitDx=0;exitDy=0;entryX=0;entryY=0.5;entryDx=0;entryDy=0;" edge="1" parent="1" source="ehCbc-gGsFOHaVZKTLyM-1" target="ehCbc-gGsFOHaVZKTLyM-5">
          <mxGeometry width="50" height="50" relative="1" as="geometry">
            <mxPoint x="450" y="270" as="sourcePoint" />
            <mxPoint x="500" y="220" as="targetPoint" />
          </mxGeometry>
        </mxCell>
        <mxCell id="ehCbc-gGsFOHaVZKTLyM-12" value="" style="endArrow=classic;html=1;rounded=0;exitX=1;exitY=0.5;exitDx=0;exitDy=0;entryX=0;entryY=0.5;entryDx=0;entryDy=0;" edge="1" parent="1" source="ehCbc-gGsFOHaVZKTLyM-5" target="ehCbc-gGsFOHaVZKTLyM-9">
          <mxGeometry width="50" height="50" relative="1" as="geometry">
            <mxPoint x="450" y="270" as="sourcePoint" />
            <mxPoint x="500" y="220" as="targetPoint" />
          </mxGeometry>
        </mxCell>
        <mxCell id="ehCbc-gGsFOHaVZKTLyM-13" value="preprocessing" style="text;html=1;align=center;verticalAlign=middle;resizable=0;points=[];autosize=1;strokeColor=none;fillColor=none;" vertex="1" parent="1">
          <mxGeometry x="325" y="250" width="100" height="30" as="geometry" />
        </mxCell>
        <mxCell id="ehCbc-gGsFOHaVZKTLyM-14" value="" style="endArrow=classic;html=1;rounded=0;exitX=1;exitY=0.5;exitDx=0;exitDy=0;" edge="1" parent="1" source="ehCbc-gGsFOHaVZKTLyM-9">
          <mxGeometry width="50" height="50" relative="1" as="geometry">
            <mxPoint x="450" y="270" as="sourcePoint" />
            <mxPoint x="570" y="255" as="targetPoint" />
          </mxGeometry>
        </mxCell>
        <mxCell id="ehCbc-gGsFOHaVZKTLyM-15" value="" style="shape=image;verticalLabelPosition=bottom;labelBackgroundColor=default;verticalAlign=top;aspect=fixed;imageAspect=0;image=data:image/png,iVBORw0KGgoAAAANSUhEUgAAAIsAAAB9CAYAAACS0pD7AAAAAXNSR0IArs4c6QAAAARnQU1BAACxjwv8YQUAAAAJcEhZcwAADsMAAA7DAcdvqGQAADfaSURBVHhe7Z0JmF1FsfjrbnNnyUwWEhKyQTYgIUKAIEsIsgtC2MGnCIo+BfT7Izso7yEowgNxQeTPIgooorIpBBBZnwbZEvYQlmyQfSfrzGSW269+dW7dnLmZmQwhGcxMKl/nzjmnu7q6qrq6urr7nERQkK2wFdoAyfzvVtgKG4StyrIV2gxblWUrtBm2KstWaDNsdXCLAHY0NjYW/gaSyaQkEgn77cywVVnykMvlTEnq6upk9erV9jf3UJJ0Oi0VFRWSzWYllUp1WqXZqiwKsGDlypXyxBNPyL333itvvfWWLFy4UOrr6ySTKZE+ffrIyJEj5ZRTTpHDDz9cKisrO6fCoCydFdRyhIaGhjBt2rRwxhlnhPLy8qCWI6g1CaoKIeFJr1OpRFDrEr7+9a+H6dOnB7VAVr4zQae2LPX19bJo0SI5/fTTZcKECaKKo3eDDjVJSaZTkkjmdHwSaWxo1GEJSxJsSBo7dn+5667fmcXhurNAp1UW/JFly5bJt848U8aPf9gUQq2HVFakZddh28jonbrJtn3KZd6SWnn9nWXy5nsrZOWaGsk1okxpGTdunNx2223So0ePTjMkdVplwZG9++675ayzzlKLUq+ObEZ6dsvIz763uxy+XxfpWlph+XIhLasblsvjz9XJ+Ve/LEuXr5WQa5R0JiM333yznHbaaVJSUmJ5Ozp0TrdeoaamRu6//35p0KGI3tKre1Z+/r195MSDeqqidLVZECmVrJPu6Uq9301+qc+7dyvV3Akbwh588EFZu1aVp5P0t06pLAgXZXnppZdMUVKJpIwa3kWO2rebpBNpZUoUZ4kgJTnlEnkOHVMp++nwlEhFyvHiiy9KdXX1VmXpyIBw3377bVmzZo1dJ9VXOf6wwZLNqjfbAqidkbKSpBx95ABJJ1N2j/KTJ0/eqiwdGRDurFmz8leqCDr7GTGgSpI67LQGGbVDwwb2VAc3Ug7wzJ49e6uydGTAF6mqqsJcGORU2EtX1+lvdN0ShJCUZatXSiNRmDyAB3ydATqtsowYMUIy6YxdN9YHeeLl+VLf0LrQa+pFnn1xseTqo+GK8P/w4cO3KktHBoJv3bp1k0GDBtl1CI3yxD/myvtz10hdY1CDEyQkGs35DQn+b5C6XEKmz1spj0yYo5YlUhbKE2fxhceODp1KWQjE1dbWyvvvvy8//vGPZebMmfknIrPn18gPfzVVZsyulmq1HLmGILnGBmlsyMlatTwzZq+QK26aKbPmMfuJylD+qquuMnxMocHfkaFTBOVooivKI488IpdcconMmaMWQi0CI4gxIJRIOtUoA/pWyrlf3VGOO6iPlJWlpbq2UR55colc/4e3ZPaclYoHa5OMrI/iJdzfr18/ufbaa+Xoo4+W0tLSwpaGDgcoS0cGFvtqamrCpEmTwle/+lVbDFRB2gijQg0qXLvH39zjWSqVDFXlpaFfn/JQWZEN6XQy6EypUIYFR1K8DNdf+9rXwsSJE4MqZYdcZOywyoKw6uvrw9KlS8Mf//jHsN1229mKsgtXndPQt2/f8Ktf/SpcffXVqhBpe1ZIyXzChMTul5SUBB3Cwk033WTluXblAz/13HPPPWHZsmVBh6YOpTQdUllQklWrVoXXX389nHzyyaGsrMysQGQ1UqFr167htNNOCy+88EJYtGhROOKII+w+z1EaLE1ptkxTqVkerEYmkyk8//znP2/lXnzxxfCVr3zF8HGf59RDfdT72muvhdWrV9s2iI4AHUpZ6MXsM1mwYIFZjMrKyiZCxJroDCbccsstpkzV1dXhqaeeCl26dCkowl577RVuvvnmcM4554QvfvGL9sv13nvvXcCFMj355JM2vKEMt956q+EFvw9N/IIXC7RkyZIOsf+lwyiLK8pzzz0XDj74YOvdPnS44Ni49M4775jlUefWlGrEiBEFAZOHIQs8PPdEfu6jJD7cUG7+/PmF5+D9xje+0cT/IUHHoYceanRt6b7MFq8sMB/f4MMPPwzXXXdd2HbbbQtDCgmfYo899gh33323WRKESxn+vvHGGws+B1ZDZzNhzZo16wmUa6wIz3044hfr5QoAXvL84Q9/sPoYvpwG6OnVq5fRB51bqi+zRSsLvsCKFSvCM888E/bZZ58mAkIJ8CUYRmbMmNFkGECwixcvtiHH8+OYPvvss/asOeA+z3v37l0oQ3mGGC8Dfuph2+V3v/vd0K1btybDIPQxnD399NNh5cqVZpG2JNgilQXh0DsRyhVXXGECdNNPL8b0ozx/+tOfmrUUWAB6OQpFGQR60kknheXLl+dzNA88Jx9WhXKUv/baaw1fHFBi6r333nuNDuiBLqevT58+RjdKjGVqSUH/3WCLUhY39wwhr7zyShg5cmRhWPDei1N7wQUX2GyluVkIOCZPnmwC83JYgLfeemuDsxaeU7Z79+5WDuEz7HGvWCGdVui48MILjS7o83IoKPQT/0GxyFuM498N/m2UxZnbGtMw8ezEP/fccwvMh/EIABOPIzl+/PiCb+LguBE2Pfmyyy5rMhW++OKLrUxbhEU+8nt5rMv3v/99uw/+Yvr5mxnTI488Eg477DCzMq4w0I9TTXumTp1q1rI5cPpb4017wKca7tfG215YNe+iY7+89957tsg3bNgw6du3r6jPUdjfqlNd29nGnlmdhdi2RkCFZouCZ5xxhqgQrYwKgU5gediUvXTpUlu/UUUxvCeffLLdI1/Pnj3l8ccfl1133bVNG6+hmXNFX/jCF+xkgArPFhPZoskSgiqt7LzzzrLNNtsYXaxMq3JYOdrAssCdd95pdNFWQBXWlgzY06vDlqgCWRnohTecYYI35AM3NNNO6moLzZsMUJZPA+jhTF2vueYacxSxFCXZEotVEATDRNPjVMhBGRX+8z//M6hQCqacsZ98hx9+uMVKfOyn59FDlcEWmf3sZz9ruMGLFSCBg6ZzjyECn6OtPZZ85Kcc5cEDPsdNG6iPeql/wcIFBeeaBJ3Qi5XBqtAO2gMO2sf0m/bS7vPOO8/4QDvBC35wjx49OsKt/Is77psbPhVlwVzPnj27ibOoXSkyz5aIUURDy+677x623377JkyFaf379w8/+tGPChFSZxh/E//40pe+FNLgzuOkbIQ/in+Q8D3eeOONFs1/c0A9CIhyaj3ytK+jXw2CXSeS0fT6y1/+stEDXQ7MgpgNQT/t8CHNFW/gwIFh1KhRqiBZw8dap/3m6efvkpJMOPnkk8LcuXOb4N6c0O7KArOZVRAOR+guuKQqA9cZ7UGJtCpG/j7JGckvvWzcuHEWSqeXFveqjz76yARUUEJNyZQqmDI+W5oNaRWiCVTv46/QS2fNmmVWqS1APhQda+gzHNaQUikVYDajbUhHis19rQc6Tj31VJvixwG6oZ92HHPMMU18GVeKCLf+nVY82WTIqILAG+pLSMosG3wEdzEfNge0u7LQC/785z8XYiIwtrfOTE4881vhVw88FG56+LFwxkWXhn6DB5sCGcPy+XS8Dj/5yU9MIZrrTTDsoYceClVVVaYQ4N+2T+9w3De+Hm6878Fwy/jHwzcvvjQMGDooEqg+R0FvuOGG9aa/LQH5yI+gjP50IvQbMiR8/ZJLw+3j/xZuuv+v4cQzvqWzpL5BVIHIQ7znr3/9a7NxFZSPRUfateOOOxbiMqbMWn6Hft3CxWfsEh696aDw0C/GhrNP3jH06cXwFeFGyeDnx7GOGwvtqizem1jEs17J+eGqruHqO+4MLy5dHSatqtfUEF5aXh1ueujhUNq1MupFiaSZ/DfffLNZawJwD4YR0ofhCCpTlglX3nRbE9wvrKwJ//+h8aGyW4SbrQf77rtvm3sn+QisIShStx5dw82qJC+tWBte0TpIzy/5KPzgpltDaVmkUNADXa3RzjPaRzsj3BIqKrPhoZsODmtePD7UTIzSsheODb+9+uDQrZItElEngp8fx+/aWGjXnXJan80KdLy3WURKPfl+Q4bKAUeMk5LS8uh1FpoymazsNfYgOXTccdHMRqlUZtrMh6TMzGNcB4574sSJ9svpnz79dpCDjj9ecZcZbo5wlKazsucBB8rYzx+luqr2Xf9xnIPZGDhaA56Tb8qUKXadUNr2O+zzsseY/Y0uaE9SR2kXOfS446R3/4FGP/RMmjTJfpsD2qMWznCowts1Jw2OO3AHOXCvctGRTelPWspm03LMmEoZPEBnQsoG+Ag/mfltiP5PCp+KsugwYtcoy+ARO0u2qocO0Q4M13qVKZf9Dz9SBcoZnWinG1PmDQHCNEglZLf99pfSiooIn0JOrTsbH1OpMhl72JEqyAyDv9H04YcfWp7WAPo5QkJ+/kYRxhx5lCRUuZMuKMUHzZnKStl9331NoYDFixdbmZYEyn2d3Vg7I9wJOXRsLylJZKQ+vY47HMPPdM3KyEGcsY7uM732cpsT2lVZ6DH0cB3v7Zp9z8sWL9DfWrtWnTCx5vS/kKuXhR9OVQbovTwTKlTwrQH4HTfnOubOmKaakGe04VFBalJPQebNnaa3GvQiek6sZEMAfp1B2S8J4cxTJePss0FEplapwm5MydwPPigIkJgIZVoCnnn7Itwic+ZUazMa1ymiApYwXd8o85fVWB4Aq4TitoZ/U8CnoixDhgyxv3PaQz+YPEVmvP2GBahoOwyoD/WyfOFcuef2W6RRlSapPZUgFMG6lhjCfdJOO+1kjONtB+++9oa8P/nVQvAL/PWilm3hHLn/rt+bhQAbAbQddtihRdxx0Gl8QbGg/6Hf/kZWqEVozB86gv5cfZ1MnTxR3n7jdevx0ON0tVbH0KFDC+eQGrXcHfe+J3OXpqRB24LS8U+rlLdmrJIpM1daneQdPHiw8XVzQ7sqC0CjDjzwQItG6mRVli1aLD+96GJ5Y+JzUr16uaxZs0oWTJsq1198viydv8iYrw6uHHvssRvsneA86qijrKepUZa1NWvk59+7RCa/9JzUrlouNatXydxp78r1l14iS+fMMwHgG1CmJV8oDjwnH9FbBE/5xQvmyk+0jrlT31X6V0i11vPmy/+U675/idSuqTbtgW7KQF9LdXCffMeprxPhFpml1uPi61+XqXNysqq2XlauaZB/TV4lF//kDVm4bLXVT1sPOuigVnFvMtAK2xW0N1uEkkCbMoXuaB59mc58dhk9Oozad79QVqVTQ+IJkTGwWAX7XpmJUL41ePfdd22KrYwr4C6trAgj9tgj7D5mbKjQaSzTXcfN1Pn3v/99m9aGeE6+3/3ud1H0lliIplSqJHSp2iaMVvy77DE6lFdWRvTnZ0zDhw+3NreGn3bRPtoJTdCmPVnHnESo7FIS9t69T9hzZM9QVa7PtD6e0Ta1iBbt3RBfNgW0u7IAxBv+8Y9/2B4SF5oz3hLehf1GCYYTO2FZnxXa1oDtkieccEJBEdfD7fhjuBEmq7/NxUHiwHOCaCij49e+bFPwCDd052nXezwD/4knnmh0tQQoEc9pXxQjytMHXqXV6ojRn5BoczkbxuEjEeX2gHZXFhhD4whS+TZFmOPJmKQJYRD2JnjneVg7+elPf9rsvhPwIkz2kMBwx0PvA1ccN1ahZ8+eUTwmn4fwOiH8lhSGnssGcPLFy7EDzqxMHjf1UB/P/B5bIDxw1px1waJcf/31TbY+0O4BAwc0wcMzT1zDP4KQLeHd1PCpDEOE11EEmEqi0SysqaNWEAS/LJaxxuMKQ16ioayp0BPjDELIhOHp9TAYhmLOWZhTP6AgUO5/+9vfNkuiTmehPoY6Qv8ffPDBeotz6iDbdsg999yzsI4DLdT18ssvGz6uwUM91EcQDrrJCz3khb64MsILhjXag4KDg/zgYMniqquuaqKYbApn4RR+kZcEH+EnNG5uaFdlQQD0ApQAQbpAWd8ghM+4jjI4c0455ZQwc+bM9RhPlJMdau7DwCi2SfrCpOM94IADbKGNoYNNSq4sl19+uSnb448/bgt5CMTLcCxkzpw5JlTo5Rcc6gQXcENDv379wt/+9jdbyPzBD35QUBbqoT7KfO5znyu0kzpoJ3Q6zdDPjj3a44pCO2kv7SY/dYEXZcI3gU++ruY0s3LfHhHcdlUWGM+yOr2BhsIgzDjnb2AeayQs7cMckk4lbY8rDGbcj/dqFhRZT4FJ+DF33nlnQaF4juM3b948w8vOe+p0ZWHrA0pL4uwQAnZhUwe9F1qgl0NqXCMUnpOP/JSjPPWDz2mmHpxs6mW1GWtAGRcsdFIGiwL9tINn/hyFp80kLC33wQtfUBRoitPMc+qkLp5tTmg3ZUHrWZbniKf3FhbBvvnNbxZmIvRSrp3xOMDuR6Bk3/rWtwpDEkxijMcpZBcaeZ3p7BO57bbbCsMJu+tYpHO87I3xdRrysPM/3rtRGN6Li4WJWzUSfhOzJ+/JKCr4HDdDG3treYYFgQ6GDS+PUwq9V155pdHvSkodtJ19OCga1omtn46XZ779En4xvPrQitWCr/hy1Lu5oN2UBeGwC9+dOBRm2LBhpgTeQATwy1/+ssBATO/DDz9sDCKRl56HkvEcPAgCZzXO9NNPP90UzwF/Y9ddd7XnpP/4j/8ozKqoGwtBj0cRwEkeBEEZfl3QKNQdd9xRUBSA4YzDaI6bMvgmDtDBQp8rOXRiTV2BuId1YWhBUWgnuHFc2ejkZeALPAR4Di/gH3wED040pwY258yoXZSFxmHWEXScQT//+c+bNI6/2UPrezsQ1C9+8QvraQC/bmHiQnScMJXd9AgLpjswHMWHN87/YOUcoI/rn/3sZ2aVHF8cP/eZiZHPFQWgN4PPcVMPNDpAB04zdLlFjeNn6KE9lPF2UgZavI0oGnyJDzP8TR746LgYquFzvO2bEtpFWei5HBaP9y5iG3jxccbTSHbK04NpPOaVYYDyDjAJ4cMY9yOcWQwf991333q9ix32OLue96CDDlpv+k3dKAKbr+N4SVyzyZvnxYLAjwCf58Wpxc+JA5bo/vvvLwg/jpd2FO+kg36GQXe8/fRBcd1YTPjoVhX8HHKL82tTQruE+1W4olbENmdr421D8g033CDqZzQJUfM3G6rV/Nrfqki2/E45B2WgreVorxJ18pqU1/bYdgNlfP5OBCoUUWtVyKvCK6wcO/BMmS69e/dudp3F78frA8CjPkT+SqweVdr8VUQTeaCruD42XtMO1pq8TvJoh5DXX4/WlcjHxm82dBfXDa/gow5p9gw+qfWz1evNAkrcZgOsBr2EoQSrog2y3sIY705tMeBL8GYCH4vxcZhGel56IJaCKK2bdU/kx+9glsG01AG/gtgHz8nHJmhwxOvHt7jrrruaBMbieLmPX+O+jgN+xmc+85lCXuqhbQD4sWDQE/eHPMEL2sEQ5FaDMrQ37tuxLdNxxoG80AM/3QoxhMNvd+A3JWxWZWHIIHbiDigNJ47CMdC42Y0DjWTthSEFhuIIMluBmTQewXPG2E06OPmbRH7qwTFkjQUFoAzDALMFN9dMZ1EWgOcI4tFHHzXH0/Og3AjY8VIX01XyxRUdQTPF9Ty8MIg2QC/1Qgf+Dnh5TrvA6Z2BoYg3LSB0cFKO2RbtBif5uW5paIGP//u//2t8dZzwm+l73MfZFLDJlIVGYkVgFEwiMZ4zrXStRwCcPXavvjmggYzFMBhmwdgzzzzTBAROYjLEUMBHYjzH8WQq6Y4xgsHvIfiHhaHs+eefb8wEJ0JnWgy9CIGZB7GKuECPP/54YziWAoFyn/IsgDJDow2Ux5kGH3gpz/ENBE+9//M//2MKx30SbcEHI7SPcMFJOZSXdtE+aIVn1MkzlAYHuSXBo2DQQqzH2w+/wQH/HafT6xZsY+ATKwvEot30eJjLFI+YwHe+8x3rVW5+YTQxCCKbrREMU/DofeWYckRZiZIyI9htt90KQkeoTDkx9QSxMOkuWITDTAFFovdzitDLwVTo5BQgDjWWgfyOk+MnKAGKhFJxzX2egwPhsl+W8uABH8/AQT04rNQbD7ihKCggAUbojR+D4TntQgmJLtNecHEfBxZ+tGSJAZ7B1/hSB3yns7AUQWdjkznywUknv1vGjwOfWFnQ3AkTJtj0kV4OA9BskhMOQ2Acax1od0tAIxgemHlgSr0sjAMfiuAC597YsWML6yIk/AefVrsQGPv333//Jqu5/EIngbwhQ4YUcHJvv/32MyVAaWEo9HLNpm5oIB/5UTDKc8/xkrAY0BX3fbCo8YAbCWWELldScNI+8Pk9EkKHH/ClpU4GndALf11xqRuc4CPRNuSDnJAXcvu4sNHKAoH0PPwPepoxnCX0fCOLE37E888/36I5dUWhJ7g5bQ4PiWcoxIMPPthE+WAmvZo1pTjTPDWHx+/DUF7Qw8qyKwrAL7QRUd1ll10sX3HZePL7/gw6sH7F02N4B/1ufYrxeOIZynb22We3qjDcf+5f/yoE8ppLOmGKFH3IYAvgMTR5O9sCG60sNBznlfWbSFG0wSVKjDY+WdVNU/dQnlGhJ9W6KKH0GhbpiEE012Cc0Uu/971QWl6m83nFBU5ldKpLZchU9goZve8HrEgc6MLxLbZU0EUcBoe2IIREKiQzvIqjPGSqeio+pa9MZ2f04jwjsRK8+qsly4cCPfHEE01C8FgAlAGrRa/Fv0CZ4sLH4S1WFABBQb/PEq2jZdQKENlVq5TGKS7VYSqlw5Hyg3ouueSS9WZjAPxkaDviyCNCpgR8Spu2OVOWVTmoG9C1h/6tfE0rPr2fVt4OHTbMFiZb6rzNwUbFWbSczelvvfVWUedLGnON9pm4bYbsIUN+eKPs9rfXZc8H/yHdL/+xVGy3vdp3PjFXJ88995w89dRTVj4OXCvh8sd77pG1tWslh55UVcqAE78qw+9+UkY8/bzscMd46XnoCZLKlgtfo6trrJff/va3dkQkjk8V1+I0ar7zd4jNBKkcMVq2u/Y3ssvfX5RhD0+Qvuf/t5T3HShKuOVRIdgueVUAuy4G7qvTWviSiArY9uPy0mRiItB/++23y5577mmxIM9DTEiVaT28almMfvho1FdkpdfBx8mOtz0sox+dJCN//6T0PvlsKavsAiKpqa2RP/3pT3ZAvph/ah2Mr/967l9S36D80LrSAwdK/wuvk93+8pyMfuQF2f5Ht0jV8BGSVFk0hEaZpXLjIL7VX4SvRdCMHxvoJZhEHD/O9CZUUyuHDA9Dn3wpfPaNVWHXd1aEUW+vCru/sSgMv+uvIVOq00DVdsbNMWPGrNd76Rm8FNBmAHkLtf13rgi7vbY87PH28jB68vLwmXeWh1HPzwzbHHCI9jaVfiqaKfxLTW+xpWIWwJBB86i3avsdw24PTQq7vb3C8O2uvyPfWhB2vumekC6Htmh8J5pKjy8GTDVjPMOJWw5ofeCBB2w44bkPVyx8+lSaREyHXh8399DLkAz9WAH4133/L2j71Jl+e1kYNWVV+My7y8Kek5aHAf/vv0Mqoz6M1okVYmGy2EpBA/4P/KW9ycqSMPyOR8Nuyv9RU5aHPSev0rYvCiMffzVUDt5ZeacTgETS5Nfa0FYMG21ZsBQfzvpQORIknUpK2WfHaE/dSdaqvBl4kHlIl0hy1D7Sff+D9TppPYDv/PC6C3A4Lu6rT2C/2gWlPJGVsqPHSaIETialMZkSNdAilT2k95nnSSal3UPrUBMqyvSoXB7Ap7OHwididBiULoccIYkdBtrmbPApMWpuukh27wOkYtguBdpeeeWV6JRBMz1NGSovv/yy/WIldPYihxxySGGjNwmrpjM+OeaYYwrWBcsbby9AXVjZuoY62+CpUpb+Z50jua5qNSVtI1I6l5b68oR0PeIYSZaUGs3QBo3Q4PjApZ3D+Or867n3UZIdtbvSk1V82jbVtWSiVNL9d5CKvcZo27U3hpydlcKyxPnXGmy0skBrbU103icpGckOHGoHqsyPz4OyUO+VSdmQIZGAFBAw5jwOEEuI2higSlBdWiHl2zQN5QPgzwwaJrmScr2KlAxGxQXB3+ojWD0RJKR82HDtbiUmBIeU5KQuUyqVO40ki5WDrpYY588dUBa1LuvRiCLtuuuuhfvQwXJHHMDFkIfAoCjDuZ/BOwnbsBvzB8eAoMzMbrut1KeqjJeUK/ApD9QDLlNyu5OU0sGD9KfM2hUHdVqkdPvBWibaIMxQGMe1IdgoZYFAkppF9R9U4xP1kvtgqh0MyykhNIyDYrAirWPoKn1mJ8oU6ImsdcQBXHz2NmJwTlINa2XtEpgSlcnpfSwY+BtmTJNUXf4LZCoYnarmy0XA36w5ec/WiqV66mSlo1EFoRRh8ciu43ZJfY2seu8dslg5cBX7Fg48j9ONn9LceE+v52U/fp/2soYTh0JddtpSy6xVPNOnSr3y0YgxUAvdGKR20UJJ5VbTeiu3jk/rALqwatHdBqmZOY0eqDREvIsgIcnGOqmZPVPxRmtnyK8YV2uw0cpCr8LBg/G5hpyseEXN6rypSggOW71kGnOS0L9r33xZqv/5D2MeglBfwhrnRPJLQ/fYYw97nsgFaayvlerHxktybaMpXCKs1fuad/VHMvvXv1QHrVYZqFZGBaFjdRMBgw/nlkNjAKcFVz/9hNTOnSepemUo+qdKmKxPSs1LE6TmvVeja8UxevToiOnNMJD7PCcf1oeFQZ1+muWgbSTu4+g+/PDDpjTAoEGDzMmN4wTH2LFjpSRTAsESGuq1XddKYkWtffjK7I0ytrE+IUuf+Iska+v0OuKf+hlNaPT2Dh8+POKDVrv0hWcl8eoEpade0nzZhM/hhDpZu2CmVE/6p05IGqzcgAEDTI5Wrg2QukIh/3ebgYqogE+oRAe+G6Rh9Upp0L8zXaok26O31Klgqx9/UGbdcLnULeFsc05nwuVyzTXX2IehigmEAePHj5cVq1aYwtSqNVj70UIp791XStJZFerrsujGq2XVc0/bZ13oRijKOeecU3gVlwMmmVd24WMExVVfvVxq335J0t16SKpnL0nq0LVs/N2y8OafSd0yhrGcrYRfdtllpszFtIGbBI2PPfaYmW+UAf8BJcGSoTSPPvqo4Xj33XftOWVOPfVUOeyww5qsRHMfy4Lfgt9A/Q1L5svaWVOlotd2kqqolIZZ02XJHdfJR/f9QepqV6myiK08X3DBBeut1kMDHfCxxx5VOurUMtfJkjdellJVhJTiS+q9mmf+JguvvUJWzpiiDErpHCEpX/ziF+WII44o+F0bBK1oo0CZY+Fj362ltZlXnyojztI1qNKEkmy5+pPmxVgQjTgLoWvtgXks64D4AXEEglTkp1yyJBvSFV1CtqqbzloUr3n7UcALfOzdKJ5ZqaJY6LtpnIXhWl1kpS1rtFUabmJA9lwT8RPiKMwsmgPqIQ5THGeBDgJhRG6JhRTHWdiXAj3QFQePsxSCcpqIg6TLKqL2VjiNEf/Id+mll9o6TzHAT4uzKH+ZpZGfcunSslBCnEpTyuIsOoukHn2G3IiTIce2wkYrCwTCWLZKEjJX7SwwSXXUBGSJvzV5BLeYaQ7aEy0cftZZZ60LVOXLFieexSO40EICNwEw33pJvnhqDo/fR8hMt4ng0i5XaH5hKPc3ZQQXoUP/htqKYMFBZNtPBjQH3Gcjty/ANpeoBzkRcWelOt7OtsBGKwtARc2tDWXSSYsNJEuarg2xsNhSzwUQCgrzX//1X7Zq7I2EYeCl12DFwMk9Ygss9CEEEjED1mBcACRoIrbT3NoQVoKYiFlGvc89tj96ZNMVhQ3frBnxnLLkpxzl/Z7TSj3Uh6WBRu4hbOiCPvBBq68NuSXil/ZlMumgs/1CZ4MP8MPXlZoDpxP+Upe3EZwkaCRBE3La2O8IfCJlAZxQluQxa6xuwhh6AqueLIQ5g1kVJRTfGpHgYqhitZVyMJwzOqzGsiobX3WGuawDsZLKqrNvtaQcCaVhOwB1XnTRRQXhobi8t58FQoJo9DR/BlN5975vYUCoXLt5Jx9bJFh1RqmKV52ph7KsOnM/Tgur4r7qDN2Ok+e0i60StFMdT8PFffjAEgl8aQmwKrSRvN6ZWMhEeVj9Z3EVOnEbkFNLSrch+MTK4gDBNAjLgdaSIAzF8QbAsA3tZ0FA7N+I72dhbwYWjHKYWoTrTIYpCIZ9Ii4cGI2ScvgKGnw/iysE+09gLvRSH0dpUQCnE4VhHwvMje9noTz7XhAq9FAeZYrvZ6Ee6qNe6scyuOBpP/tu2DlHL+ce5bBS7GehfeCN72eBD63tZwEox7cC3KJiTeA7nY5nJOQCjpaGsbbAJlOW5gDi6H3xnXKY6Q3tlGN7Y5xZ7BSjkVgkFhzZKeeKAU7yImAXGHWwXI/QKIcA4jvlEA5mHXwkGMkOOIQOPvKAkyEMZeWauvhGAKcQodGtY0s75XjOL3TEhyToBLcrEH9j5XDwKQO98Z1yPGfnILiaA5QdflKHKzsdxYfSTQmbVVlcEPE9uDSIPaPOnGLgvu/BhVlYjub24DLk0IPI48kZ5XtwvQwKFt+Dy55ZcMTrJw9ngqjPBRvHi+LwvJhu8MT34B577LFNZizQ4Xtwi/FCP0MTOLzHg5tDar4fBj6wBxf6ioG83GdIAxf5GWK3yD24DgibcZ/GkJgZMQ0t1nwah+lkSICxJMqxC8+BPDCCTU/4MuCD8fzCMHbUwcC4uUVgHEF1IfG2SfyAODP5m3oY21Fsz0uid+OL8bxYAPhK4PO8fBIPHyoOXHNyEqsSp5fTibQj7vSDH/ppt/OArZzF9ALwj+k+/AQficP7DFvFeTcFtC109wmBIBLBJGU6ymnL/Oeee+56LxTkGesoKhT7Wxll6yyUc1Am2EKh+gbrvWGS/CNHjlwvKqmm2o5/OGjvazZSC24dnvJXTUF7/3r5AeoBnwP1qBDzVxGo8olaH6vTAbpZYDzvvPPsl7odoJ+1J3CTT5XN+BJvK8A9yqsls2eqjHZdHLTbVNAuykLjjzzySBk3bpwxAMYQueTjCAjSQa2BRYVpPKCWosA0QIcge+sjQWdC6vGyMIvn6uzaYhu4HBCe9t78lVi01gUBuEB+85vf2DmceF6A8mrabf+O9vomQkMB1L/IX0WLc3FlIS9C1aFovbUkrmnHlVdeaUoKzQgZnHQSVy4UkNVrVyhw0NYHHnjA+OXldFpceOXZZgGtuF0AU4sjxtivDbOxeENnnXHamC4zpJCaC7hhgnGgwUcZHFLOOseHDE4LcAaZ56Tis874GJwJYuYCTvIw9rPfw4ck7vPc34LguBky4medmQIztDhAx4bOOvOMwB0zNHwycNNuHHUvA1/cyYUX8C1+1hkfp0OcdQZgAGM3sxJ3TGES00R3GmEsUz6ekdScWuTUnVp/iwLMcQbF36IAU7mPAt1+++02poOXoBonCxwvdbgDiBIz24hPcfEtPEwPvWoZ7T7PcVQJ03t5FI028Bzc1ONvUYDuX//61wXFIBHIg158KzoOOClHB4AuZmnQ3dJbFOJ1UoZnKAx0xp36zQHtpiwAWo91wGGDcTSSXkbshN6CExc/wM6UlHskLIoLjYQFYZYBA+ndTLddkVBGytJTwTtlypRm388CPS+99FKTz+ahKDjDKCfPcWC5dgWHZvITF0GoCA584OU5bSM4iaJQvwf8eA79PqOiY/Ain7jy0ybaSZ0kn5KT+LAEOwDBS91M8x1vh3s/C+A9mWCVCx7hwCCimjCZoQfmwAh/81PxATJ6N4ymJ6EMbnnAg1DJB/4DDzzQoqn0Ug+c8czf/PTYY4/ZjMpNOcJS36pwvAR6URgCb9yHVvKRn3LEXBB88ZufsIZYJer3Mvwy1Pg0mYSl5SBac4E72k17qAu88IXYCQoDHscLzR3yzU8ATIL5fgKQhH/AO+Xohd6D+SWgxbvVELwrEEzzgFucOfQqhMww4MKnHJFdi8Jm14XWz/72t82ikNeFRF6fdkKjA3WgONznnXMIyWmhPO+U45iG042wOUzGMOZWA3qae6ccuBnOfvjDH1q7wAkOaCG2Qju97eDA0vBpP/hFXhJLA3SIOM2bC9pdWWAQ1qX4bZUpjmskVHC2KzViDoyIm2ksCqH95sZmrrECvBXSnWgW4hAi3xvSyYLh1XmV9UZ6s/da8mzobZUoDM/JFy8HHvAZjUo7G0t5zjOjQfNBD2/RhL5iugEsDGtY8cAd7eZkotdluJU/PHe88A8+ws/2gHZXFgCBsEROUIpGW8qvslrye/kEcwj782ot/JPWehGKhPl2plvirJEJU+8V4Qc3C3CvvvqqCbM1QCjkw0o0we+pGfrBT5QWhWhOURx4jrPuAbY4DkvN4IZ/8HFz+yoOn4plwTfBpHqvQZCZ0sqwXf9Bof/AwWp6i196kykcct+QuQX38BHrXnCTVDyVmWzYrdc2YV/1J7qXlDYRNGae2VBbxnye46OQn57vONholC0tC/23Hxb69BuUP+gV0e/KiL/RGoCb9rFS7EOPl+crbP0GDlH+KG+yke/GM9rB0A3uDdG+KaBdgnIOWp8FkP7yl7/Ytkc+ZkDcqe+goXLcad+Wk752kRx3+sXylbMul6Ej9pS0Usfmb/V0RMf79SKzcXDcTzzxhHww8wNR1gnfW9l3217yx8/tL38fe4A8MFZ/Dz1Ejus/QNJprVhR6fBix0kor0LIY2seeE4+8qsVsnvpkowMHTlavnzmZUr7uXLS1y+S40//rvTffmern/wE1PjCq1oAK9McgFv9IWunCj66WSIydPge8mXlx/FfPV9O+NoFWsd3pd8Ow0QyCW1jzgJ+BOfATV2bE9pVWQAE+uyzz0pDI5uGg5RX9pBDjjxV+vcfJplsiWRKU9KlV2858MhTpKxrb7oWG/FNwdSpbZUhCP6RRx4xQTLyZFNZuWa3XWTfHpWSLUnJNnp3YLes/GjULjKoNGnnm3LJnJXRIaZNzEYo7LUlLwKurOgpn/v8KVLVcztRi6IpK70H7GT3SlLR26aghzpoe0t1cF+dXVEfJMoD7nLlzVFfkspt+hrukmyp9Bmwoxz8Bb1X3t06EvQYP7XtbaH/k0C7Kgs9hkZNnz7dNlJLIi3devWT7r37ivpumoPmJ4Qgd1mXrjJqr8/pfXpzzsLxVq4VZiMMHYasHh0aZJ+uXWXnrttINmQkk0vJWs6p1Sdlu5Jy+dKQndVKpSSpishaE8sPGwLq0BmXreUAKMJnRo+RcqU1lVDlt7tqUFKN0qPvdtKzX/RZGuiZOnVqq8oCTJs2zdpJHh0+Zbe9D7IN8JlkveEmpRM56dpnO+nWu7+1kbwzZsww3Jsb2t2ywDh6MaD8kIou5cpo2JAnRXs7bGG46VrVze7aGSQtx7pMawDjfHgAy8AuXaQUi86F5NS9VcXTulJ6vUNZmVWl8wsrFx36ar1n8hzF8r9pQFW3CqMx2DfGItCatMqEdOeckbUt+mxfawA+9YcKfxvurnwIi6MhEW6os3NAeq9LeRerA3CraOU2I7S7sqAEOkW0vznysXTxHKlfWxt5c/kEoBzTZ0zRaz4gFS2usZraGpBHp7KKWC+UcS8vXSgrcn5Sbx3+eu2FTy6cp9YtJ43aU3WaKwMHDlTBRMxvCXjOWSnq4W+EM3Uax0bVFzEljwClbKirkblzphUE2LNnTyvTUh3c75M/QGZ5tNysqVOUESw+MqhGYIf66mpl6ZI5ej/ybbp3726/LeHeVNCuyoKiIBhWVPlb5zWyetESmf7+ZBt7cUo5VtbYmJM5qijTJk9UQURl2QaA1SChSMUAo8C51157SYodz6qIU2uq5S/z50l1o+JVx4eRTzHIBLUOj81dlMeTsHNMvXr1ihC1AtSB0MkPoAgfvDNF5n/wvoSGnNHPvbqGtTL17Vel9qMVJnSUy+jCm28GKIPloW1lWDy9hrb3p7wqC6ZPVe1GYThhqPka18oH774pKxbz4a4I96hRo9p+9ucTwEYdMttYoDEkxleW5htCvb3+Yf6sqbJq+TKsq6xasUymvPa8TJrwuNRU67CjDEGgMNNf18FBMJQO5XBw3CQc0BplfLIxKa98tFRmVq9SP0hnGtV18odZM+Rn778nS2qwZtEMhL0xe++9t+HcEFA/Qn3mmWfss3c5tVxzZn8otdUr1c/QYWrJfHnthafk9Un/1OGBYUWHk6oqufTSS9edGsyDKwV+ym233WZ52OPD/eh5g3w4e6qsrVllxvKjJQvkjRefVvzPSH0tR1qjb0JecsklxpOWlHGTgRLWrqDMsfWNE086MWRKPEiWsA9+pzMcI0mFlAXRzPJaTIHkfxPq5gvrrPcQJANfHMAdfTE+y3sXLGJLBDdTAv5syEqJvXICfERZ2ZHGFgZV4DyG1qGhocGWFVga0Ok3gw9uUOCsOdcpkkWiozZQB/Sw9hUH6IZ+2sFWTIKO8XZasgGNeApHOogKwxt4pvm0PpYeWCdqS/xpU0C7KwvgDKeh6UxsHy1MyDPMhcn+ED8a4YwkaMU91k6KI7rgZrU3UpjYNsZ8ctwkwuuE8BHaxwHyU47ycXxWl9env9rTbY0HenSYzZeOFIWFTAJwtIP2OJ20k3u0G/oL+GO4SfAG/hWvN21O+FSUBVBTbht4YBjbEtjoA9NIrDCzCZpjFUQn+QQMK7G+duKC8AVIHZ4KEVgSuNkXwmos+2MJoTvuuGBY0+GcT/GiZGtAPuriqC24wAO+OH7aQpuIOvv+FKeNhUM2KbHtgbUd2kF52sU6E+3kCAqRaNoPH+BHHDfbFeAb/KOt7QUJ/tMGfyqA74Jjy7SV7ZKqGHa944472msquunUE58CEplWEjk966yzbNsk+QD8DGYDZ5xxhqjgzT/gHmWKcTPFZEalPdJiJfgPOKxEV4v3yLYEarnsDQpsEwWvKoDNwO677z6LppaWltoLfcDr9Hs5tSZy3XXXyR133GF0cQ9QJbDXvbNtc999923yenXeP8OWS+JHtAvcOOOOe7P7KXFAWT5toMcp4wqpufGXPJh/ThFyoMp7JU2gV9L7sDL+BmxweG/mb/DSw+nZ/jEHejTmHCvxcdaGyO9DHHjAR3nwO/2Oi7+hh91xbC+ATso53bSD9rCbj/bFaeBvktNfjLu94d9CWdoKMAmB4KfwjUMOqrvCuClnO8CFF17Y4iFycHD0lB16Xo7hjZcnI4zWAHzk8zM9JHbNca+luqCDoY79KiimKwp0Q//EiRPNf/k0laCtsEUpiwOMdSvDrjd2p7kQUBh8GV5yzB4SFKtYCFgBdtphFSiDEHEWi2csxcCZJrY/uOPJL99qBF8coA9rQv0ctMeaQJcrJwrG7jqsCZauOUX7d4QtUlkcsATsA+G1Hziy8Y1SKAC9uTkTj3DY44oT6vnZ8A2elqwL93nOJmovg6PJ/mAXNvgR/vTp061erJxbExL0UScOLnRvyJL9u8EWrSwAAkIR2FpIL2d4wcTHBUQshRf/4G8gIMpgDTgz7b4LVoL4DXmKLRHX3B83blzBV+GX8igHz8GLNaEejpAUds/l82L9oI+pbrFvsqXAFq8sDjAfwfHukYMPPrhgZdw/IOjF8Qmmpe6IsiOeV7C730Mehg6eYy08cc12Td/F5v4G5f05eJn2gsOHHBJ0HHLIIfa+XpTErdCWCB1GWQAUxmMsfMMH4brg+KW385YqXjyMpcC6cObao6dYAIYzXuDM8Q4Oo/GKkJtvvtl8Dx9SmMFQjvL4RODjtfQoRrw+8EIH9EDXlmhN4tChlMUBq4EQX3nllcJHHxCeWwV8Cd7UwPkbZiu8i82HLhSC/CiWJ65dUfglP+UoDx58Iy9PwsHGYWa/LnRsab5JS9AhlQWgFzM8sFbExzxxYLEc9HoEiq+Cs4rVIBrqzzaUKEdklnLgdJ+HBA7uUR8zJ+rf0q1JHDqssjggLIYLrAxHPBlC4kMFVqNwL6H3JBGyiVSoyqRCv/KK0DWTDiUplEGVhQXDdCJUlpU3mQ7zCw7wUw/1dSQlcfhUw/3tBTRRhwIL97N9ga0AbIxWZ9PC6s6CtP7r2y0p5w/dVY7u108qUxlZ3tAoD8+fJTe+/5YsWBG9xLkhmVOVisrp8CP9+/cXnenYEoAqjS0jgLejQadQFgft7aY0rBOxDnPXXXfZeg2QVgEf2q+/XDVypOxQkZVkIs1WFErZRqqZa6rl8rfflqdnz5O1vMZauaYOtJx++uly9tlnizrOrZ4+6AjQqZTFAYVhLy1vvn7zzTdVJ5IyqKpC7t1vjAyt7GJ7guN2AQbphFfeXblCvvz8RJmxerndZPGRV7KzkKmOb5S5A0PH7QatAEMHq868CAdgh9TRffqoRamQdJGiAFyjQEMqKuWw/n10sIpyUJ63T3VkaxKHTqksGNMpU6bYFgCgNJGTMX37Sib2+ZbmIJ3OyWG9ekuC4wEKlH/nnXcKPk9Hh06rLOx7ddDpjHTP8j2iloFnaXVqq0pL1bKsY5uf8+kM0CmVhZkKRz8cGnNJeW/lMpvptAQ84RjZtBVLpSGWbcCAAR1y5tMcdFplYTc801yAWdJjH8yStTrracRniSlDzi6SklSFqsmJPGJnkaMMzIZ4O+ZWZenAgHDLyspkn3320b+ZHItMXLFGnly0WEIj9mWd8BPq/TbypbbQIE8tmi+vLK3WiXN0VJTjIx5X6QzQKZUFyGazcsIJJ0ja9sjmZGVNtZw76WV5YOECWcXn+8ikBqRRLcva+pz8efESuXjSq7KsnrhMdN7o+OOPt9hKZ4FOGWcBGHqYPp955pn2BTW+xkakpLykTEb1KJNdu/WQPuVdZV7Napm8bLlM/mi1rKhXq6LsSqUzMu7oo+WWW26xjdmdxbJ0WmUB6uvr7c3ZRGEnTPin1Dc02EF57G1JIm2v5AhqY+o5OWklom9DjhkzxqK/nE3uDMG4AqAsnRVY7GNlmPfW8qLCLhUVdqJQfRpbNPTENVsTWCwkH9s0O9qKclugU1sWB1jAGtHf//53uffee+1Tu5xNYlkAy4EFIbTPByhZIuiSf517Z5kFOWxVljzgwzAsEZWtrq42RYE1KAQKw+yplICc/t1ZfJRi2KosRQA7UJw4W1CYzmhJimGrsmyFNkOnjbNshY8PW5VlK7QRRP4P47ONPW+He6kAAAAASUVORK5CYII=;" vertex="1" parent="1">
          <mxGeometry x="609.21" y="110" width="66.72" height="60" as="geometry" />
        </mxCell>
        <mxCell id="ehCbc-gGsFOHaVZKTLyM-16" value="&lt;font style=&quot;font-size: 11px;&quot;&gt;&lt;b&gt;Random Forest&lt;/b&gt;&lt;/font&gt;" style="text;html=1;align=center;verticalAlign=middle;resizable=0;points=[];autosize=1;strokeColor=none;fillColor=none;" vertex="1" parent="1">
          <mxGeometry x="592.57" y="159.6" width="100" height="30" as="geometry" />
        </mxCell>
        <mxCell id="ehCbc-gGsFOHaVZKTLyM-17" value="Model&amp;nbsp;&lt;div&gt;Training&lt;/div&gt;" style="text;html=1;align=center;verticalAlign=middle;resizable=0;points=[];autosize=1;strokeColor=none;fillColor=none;" vertex="1" parent="1">
          <mxGeometry x="500" y="220" width="70" height="40" as="geometry" />
        </mxCell>
        <mxCell id="ehCbc-gGsFOHaVZKTLyM-22" value="" style="shape=image;verticalLabelPosition=bottom;labelBackgroundColor=default;verticalAlign=top;aspect=fixed;imageAspect=0;image=data:image/png,iVBORw0KGgoAAAANSUhEUgAAAKgAAACbCAYAAAD2pdC3AAAAAXNSR0IArs4c6QAAAARnQU1BAACxjwv8YQUAAAAJcEhZcwAADsMAAA7DAcdvqGQAACvPSURBVHhe7Z0HgBRF9v/f5hzYvAu7xCVHSRI8E8oB4sEpB4gBET1Pggnjef7UM93BX8QAciAGRMwBkCAYyCAISFiWsAvssjnn2TDT//rW1DA93T2wYWZZtudz17Jd09NT/ep11auqV/XcJAa5cNFCcRf/unDRInEpqIsWjUtBXbRoXArqokXjUlAXLRqXgrpo0biGmRoBRGYymSglJYVOnDhBBw8epPPnz1N5eTn/PDAwkNq1a0cDBgygbt26UefOncnd3Z3c3Nz45y7qj0tB60ldXR1lZGTQnj17+LFlyxY6ffq0+PTidOnShUaNGkVXX301DR06lCuvp6en+NTFxXApaD3Izs6m5cuX048//kj79u0TqY1j0KBBNHr0aJo5cybFxMSIVBf2cCnoJdiwYQNNmjSJN+mOEhWaejT5n332Gd1yyy0i1YUWLgW1Q2pqKi1YsIBWr15NBoNBpGrj4eFB3gGB5O7pTUZ27lZXQzUV5WQ04sw+vr6+NHXqVHrqqaeoffv2ItWFHJeCanDo0CF6+OGH6bfffhMpary9vanbn0ZRTJduFN42gdrExZPJ24cy69yopqqKSjPTqTz7PBWeTKK8PT9TTU2N+KaaYcOG0RtvvEH9+/cXKS4suBRUwf79++muu+6is2fPihRbPLy86Lrp/6Ab7ptDITFRrLn2YKnuJDETAOC/h6o9yFhbS27u6LWbmKJmUdJH71Dyp0vJVFfLr1PSoUMHWrlyJbdRXVhxKaiMpKQk+sc//qFZcwaGhdOAsRNpzJynKKxtW9arZ2K7iOhyaiXKZLqIy5gWs+bfncozM+jI0v/S2U3fkqEo33yhjCFDhtCSJUuoZ8+eIsWFS0EFOTk5NGXKFD6EpCS6cze65dF/Ut+bx5Gnt2+9OkuoSfOYkqazlt1yNTpHxtpqytzxEx1+83nKO50sPrGCoSh0nqKjo0WKvnEpKAOdGXRW1q5dK1KsdBwwhGZ9vIZ8AwNFSv2BYPNZFXq22nxuAU1/bVkZbZwxlgqOHRSpVsaPH887Z+h86R3dT3Vi+Oibb76hbdu2iRQz7u4e1PPam+iB91aTX3CwSG0YsEAjPd3IXyFlySSRV3AI3bj4S4obMYrcFIqIvHz99dc8b3pH9wqam5tLS5cupZKSEpFiJrBNGE14+mUKjo650AFqLJ183MhXqaSs1vaPjKVuf5tBnn4BItUM8vK///2P503v6F5Bt2/frml33rNoBbXt2dshg/NQzkANSVfmZtFx1rOvqzDP4ctBnpA3vaNrBcXY5FtvvaUaUL/27gep9w2jeFPsCNDUx3i5kYfMV8RQmEM7nn2QsvduZS+BuoZGnpC32lrtYSm9oGsFxXASxj3lhLVNoD/dPZPqahxr//kxSYfB1GQ9+eLUZNo67z7K3LXF/KEdkDdl/vSGrhX0888/F39Z6Tb8Ogpv18Fh8+5yEpgtWpmTQXtfmUc5++rXfH/66afiL32iWwUtLi6mTZs2iTMzfkHBrGm/mbx8/USKmqb4dGJwfudzD2k262269aE+9z1KXoG2IwbII/KqV3SroGfOnKGqqipxZsYvOJTa9xsozmyBYpYX5FNO6gmqqapAS90gclJO0Io597Jm/SeRYiW81wAa+e93qevkmeQTFCJSzSCPyKte0bWCVlfbjqB7+/lRm7ZtVc07lPPg+u9o0R1j6a07xtOHc++lwox08emlKcpMpy//bx6d2PWrSLES3vsqunbBCgrrdRUFxsWTh5+/+MQM8uhSUB1y6tQpVQ0a37s/eXioPd2rK8vol/ffpqyTSVScnUGHt6yn1c/OpcriInMX3R7sM1yDa5N3/qJS/NDEXjTs+UUUFN+Fz+u7e3lQ2z4DxKdmkEfkVa/oVkExGI5lHHLa9ewLPVFRU15JOaePizMzSVs304rZd1Eua7rtgc9wDa5VEtIhkUa+8i5v3i/AzNLgfkPFiRnkUTmJoCd0q6BatIlF8y5OZPgGB1LHQSPEmZUTu7bSF6zpLso8J1KsIA2f4Rol4X0G0nWLPqWIXoN4zSnHKzBI/OUCuBRUjp2ej6ePP/15zlMUk9hdpJhBk5284xfWhD9CVWWl5kR2C/yNNHymbNbDE3vSCNash3burvoMNHVatbXhUlAZBenqmtBCh/6D6I5X36a4br1EihU04csfvINyU09RHjvwt1azju9OfuVNiu3VT6SoqcjMEH+5ALpV0Li4OL5sQ07Krl/IzY5EUNt1HjyM7nv3Y+o4YLBItYIe+gcPT6cVc6dr9tbxHXw3YeBwMtirJNlvF+63NQmQR+RVr+hWQbFW3c/PdkA+j9VetQb7c99okeG8POmF/0cxXWybe5B+9A9+KMG1+A6+e7Hp/ZqSMirKOC/OzCCPiYmJ4kx/6FZB4+PjycfHR5yZMZSXs2b6xCVnizr0H0h3vPYWxSb2ECn2wTW4Ft8BpUZtDeUTAVnnqK6qQqSYwcpPPa/41K2CJiQkUJs2bcSZmcqSIjq1f69m50WOiVWDnQePoJmLV3KPe3vE9+5H97FrcC2+AwptR7YugN/MPbiXqkttpzVDQ0P5TiR6RbcKGhQURBMnThRnZmoNVZSydwfVVleKFPtAoaJZ0z353ws1m3ukTXt9Mf/XovD4b7Ud3TcaKvgcvZHlQQ7yiL2e9IpuFRRgHZKXl5c4M5O8fQuzI4+IJcOXJqFPf5r66iI+C2UBfyMNn8lJr9HWTvxW/rFDlLXHtnPl7+/P86hndL1oDmt+pk2bRt99951IMdOp71X0+Jrtl2zqL8Dsx4JzqZSybzc/RW8/vH0nc69KUMV67scNEmmZoLA/N04eSdlHD4kUM7fffjt99NFHfJscvaL7VZ2///47XXvttSqv+luf+D8aM/cJMtqxGbVwF4vfTIp7QcBnWduer3EvN0+iI8sX0e8LnhMpZrCic+vWrTRwoLZ3lV7QdRMPMNw0efJkVS21+b2FtO/br0gyXXx/JTlQTKVygkKWVGBSmwySZKQz677mmznIQV5Qs3ft2lWk6BfdK2hISAjdf//9FBERIVLMYLrym1efpdP7dvFdQZpCJrM9leubcM/c33fR/vnPUo1lmlSAvNx77728I6d3dK+gALt5PP3006rxz+LsTFo0ZQyl7tvLarX6dZrkQCV/r5BUM0duHm58SGnj9LFUkZMpUs0gD8gL8uTCZYPagH2ZPv74Y9WGCVgCMvqheTR88nQKjY1hn7PES4gNHfZUZneWWVp8pniYRq3MzaaU71fTH4tfozqD7XAWmva7776b78/kwoxLQWXk5+dzJV23bp1IseLt58+Hj4ZNuoMGjL2N/ENDmL3J9NSO91Ey67FDObFrCBSzuqSYMndsoaRP3qPC44eorko91orNbKGcSnNDz7iaeAWlpbb2oIUaplApzB5d9dRcemX0UPpp2btUWVTExzA9vT14Dx5HBdPXA9UeVOnhyT8zFBXQsY8X05oJV9PWedMp98AuTeUE9n5bz7hqUAGUA7bfBx98IFIujRtrkjsPHEZRnbpQZIfOZPQNoKyKaj4bVJWXRcUpyVwhG+Ljic7R66+/TsGN3A+qteFSUAYWpj3zzDMtxvaDmfHaa6+pnFn0iO6beLyfn3zyCZ+xUYLdjnfv3s1rNUeDvUhxb60dlZEX5MlVdzBQg+oZpiRS7969JV9fX5sjOjpa2rRpE7+mrq5O2rZtmzRt2jSpX79+UlBQkOr6+hy9evXi98C9cE+A38BvKa/t0aOHtGvXLn6NntF1E49AXHfeeSf98YfayXjhwoV8AF++iSxMASwB3rt3LyUnJ9OOHTv4PSwR5pTACwkzVSNHjuR70A8fPpxv7y1vujHFumzZMnr00UdFihX2MvCaFPfQK7pVUGwnc8MNN9Dx47bLicGrr77Ko3zYc9KAyLAcGOFpKioqKCsriyupZSMIKCCUMzY2lgICArjTMSLLKScCLGDcddGiRfTss8+KFCusJqWff/6Z+4XqEiio3mBKJT322GMSUx6bZpUplTRjxgypqKhIXNl84Dfx28iDPE/II6tdeZ71iC4VdPny5VJMTIyNIuBgHRbp5MmT4qrmB7+NPCjzhbwuWbJEXKUvdNfEw4Xttttu402zEtiil9uDiCkptz2VwHkZe+nDNVBP6GaYCe/hgQMH+PCOUjlh3yFoQUtwb0MekBelzVlZWcnzjmfQU52iGwVFRwYzRcq9NtGJmTdvHt14440i5fKDvDz55JOqtUjIO9IzM209oFo1aOL1wOzZs1UdEByTJ09ukR0QVmPyvCnzi2fAs+iFVq+g1dXV0uLFi1UFjQOD4SUlJeLKlgfyhjxq5X3BggX82Vo7rVpBMVuzYsUKKSQkRFXAQ4YMkZKSksSVLRfkEXlV5h/PhGerra0VV7ZOWrWC/v7771L37t1VhRsfHy+tW7dOMhqN4sqWC/L4ww8/SAkJCarn6NatG3/G1kyr7SQVFRXxzo8yrDY245o1axaNGzfO7kxRSwJ5HDt2LD300EOqzc7OnTvHp2RZOYqU1kerVFB4xj/wwAPcW0jJgw8+yBX3SgN5Rt6VYKrWpaBXEJgff/nll2n9+vUixQoG6DHUdCVGEUaekXc8g5zBgwdfES1Bo+ENfSti5cqVUlhYmMpeQ0fj2LFj4qorl7S0NGn8+PFSly5dpIkTJ0rMhBGftE5a1VQnmnSsijx/3naPzcjISL5a87rrrhMpVzZw0SssLOTLQlq7132rUdCkpCSaMGECpaer4xd98cUXfMWkPXc3Fy2XVmG85OTkcIdfpXLCB/Oll17ivWCXcl6ZXPEKigbgP//5D+3cuVOkWMHucNOnT78iO0UuzFzxTTxiqr/44ovc20dO//796dtvv6WYmBiRog9QnBs3buRLU2666SbukX9FAwW9EsEMy/fff6/qreOIjY2VWLMvrtQPkMkTTzxhI4srZcbMHlesgmI1JlZJygsDB6Yxv/nmG8lkMokr9cO5c+dU8oCMIKsrlRZhg7J88AVniEmJHT6wIA1p9oDDMfwiU1JSRIqVxx9/nMaMGaPLTpGWzCAjyEprBYEFfA8yh+zrI/9mhWXksgBPI9ax4YvXOnbsqHrzBw8eLDHbkr/9TGgXmil477DOj+p6Pz8/iXWI+DV6ZubMmVwWSvlAZhbPJ8gSMt26dav0/PPPc1krr+/Zsycvm/Xr10vFxcWXzWvqsnWSMBWJdecYcL4Uffv25dEu4GmO72HvIiXXX38932te6VChN2pqavh48C+//CJSrGCqFENuP/30E+9AHj58WHxycTp16kSjR4+mW2+9le9byhRYfOJ8LpuC/v3vf+ezO/UF882IbVRQUEBlZWUi1Uzv3r3p/fff54rsgrji3XfffXT06FGRYgY7NoeHh1NaWppqD9RLAZMpKiqKVwTYN6q5Rkcui4LiB2fPmk0rVrxvTmgCGIxnvXm+CYMLK9js4S9/+Qu3Jx0NFvRt2LCBD+U5G48XGOJvp1PHNDPDYKQNpUS1UQl05uBeqigqoIDgUArtmEj+7TqSf1QMeQUEkWSoImOd/biZAPvLz58/X+Xh44KI2fUUHR3NJzAsO57Yw9vdgxIDg6mDXwDF+fpRODOT6li9VWUngAQ8xrZv306dO3fmhzNp1hp0S4lE2dUmYv/nvcSC9DOUczqJfFnT4xfZltLcA8jA3vjailIyZJ2nvONH6czGr6koWdtWwk7Ex44dc+2laQf0yHv16sX9Y7Xo2yaKbu/Qg7qHRlBH/yDyrSgmz9oaMjDFzGAVxPHKUtqQl0U7ivOoRsMkwEuwfPlyvueUs2g2Bf2S9YVKa7TfSAvIyP4Ka3bcPT2ozlBByatX0L7/PCVSbRk2bBhvzlyogdmj5bQNFg0dTVM79aZAbx8yyoJBGfPSSGJKCiwDdRvzs2nK4V3izBbEO923bx+1bdtWpDgWpzTxRqPxwi5w6RmZdMo/gvJMl54Ph0AivdyoiMkLqozQLW7unhR91VCKv24M5exnzVVxAb/WQkZGBhfSgAEDWrfjbgOA3fnee+8xG3+FSLHSNSSMvr5hEo1P6EqerOMjSbY1o7tvAFNQAysAq9J2ZybXnXGd6HxtNZ2pLCOjrE7DqAGmmf/0pz85ZQTFKSWK6G133XUX/e1vf6MpU6fQ6hUf1DsgFtNPCvcUJwKT0UThPfvTyNeWUkgH29jpaAAwGnDmzBmR4gKygEyUjWNicBtaOvwWGhgRa78X7+FJ7kFhTDOsFQrs0TgfH/pP5z50KzPF5OA+2JIHZe4MnKKgEM6RI0d45stLSmjtO/PJUFoiPr04qEXbertRoCJnkHVk38E07MW3RIoVDKtgbK+ZrJUWDWQAWWiNca4YeSsNZsrJhXkR3Hz82eEnzqzEQEm7qnvuGPqDz60zcLiCYnsWjEnKkeqYTdMA5YGSttdwFEeTHzv0Wur7oK09ikLBwLNLQe3L4sk+w+gqppz1lRGvRRE/R0EUa8a/H3ANBXjaRolGmSu3FXIEDlfQL7/8Uvxlpde1N5NXQMNinvvbiewmsea+z4xHKKhdB5FiZtu2bZre9HoDMoAs5HQICqFHeg5t0OC8m6c3ufurR0fQ3A8LDafrw6JFihVl1GhH4HAF/fTTT8VfZuAsnDhkOHl6NXztTDsNmxs1AMZJE24cL1KsYGtFvaMlg1vju1KwT8OnJ938tWOFerGa9brIaJUjuDOaeYcqKKp4pe0THBVLbXv1M7fbDcTHzncQdyi0ay9y97JtZjZt2iT+0i9KGXixzk73kIgGT21y4BGm4RWGlEF+IdTWy1bpUfaObuYdqqBw6VLaOH7BIRQSDcNcJDSAQA87GsqEhpknvwjbZgYBDfSOUgZRfv6UGBLemPqBz7+7yXrzcsK8fZgdavsZhpsu5tbXGByqoBgTU+LFmhbfAMfP9Liz+3p42doAmDnBGKxewbNDBnI8WXPs4+A1Wahrgjw8yVdDebV0oCk43AZVwx6nnj3HpoI3vr691NYInr25HLXNUna+rB2qoFozCTUGA1VV1G8MtCEYqyrJqHCCgDsZvJv0Cp4dMpCDOfSqSzjdNBS8AmXsnlVGtV3r6NkkhyootqxWvsFVpcVUkp1pfqoGUmq084aymqIoJZkq87JFghkEydI7Su+i3KpyOlFc0Ki6DjWyZMdkKqitpnLZdChA2Su3LW8qDlVQuL8NGTJEnJkpy8uh9COHiEwNF1GVnY4nwlwXJR9VTZ/C61vvwOtdDubNk4rzeGTmBsPn6dXlZmRpW8sKKIspqZyhQ4dyHXAkDrdBp02bJv4yA8M9afvPZKyrEin1J1ujZcJbWl1WQmk/rRUpVuCwoHe0ZLAm/RQVGxouf6lSO349But3FuarOqTwv3A0DlfQv/71r+IvK8k7fqLTv+0hD8/6/1y5nebdzcOdDi76N1Xm2ka6wHolvW3SoAVkoIxYkllZRv/+Y1uDvL0kVjua2PeUeLEK4teCXNpWkCNSrMCD39E4XEERcAo7GMupq6mhFX+fSnlnUuvVy4Rlc05ztEKic5vXUvLqpeLcjJeXF/eqd7nbsQJlMoAsIBM5/ztxkLZkpjIJ1qMzwGpIU1kh/1dJSmUFTT68i3W+bGtPlDnK3tE4pUSxAjMuLk6cmcEA7up/Pkz555iSXkSRIJIs1rRXKmQDuzNrz6/022tPiBQriMyGxVwuzGCbyT59+ogzK3P2bKJfs89espKQDJUk1ahNgjNMOZ8+qY4MjbJGmTsDpygogvSjqVfO1Z7YvZU+fGQm5Z9Ntdvc1zLFzMd/ZArqzq7NObCbtj99P5VnpolUM6gxsHwZKz5dmIEssGpW2aKklZfQ/Tt/oO05afZbG9YzN5Wz2lM2NYpm/SyzYWcz5dxcaDtygjJGWaPMnYHTlnxkZ2dzWyg1NVWk2HLPwvep9w2j+VQo3mhkoobJ5A/ZiysxYVXlZdGJrz6mw0teE6m2jB8/3mm+iFc6cBhfu1bdmQSP9R5K93cdSLH+geQpmn3JxJQzP8PsHslAZwhDST/kZdKs49oOyVgzD/9TZ9n/Tl2ThOCsqN3gvKzEg9lIHfsPoS5DR1Db7j0oMCGRsr2DqLq2lmpKCqnszAkqOJlMGTs2U8mZk+JbtiCw6ldffeXwsbfWAqY9oaT2vLyw/OOmuE7UOTic+gaFUpChgjyYclay3vnpqjI6Wl5KO4py6WBpMWvZ1GN+MCOWLVumGfzWUTh90RzWJc2ZM0dTSS34BASSb0gbkrx8uKeSsbqKaooLWefK/nJZLJaDcJy97PVKB3szoZKwt3gOeLLmPsrbl3xFs1/LyqCotkY1EC8Hyvn222/zsU9n0iyrOrE996hRo3jsIkeATsCqVasoLCxMpLi4GNheaMaMGQ5zR8QixS1btjTLzJ1TOklK0AQ7cggI92rtwQMciZ+fn0N3GIH8ESW6OXC6gkIwWNzvSEdW7Grhck6uP9hxWbkMpCmgLFGmtay/4GycrqAIRfjjjz+qpsUwDLJ582bCsnzsTIHmGk0HDvyNEQBsUoVNGZR2DgSDlaOOMhlaM5DRRx99pFImyBSyhYwxPSqXPw7YmM888wzfJU8Z4Q5libJDKEanAxvUmcyfP1+192SnTp14QCo52C+0qqqK70OJv02yHZKxR6XyHnFxcdLatWvFFS7sARlBVkr5QaYWIGuL/MvKylR7gaKsUGbKe6BsnY1TFRT7xGNLbuWDLVmyRFxRP2pqaqTbbrtNdZ9bbrlFXOHCHpCRUm6QJWTaEFBmyvugbJ0dC8BpCoq3kjUNqocaNGhQox4KIf+YYa66H2umxBUulEA2SnlBho0Jn4gyQ9kp74cylrd2jsZpNig2lMIguhz0JhGqEJuoNhTMVOC7SmAf1WeXZr0BmWhFR4YMGzPrgzJDzCmUoRyUMcraWThFQeEYgk6MMnZR+/btuUNtYwJrYVgJsyJKJxRsVPDJJ5+gJRApLiCL1atXqzaygOwgw8YM0aHMEE4SZSgHZYyydvRqTgtOUdCTJ0/ynrtyLTZ67soHbAjo7Q8cOFCcmUFhYKsX7HLnwgxkgZpN+dJCdk3ZyxNlhzKUgzJGWaPMnQJ7CIcza9YsGzsFR58+faTy8nJxReM5dOiQFBQUZHNv2FWLFy92qi10pQAZQBZKex0yg+yaCsoQZSm/Nw6UuTNwuIIePXpUYvaK6gHkwxpNAQUwZ84c1f0RNgVDJXoHMoAslPKBzBz1AmsN+6HMUfaOxuEKes0116gyjxg9GF9zFLiX8jdwLF26VFyhXyADLdk4Wv5asapQ9o7GoTbounXruIudHMzDY62KI+dusbQAM1DKZQ0PP/xw88xutFDw7JCBHMgIsnLkcgyUJcpU6eaIsocOOBKHKSjmZ7GznXJKDbGLxo0bV6+1SPUFzgroUXbp0kWkWEH0Y2Ue9ACeGc+uBDKCrBzprIOyRJkq41IhD9ABR/pdOCzXcOBYs2aNquf46KOP8rldRwNXL0RNUwLv7uTkZHGmH/DMeHYlkJEz3OJQpihbOSh76AB0wVE4REEx1PDBBx+oHEKwTgVvrzPAW/zAAw/woFJyTpw4wYedkCe9gGfFM+PZ5UA2kJEjWy85KFvlWiToAHTBYfLnlmgT2bRpk8pgjoiIkJhNIq5wHhhSUf42HBvS09PFFa0fPKuWMwdk42xQxpGRkarfhk44giYrKKLmRkVFqTKIYY3q6mpxlfPAb2iNHMyePVtc0frBsyqfHzJpLvnPnTtX9fvQCehGU2lSE49q/LPPPqPy8nKRYgZTarfffnuzRB7Gb2A5AxOKSDEDh9rffvtNnLVeDhw4wJ9VDmQBmTSX/LFRhHIKGjoB3WhqU18vBS0rK+NGOLZ4xoFpLcRrxJQa5sGVmWBvr2pK0plgvZPWykIEs8IcMZx2jx8/fiH/WEhWVdXwvYouF8gr8mzJP54Fz4Rne+edd8RVViALyKS5QFmjzOVAJ6Ab0BHoCnTGkn/oEnSqPthdNIebwpsa4UX279/PhxDwozC4ceDNQU8OEeXqFOtd4N2CENnNBR5h6dKl9Nhjj9mMIiCGJ+J54m1G/i2fwfEBe2nCyEdNgwJtjAOLM0FnA+OKiBaHsUXI2NIJhfwxvolxSMThlO+qjM/eeOMNPmfurM6RFgj9PXjwYHFmBjJOTEzkLxN2Xob8cWDIC/lHBwthw7ErjLIFvAD7gg2FhYXS119/LQ0fPtzGpqjvcf/994s7NS+YI2bC0MzTxQ7MUU+cOFHauXMn9yi/3CAP27Zt43lS+hzU54AMIIvLAcpeK0+XOqBr0DnonpILCspqRz6Xes8992jepD4HBJqUlCTu2Py8/fbbmvmqzxETEyM9+eSTEmuSxN2aH/w28oC8aOWxPgdkcLlA2TfmpbIc0D3oIHTRwoUmHvEd77zzTjp06FCjDVs0KYh6i00C0LQ2J7t27aKpU6dSbm6uSGk4aOYxhYcNCZp7zT0cjLHBxffff68aT24IrPfMfUGb4lbXGGBqYDMN2JxCpRoMmv7+/ftz2xWhvgFX0Ly8PG6PwYBVAiumjY8fhXl6kQ9TQKhuFRNgcV0NFYuwzUqwSnDlypVcWM0B7B/YMlr5B8ERLB8BweTu5c2EZyJTdTUZivKptkLbUJ85cybNnz/fvl3kYGDvP/HEE6reuIVAT2+KYDa/j5s7ubMywNaHZcY6yq02iCtswRQk+g7N1Q9ApYDNa+0tbQ4ICSWPkDAemYXYM5gMlVRTVkKGYu0tHpF/2N2RkZHkxgxYjFmqlmeAjkEhdEt8V7o+pj31ZJoaYqzlW0rnMYP3VEUp/ZCfRevyMvl+5XJQsBA4a66cHtQAnR8Mc2AZrJLwtvE0YNxE6nXjn6ksqhMZAkLJxF6qmrJiyj+ynzJ3/ERpG77UDJ0yb948eumll5ze0UBt8/zzz9OCBQtEihV0RCfEdKDRCd2ov58/RVRXkjurMqCcaYYKLvsvstMpt0atqDfddBMxu07lUONoIP///ve/PP940eQEhUVQ39G3Ur+b/0ymDr2pLJApqYcnVRbkUFnaacrYvoXStqyjsvNnxDesTJo0ibdkbqtWrZIeeeQRVbe/X5toenvYn6lvWDTf/Qw7nxkLWPXNCthSZAb2Ju9kNdGkw7uIWQ0i1QyzRYh1PHgvzplgrA09cWWzkjhkJE199U2K7NjFLBTWap6rkVjhsg+F0plqqihj62ba+/oTVJFt65EPEwXTh8qpPEeDERLsrYkmUk58QAi9PugGGhXXkQI8vHjNL7FKwViad0H+2H3uVGU5/Sv9NG3JtC1kvFgYAZgyZYpIcQ4YxRkxYoRKf9zdPWjOp2uo88CrycPbhxAQJIXVY8XCesEzmNiLVnTiCO16cS4VHD1o/kAA/XnzzTdhdnm8oNzYq3NQKH008hbqGx5zQRiomt39g8hUYfVUQZCoxIAgmhzdnr7MTedNvwXUSpmZmXzvSGfVQiUlJarxN/xW4tCRNGvlGgpGhDvxBIhDXyO5UbnMvHNjihua2JMC4xIoe8+vVCfbxx1rbVD7YwMJZw1BQUYwJXbs2CFSzET4+tOioTez1iuRvCxeSOy53JiZJbFa1BI8As19BCv8CawS2V1eQulMWeXAnkXr6CxTBX2V2bNnq0yroPAI+ufGvZTQ5yoImTUT5lLwc5dYa8tPOW5Mf/yjYinqqqspa+fPVF1i3YjD0qq5K+2GQGanvTd8HPUMi1HVShCSu59tHB68xZ38/Wl+134UwmwlORAQOl/OAvdXEsaa9fGPP09ePuad8uTEsdbOy8N2bgJhVuKvH0s97nxIpFhBkH7sc+oscG/8hpJZ3QfROKacKlit5O4fwstBjjdT4ufbd6U4jRjvWjJyFChb5f39Q0Jo8r8XUkSHTqyGtJU/IliHKiw+6FgbVkmMeGWJyhzBtpHuqIXkTGP2zojoBLVycthb7BvI/rEtZCjpKPYWDwxWu9Vt2LBB/OVYYO/88MMP4sxK/zF/oQ5XDbGTf6IYT3W6G6she82YS+EJ5p6jBXS+0tJsd3R2JLg3fkNOt5BwmtPTfv7dfPxZftV25VXBYTSRmQNKICOlbegotMq2fd9B1G349SrltNDeW92aSkaJYgaPpM633SNSzEA3bTTNg72ZU7v2Z/aCrB1U4MZqWBxKgljzc1N0O34PObCxmjJsYg9M82FoRkmfUeP45rj2iNbqszFd8AoIoI5TbFcsopm52L6mTQX3tjRlFu5t34P8mSztgs80TA7UomNDI8WZFcjIGUuCUaYoWznuLF89rx9NfqzXbg9Pph5aMYJNdUZqf9MEbrvKsVHQeGZjhnqrmwkbYBMpalAAe6i3b4BKQdEMKNfHOwJ0KrQ8t2O79LQaOQ0Ab3FkH7X/QFZWlvjL8Wjde2Bs+4tWEByNIK7opHZj/QElkJGyA+YIUKZK8w0K2rZHT/avhgbKiLQzsBPEzLOgdrbL0m00LdY/mNugFwXKqVBCCxirwzCIHBjSzqhBq6ur+SHHPzKGPH0w1tlwDYW96qux44nSU8uRFBQUiL+shLOX/FLYC5Hty+zrGH/bdUKooZVycgQoU+WEDjo9oVFxTJYioYF4BgaRb7StV5SNgtZhKEP8fSWgHB1wr2LKxB6g0aMGGortrBEIoNW7bsS7dQHUotmKnnxzIrH/GSrY7zdSZCY4xCgmH2wUNKWsiAqrL+GGhn3L7TRBJyvL+EC+HIxnOWOwGJ5KypWiqO0qilmt1AgBoXkqSzsrzqw4Yz2VBa17nykrvORLoRydAPhGvsbMHmQEWTkalCnKVg7yVZpzaZOowk4Ni2GmsnMp4syMjYJCOf8oyCYPO00IkIy1PDyMEoR93lqYx2thOd27d1dtOOUIULhagk/Zt0v8pY3dEIvMLjq78RtxZgX5dxZa9/427QSfk7YLKgcRJkYO+gD7StUmA2TkjJcMZarMP2rAY79u5h2ei8EnSxRgJKXw5DGbsVDAnsv2bX03eb9KyeRI8P1UKCjukGaopN+YgJTFf/PNN19c4I0EUXW1nJR3ff4RVRbZX/ZaraGfiHxXcPwYnf5+lUgxA4cRraXNjgL3VjqlrEo5QsfYi25PZhKrRCSN+O8FzNZcmaFuASAjR0cgBsifMnAtbP/TrILIO3tKpKjJr9OuIFDxJX34tjgzA910V27m9UdhDr3+xw6q1mhGYCBJBrWDBXruy86n0NEy2zFVOIvAw8VZaAUvPZ90mA5u+JYPNihBALt0ZeXD3i5DUR4dePNFkWAFeXdmBDvcW0s+LxzcSjmVGkNDkD9CFGpUIAeZeXa0Qh2d2BkBXi3A0Vi5lWbWySTaseoD/tJrmSrpRkXBsEtMtdV0YOELVHDMdroTuumuFWN9wdE9tOjYXlagttpuKs3ncRwt4KdwvJh2ij7KUM8YwVnEGW+vBSw1UL7FVWWltH7Rq3Tkp/Xk6W0rJLy98hcYQjRWV9Af775KmTt+FKlm0IRhmlO5rNmR4N5oYZQm0ObMVHrl8HYqV9SUUE6TnRDZOTUGlXcZZOPMpTco26eeekqcWdmxegWtXcBeeCZ6ufwRXt1YZ/tyoTU4smIRHfv4XZFiBbrphmWj2DNSa8uYh7v2p+cG3kB+cFNjTUtdnnm/SZQx4jeeN1TRjKN7aXeJ2vaB+//69eudHgUO04VwSFEuOwHjHv4n3fjAHPIJCGKFZ6KTYrQFHSJJMlJlbjZtf+YBytr9i/kDGQgQBh9TZ3Qw5GC5Bnw3seZIyfWxHei9YWMpLoDlgdmedVnqayyks7KYnvQbHSwxT16gE4P4VPDPdSbomGJzCK1NbBOvvobuXbSCQmNiqMrkTqkGk9kXglV8CA5cZzDQoXdepqMfLDJ/QQZqT4S4dGN2g4SFV3CP06KDfyDd1r4H9fHxpQhPT6pjTf/5qnI6WVFGG/Kz6JRGTHHYVbjnhAkTNKt5RwK7B25ZL7/8suZCrLjuvWng2L9SaVQC+UbFsNZRovK001RwIolS1qyiuir1JAJWKMJLSrnGxllgRgbO1ufPnxcpVgI8veiOzr0pkdX2QwNDqEdgMHm7udvY+h6sU+IWF0OHrx1MS3eb48Kj0kHAs+aQ/3fffcedRrRm9sLbtafeN4whY7f+FBgdS5KHJxmyM6go9SSd3/gVFaar7WYAJxrckysoBnMRjuT1118XH6vxZ7WOv5cPH2srZc0J5t/tgZvDgdgZvXctMGf73HPPcSddCEwLL18/8hCD2LWslrE3eQC7GW5ezgovbQ846M6dO/eiM1ft/QJoelxHeii+C5/aRM/do7qGpMEDiO6eRJ6JHXkYQwBPLGcrpwWsOoXs7VVywIO9aN6BQSS5e5CpqoJqNCoGC08//TQPgcOXTUNBAVNS6cUXX2zSmhJ/f39p2bJl4o7Nz8yZM3ketPJWnwNrgb766iubNTHNyZo1a6TY2FjNvFmOIZEx0ulhYyXT9ZOk6lnPSsa9B8S3Lz+ff/55k+QP3fvXv/5ls+HEBQUFBoNBWrlypTRixAjNG1zsYMY+39j0chWuBbwgAwYMkFjtrZlPrQPb9DCDXPr111/FXS4fu3fv5nlBnrTyelWv3tKJn7dKprwC8Y2WA8oeOgBd0Mr7xQ7oHHQPOijHRkEtpKamwi7V3FJGfrBenDRmzBjpww8/5PsDXW7lBLW1tXxl4MKFC6Wrr75aM9/yg9nJErM3pdzcXHGHyw/ygjwpN4nFtt6PP/64VFlZKa5seUAHoAvQCegGdET+DMoDOgZdg85pwW1Q0fTbgGT2YzxSBHqz2EYGi6Ng2yCMCSt83olAL9EZA/FNBflHzx4eN3DKxhYx6DEjr6wZpZEjR9KQIUP4wqyWmH8A+WNBI2SPjhTkjaEXZ68zchTIP1Z5ooe/Z88ePuKCMoGdD9lj9CI+Pp7L3569bFdBXbhoCbTMqsOFC4FLQV20aFwK6qJF41JQFy0al4K6aNG4FNRFi8aloC5aMET/H6n21D2v7d4WAAAAAElFTkSuQmCC;" vertex="1" parent="1">
          <mxGeometry x="609.21" y="190" width="65.03" height="60" as="geometry" />
        </mxCell>
        <mxCell id="ehCbc-gGsFOHaVZKTLyM-23" value="&lt;font&gt;&lt;b&gt;Decision Tree&lt;/b&gt;&lt;/font&gt;" style="text;html=1;align=center;verticalAlign=middle;resizable=0;points=[];autosize=1;strokeColor=none;fillColor=none;" vertex="1" parent="1">
          <mxGeometry x="592.57" y="240" width="100" height="30" as="geometry" />
        </mxCell>
        <mxCell id="ehCbc-gGsFOHaVZKTLyM-24" value="" style="shape=image;verticalLabelPosition=bottom;labelBackgroundColor=default;verticalAlign=top;aspect=fixed;imageAspect=0;image=data:image/png,iVBORw0KGgoAAAANSUhEUgAAAJcAAACQCAYAAAAFmvnBAAAAAXNSR0IArs4c6QAAAARnQU1BAACxjwv8YQUAAAAJcEhZcwAADsMAAA7DAcdvqGQAAEtuSURBVHhe7X0JnCVVdfepevX21+tMzwww7ExETAxG44q4BhWisokmip8aAQ3G8H0aDSoJUdSfn0bzBfJDRWNCIi5RXDBGQBYFUVBUNhFkZ5hhhple315V737//3nvPKrfvOluBppuhv73nKnt1j3nnnvuuedW3brPc4CsYAWLAL+zXcEKHnOsGNcKFg0rxrWCRcOKca1g0bBiXCtYNKwY1woWDcv2UUQUReL7vlIvdvenJ57nSRzHWnbus7zcPtGwLI2rVqtJPp/vHImEYajKTaVSevxEVPQjQavV6jYqVk+j0ZBMJtO3oS1nLPuHqM1mUxX7ZALLzIZkjShpVPRo1siWO5alcZkCKZopmN0kPVgQBJJOp/Xc7o5k+blPHbD8TxTPvaw9F42MeKK01McKSaOyLjLZVT5RsKylpVGRqFhDpVLp7O2+YIxloLcizMDq9boePxGwbD1XuVyWXC6n3QC7Q4ppsdcydraPCZLdXjLGotFls1ndfyJgWRoXvdPpp58u559/vu6b56KhMdh9onUPjxQsLw2MVcP4ksc0sv3220+OOOII+dznPtdJucxB43q8EYGgLBc2mnrcbMWuxZ0odh9+39+6DGJ5SYMCcX4m61LiOwzEXSGXd+jIEZDs5oRq8agDlF+4RZlpaxjGOPgtlwpy7jMfOtONu6qrOegQCp1stVy1XsN+qDpdDlgSz1VvNiSXyUq9WpNcIa/ajOJIPvC+v5Xzzv2suFpDml5a6sWcjG44QAqrRmTb+HZpIf7Io6v0G+04ZHeF5+CpfU/Q5NSq0hw5h7HMbBuX8KFtcG2R7Oln5e0feY988P+8TzIxdJlLoT0iThXqJtB8lhpLYlxUWhxGGkORPbuA+x/YKAcffLBUywjYi2Pygs9/WLzjny+3Tz4kI1MtOcAraboHw2lpFZ84cceuIBukJWzF0owQa/IYekrB3qrTMzK1fUI2vuYdkpuoSN2D8SFNvK0s4ZphNa5mVJd8kNN8lhpLFHO1EKTHaJUiGSqy0ZS3vO2tcsFXL8CJrDz94q9IYWxEJus1ieGlhqCseqUqVRdJce0q8aaqnXx2T/jsG6GbCLEW4y3GmDnoKZOCR0J1jd19p3z3z94l+WJGTnjlkfJv539dIox1Iowkg1wafmt5PLpZGuOC52rGofgI0KmIVr0pQR7dI3RS3HdPGf3pV8XfPClDE00p4WSU9qWWcnD47CJwTzPsZLR7gqNCBvKpNIIuVA+DeRpc2kf0CUNbs/eAfP+oUyS69TeSRZdZn4kkht2lYlQl9LRcnjAtkXFFUuX7slyezVMCL5B8Ft7JD+WgFx8mz/jiOXLHXXdI7KPV5jJw9Yi10hlJR55ElYZUS0+MJ9S7Co/RPKqF3msWWq49clyVlnvffpaE1/8KthRJVAul3IykhDhV+08Y4XLA0pg4lJTPIQht1tuPGWDeITyZwMCmw7rcUN0mDSh2baogpVoktWZVJrNOJhBKlNNOMtHuTUU/LdkWPFUTDa8RSyZ0kos9ycLo8qm0rBpdi2MYUA2GVm/Bo2NwzWeAnUHAcsHSGBcC8wZGjJlMrv1gFAZmjbQFBe3tD0gjnZI78pFszXsy5Odl7UQshckmRpcl3A/F7sZUQawZwUh8dItBFvpJ+Rrgh/DgNKRwsiqlEIYGreEOwJN2oADD6jxwXQ5YGuPyobRMUTItsIdhNQO0TLh0r9yUEN3BTNCUDIxsqOZUiTEUVs5AwWkYYVgTNOrdmvhEniNje3jKLpKxVgrkw+tHmZbMZGKpQX18+8oHD/oqH4Ok5WNaS2VcQOygFnaJUCZji6ZrD7v1uRfjjSUIBZ8osNdBHBARfD2m6DzNXy5YGuNC+Tn6YffIDcIJGFZ7vwn3TwUlDczeta0YXRvwaxJhxOxDFegxHwbUtGJcNC4PrNH1tQ/5Dg2xBYyIs1BXMDccG18USwSPRS/Wnd+GLpTvX5cLlsa42jbVBb2Runa0xCJGjPRURivog7glhTzDeQTyiLMMLcZnnf3lgCUzrlZiyEwTQvgqKRjZQDavwWvSsJLd44rBoSuE1+coOw0vxQqMbc7XMvJaxJJ1i2okHaPJYKSY97M66pncvFVdfa+BGVaMC5UG3UyOT2h8lcsmPtzANkbMulywJMZF902XDkuRZmfW5R5r1+owevK236myksaVDORXjKvtuRqbNqkh7bHHHuJBV3wORiynAc+SGJeDi6Ih1eoI3r2UIJSX0/7+b6UqkQTVUH7yic/IgatXSbOYlXBkSILsoKTqnqxbtaeU40hiPifLF5W8TG7WvqSzksoVdNtKpcELuWOfxOs+ul2m5bUIvHkuXSh17zHKDQzpvSRe531Mw3u55f1Mx32m4bHlz3y5tfPcGh/uW168ZnnyPPeZZwZxZ4uPG0rIazAvE6mWVLK+5NeultX77S31k88Qmd4qLhXJWf/3/6K1epJl7IXa5Kuj5YIlebdo3yXaZ2N8UMiXtaUSlA9xMpKX/PP+UPZ9+/FSOXCthOlAhjCadLWq5LEfQ4EcANhcc5v+zHzo2ej12LWSmB/P68vfznnOQ+c9POb55Dx1Ersb5l8sotJxf7Va1VEY72Va7vM803LLcxyx8Zhl4lRk5sHzPEcYf8rHvFl+Xuf99viA92m5AidZNCCf710bsYxlilKKPPnttb+UW37wQ5FrfiZ+Li+tcg29AN9udDw8Nnyyn+ZIfBlgiabc9Mf09LQMDQ1JCfv8DCGdG5CoHsqgX5BKq4JzqIQCWmb14bgi6AzDWVGsOFaydbVddAxOK7FTXHYlWvRE8X0YD9MwLYl58jrP6xRr5Mt98rEg+pFC+VIO5DFLlsQ5+C8gJQ1Bo9AEHWJy8BcH7bAofJEdwWh5DqiHDUln4E31aBmAxvV4A63YoYU6eBA9npqa0q3hWS9/jhM4DSl6Ou0XfsmNpnJuIEjrMeuCoqdSnhL3k5ROp1w2m1ZCfe1wneeDwNdrzCuTCVwul+nmS7L7kud4n+0b8V7bZ56lUkFlMhmSaZPpkvvJMvA+mk8GWzjo9rRukJfBPR2ZjvzTo1RPcRg5nR8Omp6c0l1OIV8uWHLPRfYWpPNjDHYNAVokfLtceMn/6CyJXLYg1fFxGcqgK2m0u53k51fMg18KWZfH69wfGBiQVatWqRe65ZZb5MILL5TLLrtMHnpoe+fOHQHjgBztyYj77ruPbNiwQS699DI9Pvro18i1114rW7duRTdHudvOhk4HBqLnkhgbWyUve9nL5JhjjpFDDz1UZeNXTfTQ9JDct27cPC/TuNUD0qzVdWrWUK4oPuKp+sS0HLzvAXLoC14okZ94WIp7aui280XEfu0z6uSWA5bMuMyQCCqVxmBdkn6Z2ELMw/lJ6BdaUJ7PSoehBQh2081Q0wad+1uIU5iHR4UjtuG1m266Sb73ve/JRRddJL/+9a91jj4RpGZ/scxYiM/c1q5ZK4cffrgcdthhcsIJJ8jw8DC65ZzcevPN8sIXvlAN4Y477pD1++yjc/m3bNkiP/rRj+TLX/6ybhlHMo7T2R6ID5thU1KdeVUc1XH/6U9/uhx11FFy5JFHyiGHHCIlhACEo2Gh3Ci8HksDVQJjZYDuGFNlEBviNKmJcpQQj5VnZqSExqPoFMf0t2xA41oKwPN09tqwLhIBMQ6ww8u1GFsQ3D+7UQV8Py9V0QFwC8/m/vvyS907/ve73cHPeLqTNLoPdie9lEX3lYEvwL5fzLkXHvEy9y//ep6744H7XM3Fmh+3zNOI5y7+8RXdPG6563ezrjN9HQLZ8Q233+rO+eLn3auOfa0bWjf2MG9SR670YLEtR0eW9RsOcCf/9bvcJVddqWVhPvygx9VQ0CrLjn1SA8f62ZRzMHTtAvm1T6VWdWHc7gxhXLpdLlgy4yLMwNSgADOwGqgMjVoFVkC1jmav+P7F7r2n/bX7g6cerLFJktCT6hYjyu65oWLBvepPXu4+9y/nuDtv+y2yYJyCGiJxP3lMCiELto1KWbc3/eqX3bzuvfMOF6Iy9fOtTjpS3Kgr2TGp1YT02JLnZ8852x3z6j91pRw/k3tYXlLG95TsmGV46h/9oTvp3ae6H/30J9AB4lOUvN5qNyYaMzWRJJoUDQtda/tgmWDRjKvraYCrrroKgbHv3vve9+oxuhDdGqiUZHpiZmbG/exnP3NnnHGGQ7yi99PRcov4SvcRdyhxn1QsFt2LXvQid84557hf/vKX3ZZMI+YgYldw9dVXI+BOKZ9bb721XYEA87T8ubUGshCgy3bnnnuue/nLX+7y+XxXfox0MZDYcYCC8EF18KEPfcghZtQ8yJNlojy9ZTMZidNOO03z/NWvftVtvI8XFsW4zHhYASzo0NBQ1zjMiKgcxF26T1x33XXuAx/4gHvmM5+pRpI0GhKPLQ8S91/ykpe4T37yk+7mm2/WPEzJyYq2SjD0GnY/UEarNDYMxFLK85577tHrCMh1yzTJiiTM4OYD70uGBr/5zW/cxz72MYcBgJatt+H0EhsYdfWRj3zE3XDDDd28KLPJwC3Tmvx27vHConeLz3nOc7oK+fGPf6zn6A0++tGPumc84xnaKu06lUkvkTzmlq0bgbb71Kc+pd6MsEqlskxhvR6KxzS05LmF4Pbbb3eDg4Pu4IMPdps2bVIZKNeNN97YlY2NgUgaF73tQtDrpXtBeSk7+Z111lnuuc99rspjXi2po6SnYyN+9rOf7c4888yufJdccoleKxQK7lnPepaee7ywKMZllfmlL32p24WRVq9e3d03BfUaFOmII47QFsmuja6c+XFrFcnK6dcNJY2s97p5o4XgE5/4xCx5ksRKYpkuv/xyV60i/gKS+T5Sz8B7F9oItm/frl7qwx/+sHo461L76ZBEj7Vq1apZ5zC67eS2+FjUmMsKz4KzoAMDA3ps3RvP03v93d/9nbv22mtVyQS3vJ/K7q2s3oq0dHY8F3h9oQa2YcMGlc+8J+MhEvff8pa3dHmxa6cMBM/NZyAE09GYWM6kzNxnI2KeJifPJdMYyJPEtGyE9HD0TJSZYQXlJFmXyPOsD3q6xwuLYlwsNJXHQpmBsVAHHnigBrK/+MUv3Pj4eCd1G6bAfh6pF4ybrEINPGcBKyuGlcxtr0dYSOUbXvnKV3ZltwZx7LHHdq62DcuwkFjO0GssJmcveN6MLIne+3mveXjCDI4DGxqcGRiJRvZ4YdE8F5Vy2223aYGscDS0n/70p50U7TRUSm8LToJpTGlMkzSqforfGZL5zAeraPI68cQTuxXz4he/WM8bX1ZiMk/Kt7Ny9IL3MX9Lzy3zJSX3k2B6a0BMYx4+ieQ9jE+T+mfcdsstt3SuLj4WNeaiAtiiTzjhhG4FkfpVsp0z5Rq4nzwmepXO63a/Kdsqz8B7+vGdD7yPAwk+RuG+yZeUgfkm5V8okvIk80ieJ/qVvzdN8pzJlww/jjvuuB3yWWzsknHBf7gwbrYf3oGqNXiezr6Kb0+TWbfcgi797v+4nATuuCNf2z23M0oahXU9VmlqSI68EY/xGNRoosI7+zH/68lvB2L2Cdl2oB6w0pJGE7VYXpzjw1IcGzXD9nHfPJPUAeuaRJsIcW+PvXSNwWJRgnLA34MQs7X4aBkDFRB1AgnaRB4o37Gveo0rpXLuu1+7UM/FZeTDa8jW1kYz4TsbV+cbkQ7I33gny79Q7NK7Rb7vgsL1XRaRyaWlXJmWUpGTZbhgCP/HthVJ2k/rxJEU/sJWKIEfiM0/2hmC9ieeXaCA+t4OsY/uZzNZnfJC0XXKjdcStFVN6yPN/JNh5uPffikMI9cpPFBs90UxuiVdW4wvjAmdhhN4uN5+p+cEupk3f1xvN+z2O8Ue1Gqz53tRBgLdte436rHkcgH0r9noLBz2CWGz/Xqy7pclG2QFZth+b4s/gvrncc4LVH++n+pO92F9ahlxfWqqolOfCMoAD6g0MzOjkwEWil17cW3TqfiMDooNw6qkM6iEGKUjUkXdwAb1uzoyKJdrMsCZlbg3aJd150CBWLGmYBY6WcFd/gTrxuNH7lQQjDeFtNJ+ob2raHUmMRrYiNQQoHgqmfxbzZYaFctP/o1mHWlQ6dncvPyDdptso8cO+d0KJ5MaP1Y6urXubA+e41yuJKIQeVI1nbyijr2yevj1XjNsL8WUy7b1x/Eva53fJXNeoc4t7Jxj9vrCHAc0ZptcoI26s79Q7JJxcc2QKALjXAYytZXQQLPx0SJ8tGC/0f4C2GOLg1Gw5KwwFjDILWBhMlMO0us9vL9TwVQ0+XOpKvRK4NtROiud94C40MuC0Ftyq+gOf1OoeTCD8Sc4+4FyZTqKj5CnPrCYA/xkXysRMO3zmPskNkhWLA2LDYwgD+oZMSzOBfAikzpTlt4HV5DCR9kpODxRlet0Qc+4J0IZujrHcYx8o3RWjZHG51CYdJDWHNq9Eb1zteuhOAu3UCio/rVhPQLsmnGBolZTu7hGkx9mQtiOa6YtZdM1nQbjs0tB4ciC01cgvd7f9uNzIa9KZGE59ZnTXbi1Sm7nYhb0cIE5q4bKyWXm+7B2PiVld+gCzNBZFpaLa8ugGeFKIq+OcQT+3Py5zlgyNEDOnbzaiJte13Ny7hfnqtmxyoGkbXOKoacqjA2VjzNcliqbLUpGau1pPB1PH8LrEWlrAB7zYrVHuA/1hz8aKIlypFB+0zWNnEZlDfwRGRiN65GCIeT1N/7CbTjkQJeC80pn+ArCdx7arCdcFBdt1yhb6G6D0tDsazuhPffcU9/pJYHC6paPCTAucv/4z59ye+23B9K39eJ5KRd4uR359yMv+zD5udmEc4cffnj36Tv5Qqm6b4OLWlR37z39Pa44TF7gTRk65c8GCyijZJE253yPzwD5+mv28Zvf/OYdXiWhoelUG+LiK37uDtzwDKRNu2Key+ORN0eG0H9QdJIDGS/TfwZ583zAmRlFpCdP1hflYUeZdZnMqNtv3z/Ql9wst+k8qYPoEQT2u2Rc37voBxBGdNXlNBSL9uAG0+IK2CKkd4GkXMZLa6FJ+SDX3U+jILw+F9kT5rPPPlsr1JRKBROv/tNj3PDwIPITN1AQVwwEI9E2/8EO/7mIcnBLWSgntyYfibz5iofv9gw0NuO/4aCnYnjfniaTR+PKQwfkj0hTqZdfL+XAowCeJO7nca4kGd0nkT8fH7Ah9VYqH4sIGlHKz7pihnmJG0H51+Q9rQeS6bmQznfLlPUz3f1B8KOc1Be3zCMLI8t7g5BlRN9KfOc731F+lMG2lOWRGNcudYtpLwfXD8NE1/i8Pz5QRmBZjdqUDCA+COsN9HpNjVcGBwe7M05h/e0uBW5Vg9I58M2r29OQ6YZNPBRKXTNalRz2rBdJs1WRQYQjz/qjp0g+EyN2qEkO1xtVzgjtdL87gUPQQxlMDvJgF0wiz4tvqGl3QH6U27pl4tOf/rS8/z0fwF4oe60ZkIN/by/JoLzSqkuecRlGMTBFTbszhAgLyJv8yJtxJPVCXU1NTcnPb0dciWvPf/7z5Yorruh2iQwVRkZGMChqiIcivui5+8noQF6mtm9FF16iRUoI/gV0i5Sb8ttIm8RycKv1gNjY+bGurI1xouTyg7J565TceOOUVBBaMM4aHx/XuqNOCMpIuSjvQrAg42Lm1td+61vfkmOPPV496fWf3Fv+6CWHS1wdl1QOFVVDG5Ayrs3DvLMAyc5w/wNbZZ9jfi55jG7O+NBH5W8++F4JGihYtiEnHP8WufCb34DkGCHeeJzIBOKbIpRfRlyRhgGkFrAYL6cfs9g0Li09lYcdKg2j3n87+yp563kPSTE7JHff+1sZHFsr2TCSGNcOOGAPue/+7bJXMZRbr3m1DDRQZhi0Q2PzOEguQ5ag5+ujXqAzYtTO6dUeomodjEDHLYw8/UJOTj75Ujnvao4aEK82YPC47LyanP3xf5G/OeN9MC4n911yuOwN+aSEizXIz3AKo/RWcxvU2zbGnYKLHFcr7TgYxQ7riK+GxqRVa8ovf3WTPOfU29T4L7jgAp3yTdCoFuIYkngE0VmbAVsXTScXZGX/9euh2Ia0QJXtE7rvKnWJZxCMz0VT1Tlpr7320uFxoxEpP0WnTAy0u2CLajQlrNXFoVWHlao0QX15Jqg5WZFoEukmKtKaKkuM4+ZEWcLJGXEgLllOVDFqmpyc1GdnNDwUXzZvfhB1k5M18NZFPg+bQT7TdWkiH5mYhvyVvjyT5KZAuCechsy4300zj6pE07y3Kvvvtx4jOPDU2TT0hCqO6gI9s367OcgPaCMMK6YhP3g78K6RP/LtxzNJIcsKfgL+UmkoX7dtu/hoQAftuYc6E9Y1vR6hnq7jXBbgi7pYkHGZtbJrIsMUC4wh+MjoGBRTllQTWof10wF4Idx8vTUneY25yUf3ysKwHOyeFB1JWWgdqxv4MC2KxYMM/EqGsvTjmaQ0sgyakBMi+w0P97T3A4zSPOzn4T0631age0HjSSiU9pxFBQ9mICN5l2vKk2uZSg28se3HM0lWzqDBtNBZ57xf53EswyMDaFzI2/iiuFy/pkkeHrpUbArwoix3XEN9QCUe7vNr8EAOo70Er36UDjF8iHE/ZBAeI9/mNBotRp7DQ4haO6DuaWisfyPrIheCvsZF6zQizLjYhysD7EdULNBEjEVDKGTpYpGO9/gQfA7yvbnJYehshSDPJLS/pzwUqaN7j590wdWloHhEL315JsnTLboO8BIMd7mfAnm6n0Zswk+/aMPtL7QV2i3AY+fSulCw39ENn25Lmp/rIwBkAh/yJnj1JfLFNuUhvE+cDzrbRnMGFUurUxYK/j6GdkvYa6CRcxlx6lqrht1biu8VKOv85Sf5KfSjfOAGYwxyJckivxbiL2nWlI/B6t6QvDYf+qY0K00aGKGFIzMEg1wNUPjJFJSNcQGCSQxZGjAKNnl77LuLRB7kxXrtFgatk8+D1OhIFAuycVGT9jmc4Dlu++Q5i5iUj6f5OJyEe1pcyIOEa+l026BaLcRZMSqSZe7I0WiEEAX3MA08KN8NUB9oFUjPjJGoH89eQkLWbYtuiMf4x7aJwkscNdAtahKAaZEOxLrgay7VfRb9B7xbxPv5GRpk56qMgq5tB149FOoaHZSV93Xuz9LoWN8Px4tsWL3G1Xs8F8Bt52BGrDjtigAzNq5H0L4T44zOaIJdJr22n82oAuYkDHXmItSu8iFb5qugoeGva+wsY28r4jXI1pdngviuU/WqMQ0qDJXEoFkrDdeST+O7/FFG6tWUyzXynYOhIT/+RIqDITJPh4rqx3MWqUmifOStMuMcddg5iyqd5bHb6m+P8PgelWX3OCBg3bAukAA+DLEgvBHu68szQbHqGHnlUFeUAQbpYGSO+aPRmI6trORjdf9I0FM7s8HMk5baZdCuE1U4g0ou6cNVhtMsHFWDa4+GqCz1AkBvgbSbwikdcEK2rjdlHEbvwdOdfHZGmrSdXDXAfTZeDeVwEMJzEPyKuotOA1PDQwuPmzAohAbkbXpRWfgyuA/PJPn4j5LyhY1KzGOONnmM6wSXpVQdA5QPNQFeOIHiq31B79R5oK2E3aPXfgKPumCyuSgHr6c7YMB1JtSJg/QFN91pB2ZURK8tLARU5w4wT0V0Ky+xz0rRM4x1EHMxzmD8ySg4LlfaSpqL0NrmIn7RnEJNs/HaMx40aNzZ6RZRYG74H4/Z+rQmIFT71QjymYNoFDoQUIJnQkV5ts9usBNnKS/WJNHxJHX+lAzVhgqlPrKIt+hRPbg9koQ78usl/lNxVWQccItNCmWn5+UySFq+Dqh+ejQ1epxXv4oE4CoZhiFsiFxCCQbZwsi5l18v6e1VjBCr6B4hM2NVH6SuF/lYfScbza6g711mrYQxsH0anh8XNCatRxWRISqEL61HEZBMSqrE1sOWMQcp252TP0A+MBoEvE10Fk0+O8vWOPAHq4zkPT5Pw/4qKIUvrv2sNNkdoeI9uvx+PBNEL+FYm9hqS6HLInWutzwM03E6dinJFEtSiSdQo6g03JJLFRHnQAd879XiAAAGmWlJEyM/h+BYAsYzO/KcRTotP8QuDIQzFTTWQT6sVMgTewXET0iHfxzGMnUzbqInwwjVZfW4xRgkX5QaHxdwRD3I5+2oBx06Jnj1o6kh8Qt7ixcUEKqxM8atMWTnoAaeWR0IDIovrbllI0s6nIWCtbkD2N/TkBhvJF0jGbFb4ItXrn2WG1iF8kDjaPkzUxjKoiLoADgCmZN6jGkHqiOYR0HjEMbTQkxHs3KIJfCXy6ckRKyTy6QwUoVcHuKGaRg58vW5iFuKo1bkMQe1oEiSi1CZHYpBLfU8NKAh9RB8MtmogGdqAPse+NJRwzMjWSZd0KkuYRPeAkadzQ+isjBiZCX14TmbUnpvE7pr1cEI+9B6m1DO9qxkeFAMlmLkzbRZjO5YDy2UnVEg/VYDOi+tXg3jwACLOuAIkKPWvjwTNDgpYe1uGOxD4ufQINPIMQ0jdRXwKqshsd6TL+53xXvt9A4yoJGxi7CMyZDPPjI4D4eBwnDBDSgnE8jA2GptQew2ZhnKLlB9ss4YV0qZARhXWjKCFqZrcnECYh3HUGwDgS8MMKxE4udL8DBFNXL+QGi/PJPko6tN8fEB4yfOnWE5QbpgLc5VpmrwEhl0P+AE/giVUTbch9uHV6GSIQpUAd2kJY3K9FhhbIQhrEBb12x+O5CfBkvkD/352GJUBIcCwhb/oRxVdVpxNUQZ89KehsX7YFLweuy9gsGiOqEmvIuX4/2IFdk1aqzaw6+XShgApCLJFGCIaIzUJRuX45tHD3l1ukVCeyoU3M49Eg9GbjuARtTLgCATNbQYloUyuHqo756iOlpNVMaooyZFFFQnVM1FDNDmoNyeI8i+CWVNwVhm2irhkpRQea3BxS1pQAQ8Kd/5QZ769DZ4gJrkFsIf6Vsxp6UgHxgrtzHOuZgxTUMyWXrmJmRAfvCQDMUklcc9ItNlpIFq+JjC83ECFe/l4T1bMCwPCRki9uOZINcoI34CT3Rj7MooD9+NRjjfbMyod6KdU8cWoM+Up7U750AnDf7RzIQ+rqhVppGI3TS8PUeD7CL78ExSYxKyRmiMrRGJKzDwOI+RZgnFyqJ+YbSoexIdSfc53y6gr3HRgJKZ0tgM9GZp+HE+FmnWqBg2PFQAlOKz30cNxFTcHBRRkXMQXJd6bwlCGR7Jiq6XpbYeSLE4qD3W6KqijE8gFipBSTCKVBZnh2CAtP0+PJOEWuAYRJ0Ea4pLFKV0CybYb0pFXzjQuDI5zm5FOlQwtxGKDKemXTMnKs5MbkeZ0XXBSD3kEUX1vjyT5MH7pKEz6k2jc8ZgkCkF3pkcZ9KCTOWdLScG2iOSIoyfXpJvSYZGR9pCwbj9Yg7lYhffn68RY7dMDl0/wg4+9kiXIEcKum9C79A/65sDKXs7wmOGSMQjMba+xmWgxyLROxF808438yFGNA3wzQ6ukTo/T0TXwvjATU6owaW4dOIc5M9DEqDgkIwPk+vRDBTb5k8Lq/H9Jfa2T1RkcGiNRNumdDZAOosAu1KTcnV+/iGVhe6L/rgdxzj9QSv9ZVaUN51f0/FA8FTVCY354xqsDeBzSDqpIFtEzDkihUHICv4p6giVH7DL7cMzSRyocKohnzYwrIgQnMO0UA4UGIUuDK6FV6P1kyGsC1suPsgAm3qZqcE41+2NgR3ugf417kVrDGfg9ZBpP55JEg8FwECkFcHr+VMo3CaplO+WVhqDDBgoQcMyg6Kzseduj7pbtACerjFpqcx47dq1aNkIOgcKqOC65Nbug4qA98gPSB3BdWavA1HO/JzkeXPTxHa46OyYYFQNCeFR2Hy1BTsE9Ki8LMSm8mUAdrge3dIoDAaxUVCU0ti+fXkmKcgOK6Uyw+AzAoMehl0MIW5BjOeX5P6NiD2CVRo+tddcRXBd6HgNzsBA+VnP27fNoLfEoEa4qiHKz7kq6YG+PJPkw2sEmUHYUQlyDEqQH9Zzvl+QRpSSux/A4ChAd8/HDJxwD+OqNStw0oOoBATv/pCMb5yS7Op9MUqGrkb3EFm9p8SoB38Q8vThmaSQcWZn5WkZGdZRZ2H13qi7Q+WBbUWtc9rAPvvsow4lCTO4haDvlBueomFZ7GX9L13l5s2bZU8YEIffryg25GOffIEM5NAVxE6GEJxOlFsIxPva7ILxnk/+TL5xy35Q7ib5xXVXyx8+81AJIoycgoac88/nyWmnnQYhc3LykRX5xzccLeP1+6SRrshodm/ZNrVd8nnzdP2BqEfjGL7WsXKG9NI4yVb6ur/4ufzK7QVjraDH24jGhNA+DiRGXPO6E14p3/rWT2UArf4z7yvKi59yMEzNx0B5jWzecqesG1uDuLDdnewMfotfKPHJFfwV+GUQmVOGcrMuU82avOavbpWthT3hPrbCK2H0RuvymvLLa34rz33xi+A5B+TYQ7fIR9/1Ytgg8uBgB9frXk7y3rRwyuFcaHrojfwBqZYRIw+goaAsfnZUto6X5CMfvkh+sAXVi7q+6667dIYK7cHoEcVguOERg18e81YSmOkWblO3qCzdopK6adCtds/Z9fmI6fbee+8Ox4dnYnJrvGyRE1syIEm8ZrKR7B6eY95zkd33wQ9+cNZ0YzQw3VoaKyNiId3y2M4ZP6OkjMYneT1Jdu8PfvADnf1qxA+M991331l5k1+ynEbJ/HtlobzJ6715cJ+rExEwet0S3Ld6WAh2ybio5De+8Y1dAWHlXQVzn1tTpk1ZThrYfMR8uUAJwcLYJ+w2r52FHBsbm5UvFcglhHhvqYTmjHOk5H5SofPRu9/97q4xVTpz5wnK87vf/a6bjqvecNtr4FZZtvhKPwPYGVHOL3zhC11+SVAmLu00Ojo66x7THflYOakT429pbN+Ord6MWB4uSkegS+zy577pY6HYpWnOnNNlI5cbb7xR7rvvPl2gllnxGgql+4zRVq9eLW9/+9t1evKaNWvk8ssvlwcffFDv3Rm4AjIKpXkYHwMHFBxg8Bonz11//fXalaHgyo/73HKKNRSt26c97Wnq5o8++mg544wzZIKjzDnABXYNnJzIz7tYJos/TKb7779fuw4rNx86cp+yoIKV5/bt2+U1r3mNpv/IRz6ii+12J0B2wLRJet7znqdlYF7kqx/i5nLadRIs47Zt25Q/5WM6XqPOuDX5GB/DAym/Aw44QBcfZtmZ3srCvHgf+bJ+2A2SJ8vCcrAMLJvpnPlTrwsCbtgl0IrpqulFDL2tzI65Ah5ZwQC7HznMh2QrMT5sPUl+hHm1ZHrC7uF58ib95V/+pcq0EDI5k/KaB+M55tsrD++zNCYPr9NDkP9//dd/qby8L0nGz2S2PJP58ZrtEzxmXuTD/SR4P/MlYDDKHw1Mj2EoujW+Bh4ny0IwrX0cw7R270Kxy5E3WwetHgJ1zrSHr7RytjTCLJznmNY82nzEfKz1cZ/38uMC3k8wDZSh+8af6dlCeUzvBmVoa+R5eh6C1yjTQog8CdsSzIe87Zx5FZOFjwr4YQN5ky/Pk5ifXacH4H1JMn4kysx0MJiuLASvMW+WzWRgXlYP5EleVm7mS6/GLcG09oEGYXwNPKZ+WB6rP+bL52v6+Al5895kfc+HXTIuFsAMISkglc9C0IVTIBoVjYPnTHCChZ+LTAG81/bppqlwS8N9gjy5T2p/gewrf7uPoCy8x4xgIaCsLCfB+yiL8bbKZb7WZXLfZOQ1gvdQP9ZQeI3pemG6NLAcvI/8rUKpSx6Tn8nA/KyyKQP5cMtGRlAefsHD9DzHeiBMD8yD5TSZyJO6s/rjfQR58hzTWtkWgl0yLhbAGLPASWumQs0oWBhuLa3tmzJ3RlapTM/WZmDhWUAqmoW1dNxS0QSvk4ddsy+WmS+VtBADYx68h+UkeC9lSYKyMD+C8tg+K4UVQJ2YkejDT4Dxp6VLgvKajgjmR5ieSdQlj03Xdp6y9YJ8CeqABkZ56PVMR2YgvJ/lpEzMh9epHxLPUXbWJcFyMW2yrufDLhkXQWFIpgBjytZjRmQVmRSIBTPF7IyYJwvF/E1RzIPKYgGpaOZtlW9GbNcJu8aAnsZCRTFv8yJzwfKgDFS4GZYZsVVoslzcJ/H7RqazCqShUBYes6HYvXPBPAyR9CAE8zG+3Ge5CKsPu8Z98iVRV8zDysV7WA6Wz9LzOs9TPyQzcCs7jS1ZroWg72iRmVjlkDkZWwGZ3OOvZvllueHOllx5xX9Juj4GiScxtEpLaiiUWth250zLUeQHP/hBuRejqqHRUfmnf/qnWd6oH170zBfKU/54H+zBUBvgiwI1+ZYWyFAXHgoeN+Taq++Vq37xIwkGYXA5VN72SRmGAmuu3aKpJBrXSSedJHV0C8877DA59dRTZdv2TZpXskx8x0bFkY7589fLmtIorkxKHI5KkCbTGWnVhiRG/aTr8ESZgnzj0gvlLoyUc3z6UhsUl9oqrr6f+MGklp865M+4fOj004XrS3DUePzxx8v28c1auaxMpqG+Sbl0Rj3N69/4Flg2WPDpPF+mp/LS5Av1AI014m82NuSWn90pV17zQ3Gri4itQinFqDPOBSvCyKvtfMfGxuTEE0/UvEeh+0996lNqrNVoUkq5EX2j0AoxuqT9BOiBoIcXv+zl8gcHPYVq6cpoSNrFggDF7gBk2tlrAwY2a2TBn0/ZsO+BLh2sQfDBkVjaefCsAnsS9EADfqb7aXl7ehufp7c/Nx9MZbvXdkaDXtGlCin9xYhWHXzxj2OfifqMi2s1d8cDG52PsUEulXfFLGoWtkQ5YCoui21RAs2HPIfT+W6+BUl19tNKiMwgX1a37eM0jmkpvjvumDe1CwqNhw0I0JqGYihK6H562XdcRvLgj3ru8BqQEu5v8zH+pNX5Ad2St+nA+JF6+Zd0rQtxp7//LNdqstRNV5nBCBJ75eoWlaE4NOxWB4PgCXsGwab0s/xh3M9j0znlsH3yN10UIHdbDnEjCf3AbFCmbPfhNTz+rFEl7YK2sFD0Na5ZhtSBGRy36w/5YzR1KCbtq6AlKaqgImMuneosDgJK5TAE72yDfMp5NL7OtbmI6z2kgpwunMH6pWU1Whj6U7Ot0EkWRh2MqDFx/uUQlFuAYkfSI5Cj1M4HcgkMkPvk3T1nW1K6Q0xn50BD/Dk6GXXHHHu8VqayjSbV0O7fdKeTUhb3rNWGRMPOBVx/gj/MwAeXw7N5YD9dCNp8eJ7Uw6/3OJdlRefcv37uiy6OasoXXZirNcbRoAvgv0obcob8kW9Q5BoUWQc/jfxBCV5+1pvF1+qEcnMBGZ9pTYY8F2Mpdh9dJO0A3eSs7UIw57vFJOzcnXfeKQcddKgUvKq8dP+W/OdnT5AhvsvLjUtYnZIgxqgqv1pghd17GPNwn11ODjEUl1WaC2/8++vlO9fMSKMVyWX/fYm89AUvl1q6DPc9IB//+7+Tj3/sk5KP6nLmKevkra99mRSyVWlEM9L0Z5B/Cb1mOwBXt84YC7z5s3GMPQZXrZKw/HB8R/BrJlMDzz39td+VO6dLEgcVnXHQqkD2EuIvycoxr36lXPW9q2BXVTn3H54qrzn8DyWsbZRsEV2mX0G3Ax8UYITMWBHWNr2V6zgMPPwYAvI0mxnUZztONR1RN/xFsiZk3PNVF0Mm1DrcczOekFacZWQgP/np5XLYC/5EBmAvr3+Bk7NPPwW984xMVzbK8Mg6adUfkriE8tbaEz096KA+M6N8GUNRJ9RBOt5Du7hMKS+18gR41GVo7wOksq0p73nPv8rnfq2qkHvvvVfXpmCsxhCDslo9LgR9U5nSCQpBMFP213zSLqWyNNG3n//vJyKmKUtU3SjN238DxUFlVcQQD6HiZvJS3wLFTUOwakkK6b0kF45Ia5svQX1wTvrsOW9DpYIvpPvFjdcg+EAwmmF1iFz1k59LLVXXX5L9qw+8Aga3GfFMRfIocBDDqWUGlaeAWhNQNLYh5Mln1sugv06iB/mFcVWCsCKpZhk0IxlsM3EVBtPgxGb5p4++VkoZxDdo5PdvvFXQ+tGs01KtR3LFD38sk6mqrF2XkaNPeT7iq02S5RThFIL9ig+nhlFWuSDNzRiZofyDsgbGPgS/NqZli1B+8ktFFVRyTTKQI905zntN8G3JX538bHATCVu+1BFrcXJEbaYul112JSqnJQ0Y12f/7S8kV7hb/PAOGYYjDx98APsI/iswHvDxoPPKvRjhgXc8Dj8Yo1GBdzYahVo3SSa1Bbq5TfLBFhla1ZTaxp+D/4Pyjx9/dXfQc+WVV2rDYCNgQ7VGsFDMm9JaNDNla+Brhxzi8XzZl5Emhv0TNUnVM5IZO0S2TUELqfUwshkYRFkKgzCQbEWCfE2kcj8Uw7lRE4gUH5qT8un74KUBBJp33XOn8ue0G9g2diByIwsjKGFbl2wdKcfBB9kWi6ulfMd9kh6AYUAG3SK/KIQiy/e1ZYFc+qWMEoJYfrMXQXGcnUdCcQf8Tbr6C/lv3Qa5EVxzzjon8ulX0WA5tvYgFGmbNCe4ZsMeUt5SRQoE1LV7McCAVwAvCaaVZwTecWOzlj8o1JWnsPGQOE0csrgmZG2hhwrSMjZAbiF0BU+j02AjyRdzMj05Iz4GLpBEKlMocKWBQYYnjS3bJb1qPcoKI5uuSFjHgAW8ivC2Ah0ElAX6CFJTKN926A151lF+HzqM0Pi24FqcER+DlGLQHogRdCwcfNHzWWBPz7dQ9DUuc9dEcrRgw9Q450mZlZsNpZJNyQS8CmdDujUDMlWnUgviqpHUpmAN/ADBy+rXMRIjHfbno1YFo77MCJQgsv++B2vlsno5jy3iSHVVA/ybsl3ulcagj5aclii7RmoYsOZXIz141yer0irjRuSXH8JoFt0Mz7sQ/o/Tk3XKL108vCu2nB2qM0L9lgxpmIJ0qIOx0VVqTNQGp+pUq5xWjP0YFeqNw4hY9ryUhg+AN1wHfa3TbilEuWNsyTNI83lXvl1+nPf5u3fMnF8qsRUxf/1qiccOXRm8MXmgDrJp6EM/LISdlIZ0dMelq3KFcchaF39gGGY4INF4Ht3iKskPPE3SHOmSF2j6/i3Sou6hilRhWJrwbIgVEMYMwaApO6LVgT0lnR+S8ma+820/8uFzMRqSPVoxozKvthD0NS56KTMu6yLtYRqPwyaVj1unHoTXKssonw9ENQk23SVDfojYq4q4K6+zMtHRo9D19gebHMYyP+Y9BxVQGeUm8kd4vp1LJEEHLX4Rgls5v122BzIiq2XES0Gp2yVbgleVbZLPbkI3dwsaMGJtDL31gwsA0TDyaD/x9hA/tNBaHanFh4doCKAIx3GEigwhM4yaP7INU5WpSfCnU2E+iLoKmQBd8JhMPwj/wR9z9+GRsvfL9NT1cJ3w2JW7tAyc258CNRlWMP5jgwVRDg4/4hhyIPZqD0mKetyIoCvwz3frj5E3vYUK1K0LmDz0sFriEAkjeDs+fshOi1fcKs3aDQhT0LA6fAfXwdhRn1xGFJUoGdRL6HC9hTriDF+IU5uEF8Qwu8DlmARlABgj2jMu2gONar5HSL3oa1w0LOtbez2YHuNf7MFN+MOSS43CeGrwZikZlT0xhGmvpcmC6BaFYl6qGBa4k9+cQEOd9rejq2p/6YN6x/9rcKEmEbtBxB1bU5vEr65FZRelwfUNEExLvB6itWdDYBTRzgv8lDcqVp/RUB5WHryE5zD4YPfjQjiyJvTMd6ChNNE11eEbPZQrFewhzVIFMRn0DxOuIa9abbsUV6GCwhJoGHwHECvBO4boclL7tfmyMjtBNHVBmVQOlh/HgX5O72C0bDT8JrGFsjYRX6EbQ57qH1Pjko3zaCSI1RDX8VsO6qbhIXyYglHBGzrInKsUJRNMoFGtQR4lLafWH/UNPXDf6pP8A68EB43jJl8TNUUnV1bIG1tnBgxWiLMI3svejF6M24Wiw3EFK3jssWJcK1g0rBjXChYNK8a1gkXDinGtYNGwYlwrWDSsGNcKFg19jYvPMuyJLJ9r8diec+mzjyL+OZEHuQRyaaPw9xpS2aZE2YrEzQFNNxf4KGUuapS2yhp9nFLij0VIwMct3oR4wudPSFBqSSHOCx8+eZArGw5LDefjFB/ylXjjPGiK54fC372JW1zkvyktP9KlKCP8lf1YxpAqlS7INnenpFhgPv8MYwm5ntFgSypIq89/mnydVRa/NCNx7Sm6jtZ8iAOk8RrCFQaRgziuLwEZdM4L9sLUiKgWY1+ilK/vGYPIk2aLr5PSkkXCxvCYVFP3i1fJilfC3VFF/LgI/eV455zwvEDrkYu9cD0OUssLkb+TSB8Ctp9r2nMubm3/Ub/+Ycb20I2GZft8Sq8PAqtDkpdBWVf6I2k8hMr0Vkttqj1ZLUClIdGcNN/fdHW1pL2CpJBf7PjLG5AjRDWggFk+fJwpyvrUAbDCooTNsr5Ly68OsD+N7KGEPjxnkdZioO/uUn5WUh7fneV0G2DrFffSJ/IRjGkgX5IGX2lRt9BLrsSX4lkZaIwiwToJBvbF+YxUZ7Yj6+2SGar155kgD7wdf7eOHybBaDzKEBTET3F+fFZCl5cSrQvJ+RqwjVhGhrnAnpMxGEf1obIUSnvAMErSmqyiLB4MHPmGaGA9/HqphUxTab6lYLY+HEJLGjUuPlIUXTIKaWhMVu+0B3MyyVmy86F9dx+oESW2BJ+48wcAPG8KrXlaPvMf50n29w8W2RuFXj8mkwUY1oZRcevyj4p+dHUFrTcnUasiq8bgvSClnxlCAT054IC9oJiKbItvkbsnHpT0/uskfchBUs5E4u01IrIWCu6TZ5KitUVprUWldMiBYpyLxgoSrc7LF772E3gIvv4J5GkH/j7fjEDDIvzNyLXr95JMuiE33XWvVDy0/FHcv8eY+OvXib8v7hlyfXkmydt7ROI9BiRaU5R4HRrnugHIUJTmcFqqyOLrF/1YZhrUuK8zIrhoCFdgLpUGqQipuLr84vYbJOKqQnsNi3fgnhLtifyKMLL9+vNMkrcf9LRnSXzW276rpbVmUPK/f6DIHsPyn5f/txoSp9k85SlP6XosvmngtB07Xgj6zudKeiteNkumBXNuVr44qnMci6lxWbsGevdLMjiUbbfeRl787DwCwCPNhfvub0gZ3V4zXYc3GhcvGmZPxtm+csc9v5UNG54uXrxWBtIbZcM+q+BZBqURb5bBAjwRFM/fXJgTXHOTG5AVny+Juew2j+7dVJdalJVMfhAGdSe8MV8bgTk251/4FflfJ7xXvFZdit64PPXAUSlXmvBo6GSmCjJYLEttngrgIm+6LmtHt6pf6LwWNaXRjGTLNhQXwr3i1cfId79zIdii0aqYXEMfHk7WY+93gnYmg/l9ZIqeuxBIupWT6YcmJTfUfie4M0To/uiBytP81Ixf/BSkUm1KDZ50BmWZCB+eYx9FkaaljMnwaEGgcc0FMNEtp7wabrj71+3Zjp1pzbAuHOfaM005TddLz00yN/F1bjE34i746ldc5KZ0iq/Oc3axi+Ka+9uP/Q3nprRl4AzKYD20BZcB3vw1sb48k0R5dTpEgnjM8yRPHAwLZXauFZNxWWeD1mrONSDD4a86SmfJavl1VmcWW+QrIyDI1Y9nkshrDv45/nwd8uE80OnajGs0K67ZqKgM37voUlxbp+XODHCKN+SgLjiLVHKuQLn68UxSAB0FvisMDuCY/AMX5LGf4hTrvC7JcN1111HhCqt7GFfXHhaCOT/np6US9GJMRmvmS1FO28gUU/KGN5wsl172bUmjJc5MNmRgGAF2jG4Csj8aHPaCl8ln/t9Zsvf6vWW6skUGSmshjMjE1BYZHRkT1/Tlul9eI2f8wwfkpt9cJQ9tFhlDlyatQdgFv2iZOy6IELzSL3NaDUVlq7TBBEt8wglvkX/89D+Ia/AbSLgrjxPJ0KUgbQuBeGO6Lldd8xP53+89VTZv3i6rVq2VqcltqpswnEa9cTiwczh0c6Yi6pi6pY75qxjM48Q3v13O+vAZOouCHYj+HnWqHQtxacqpya1y0il/IVf+6GrJZtClIh6Luc4Xf9oG3WYm1+51doZaVJU0PFA6FUitUpXBwWEpVysSoX6POf44Offsf1ZvxeCd8nH6za5gTuOySywUwWPd54ABI4ywmpY0P8Pjco0xKiGYlqjJj0Q1+S6j3uS8McZ1XAQO1Y0gvcVAkzMfWkVlxwViG7VAspzX5EYwatsK57FOGuEUgv65R4ztzg/ZasfInc6WwK5DwF2uPSADBQTMnA3KGRJwU+goIQ8MLYbiGxVJFxCnIRYKshkJyzgeYMEhb4tKmQNJfmzAVgWdLidCwM6cHGIcxpn84QgafrlSloEiuorGlHic78Ymgu4Zox3onnfouBI3soLmAAK5CIYTBEjPNVQpDxeZa0GxtGZ0Qb1g3bObZNxtIdN8WFDMxX5Xp88k0JCtqPM1qg8XlXUaBz9Z0kXVtP3vHPOJBu7IgzMmV2kg3UrVJEQMlgnKKD88I7yTF3B5SHgqZMbFiKnTGoLgVL79s7pzAX5CzYpycEsNUAnUMSXn11yZ7EOI9wo4jwg7w59kQacTw8DdJHgNYqAH74eRHe9v1dFDcwIg2LJa5yu/46rRqa5pK0wnXIq+gbzzVCyDRz4agHAcWPITMI+TzWBEMYyeE1lzPMcJlHCFiIhwFZ5rPv6d8qvXBtG+W/gLAj4YwR+8o9W3xV79PuadD3N6rl0FszRvx1VVOMmf4NfP/I6QYBrrdnuDRBYoec66jkcUTD4G4OiIfDly4tbCAoKfxye/bOb5ZKN8tCA/Qrts7LOLYt7Gf2egjEzH9BzhmWwG5pXM2+qJSJ5/LLAoxkXwYw4WjgZBFiYwK4AFTz4v4TGvUylMa/dQUXb8WFXaQkB5kp6aszL7xR2Uj5XHstAQLU7p9fKPFNSRNbx+xkRe1Ilds/Q8Z3o2nXNrhtZPNl43PFZGZViUGmNBba0BKoJCn3nmmVpAPjthAVkopjNvQKIB8R6C9/Ac05phmaIWG1ZpbCCEfQZP8FGMTfelrDQoloFbyvdoDYtgeU0nzJtlphEnjZnXzAAtvemU6am//fbbT9N+8Ytf7MZL3D5eWBTPxQLSqGhgrKBnPvOZsnHjxu6vvJIlFUWYMRE8R0VRgdxayyNxP5l2sWGtnDJxMTouIHf22Wd3DZ2wbj5ZXvNgiwkaCOUwfVBGykB5qSc7ZwZKfW7YsEFuv/12vfa4gca1WLjooot0WUQUkAbs1q5d211MjEAFdhcwM0ApO/1knOmTaRcblIVLRMJoVP4DDjigK4M9+0Hj0e1jDfKAoXaO2jB99cL0xS3TENxOTU3NWt6SdfH1r39dv6TemZ53pvtdwaJ4LrZexilc/CKJgw46SA477DBdFpLb3/u939PzbGUEWyLFsdbHFkfwvJ17PEB56Bko4zXXXNM5KzI0NKTLIN1xxx0qJypQu3p6EspoXu2xlBWVrfKQn3kmnuOxVR35Jj3qzTffLDfddJNcfPHFcvXVV+tX8owZ7atvelzzfL2yJvX/qIHMFgVsYcwe3Ua35ZDMixmh0O5Vr3qV+4//+A+3adMmvZetKgkes7U9lq1qPrziFa/oypeU2TwxQe9AuYhemR8NzPsQLHMy7149bN682V1wwQXu2GOP7S5CDOPQhXdNbu5bWXjNPNdiY1GMy5T+s5/9bFZhk0uMW6HR8ncwOHafxx13nCrNDM7weBjYN7/5TZUDrbu7nimJq79wSwP70Ic+1EndlsmM7LGAlZEGkOwaETO5L3/5y+51r3udLhluclEe20/KS3re857X3ae+L7vssk5ui49FMS5rFdxSEVaw8847T88/9NBDGo+9+c1vdnvttZcaH5ViLYxkSrJzNLi3vvWtqtzx8fFZHoMV0Gt0PO5tnfMZJhsF09x6661aYaR77723a2ToDt3rX/96lYdlsHuMT6VnQdwk/53tEzxOGidl2LJli/vWt77l/vzP/9ztscceXb0Y0QtxS/1QTspHHb3tbW/ThX0nJiY0L4wUu+mOPvroeXXwWGLRukVTFis+aTQGXk+2Snqo888/35188smqJEtviuG218OtX79eDe773/++Qxyh+VB5ySCbgXGy4nhs3Q63/QyT4DWmfeCBB5QXPey1117budrG5OSkbmkclifDgX758RzTWECelIs/pPCd73zH/dmf/Zk2tlwu111Lvh8hbtL1/akrNjYaouVLPoitdJ+g0TE/3vd4Y9E4UmGGe+65R5V27rnn6nFS+dxPVr6B51h5XOyfrZejHiqcik0qPmm4NAB2Xe9617u01ZsM5JEcZSX5J8EKNyJoDLfddlu320Fwr+d7QY+VzJ+yk4cZXZIf033729/WZcv32Wefruz9vDeJvNkF0vC++tWvuvvvv3+HPAnTYVKX5H/OOedoLEZPy+OdlX0xsCjGZa2YBWUrShaYhduZtzCwsiyPpHfjPfz1is9//vPuDW94g8PITSuAFUKjs4rpbfUYlbpTTz3VXXLJJTo8NzA/kyMpYxI33nij5kHDvfLKK1Uuk4n3mJwEDYfHZpws+w9/+EN3yimnuP3333+WTEY0nqRB0cu86U1v0u6MXTJ5kF+v8RI8R14mQzKNddEmK735zsq4WFj0bpGtxba9hettSTw2pdh9BBVjXVASvJd5shJYGUcccUQ3FqEXoEH0egJ2rbx20EEHuXe+851dgyFYOWYgzJuej17X7t2Z57JKZbDMn3Xh87Dkz8KQH7fmee38yMiIO+qoo9Q7swyGZLdGJHVhOrQwgMZl15O6JJL32X6yMSw2FsW4eh8s2rEphgoxRbDQrJykh7LK4gPXZJBMMA/zDIZepRL0UN/73vfciSeeqLGZdW1GrGgamnk5GgB/TOn973+/u/zyyzu5tPOxe9i10OBYQcz7He94h95j1y0fGnXyHA2cnuukk07SETD10U9mwnTUr5zUFe+zNMk8knqy8zRA218Kz7VoL64JFKj78hoV0n2dwuN+gCL0OtMRfNj39a9/XX/jhufsISAqsO/DP94LBWoavoohcWUWro4HzyfoovTBov3+jYF5U75ekA9f+/ChJGXGQENXZyYPW/GFMhEmTzJf/o7OS1/6Un0Yy4evTAsjEBis5k150aj0ISzvh7F3dcO8eY5E2UgsDx/kHnvssZof5bb0aJD6DtS2lJH5UR7ey3ogyN9mcyw2Fu3dIpVnWyqPiqCikuySFUIyZTI9X7rytx15v10nTGGsmH4wvqZ0S5fkRTAfXrNjA8+zYlgBrIgk7JptDaw4yswtK9IMh+gtM68RlJHgMdPwmOlMftsayJMgX5aNS7DffffdypNprUEyDys/tyST1wz08cKieq75kFSiKQExjuz/jP1lbFKkIWmZTmWlCB1XUzAEbAsteDCvvbrf7gqfMyCBZIOgfgy6BpfAQ0kkV225S9asWierIxgN35dHDVji4r44XyiWxLjMqNhN0IVzn6BLp9uPUpG0aikpHvsnsv/fnCj+QFZG/bS0MjmZyPr6gehuDX4ZBCSNywyM27vPOEfK379UhiuhTKX41ZCTLBzp1vK4rBkaxI07zgFbCiyZ5zIDMzC++trXviYnn3wyWmRexk7/C1n/9hNkUloysW2b7D84KuNbtvNXM2UwXh4tc7FgejHjIszASMU9M3LLuf8p1f/3VWnVZ+S00z8oHz/rLGngNi+sSia9ax9UPNZYEuNiPNIbiBKcNbFp0yYMBNJy5OYfyk1bt8nqLYh/hguybWKbFIZHJYS0rvXI1uZ8osG6QDMubq2auJ0eG5BnpYvy7WccKYWpmpTWrJIt92yUaa8mBeiy/XnH0mNJYy4aFgNSKpPxlilz8LnPkad+5eMSPohWWHYyM4oAtu5kMm7KDAxtrPLkMC4i6b0M1dSArBnNyi9OOV1qV10vjsudNzCAQEzf9CLEZE9y4yJbKpEejPv0ZjS0QqEgtUOfKn9w4acks7Eu2YaT+6JpWYs4K1coileOZJzLc+/G6NctJpFH/5fdryA/fefp0rzkaiSEPtH4Wo261DNcDfvxGxHOhYeDnscRfP5FxdGwks94aGQc/q8NSvosantYl60gr5STeO2gXBc+JDLMT73QMndjCtF2SA39tYyHqek7pSq8UwQvlYfe8i1YVsbX1Xn8fE4KqR2/OVwqLGm3SCPjcxd6MD5M5EhRu8hn/7G85Cufke2/2yLVVVzJpioHTYjcN5aSSj2UUS4Nvjsj9XCb71c9W1N5Ka1OSfnUT0j94h/LNthTBd1igb8qzaA009/jPd5Y0m6RHotxF72WxVykVc9+rux7wZnS3BZK2GovyRB5UF7DkwY/Jl0Sf7t8kItykj6oKLec+D6ZvOIa/Vg6pj4jGFnQlCI0thywZNXE7pDgSNG6RILG1Ur74tB61dhiDL/hzTTI5eo46d073loIQteS8ZkpjVERoEkRsWjYar8RSC+TYJ5YMuNKPuMi2C3aK4uGtHQ5I4JzGvgzPfwAneEF6ckOhwbGn57RBhe3pFKtQJ/tRsdFd5YLlsy47F2YeTC+bOaIkUbHVqjdJrpETlZBhylBxxj5G4xPejDwB9Kd+IDmZA8vXOed5nLAkhiXtrgO2PUltzSynB8gJkXrpLdCWpiaXlNwVZYnOfgzeREaZSHgYncihVxeF0bhIwkui7RcsCTGRe9Ez0RPZR7MDI4jyDRGPvwhJ3ordoNcNyrCdRogje7JjrDRlHUjqyWaqmiEVavXEI5SL8ur4S1Zt0hjsldABKeEHHLIIbo/dd9mCafK6rmCTFpjjBgxGLtJdpFPdhSzOcQTkWy9d6Ma15CuzouqRIPl4Ge5YMm6ResGbd4TRz4veclLdOQYbR2XysSUMKYPclnxszAwjhQZg610izI8OCQ3//oGqW3briuRve644yXkymAcYfcMlJYSS/oQlbDJdzQyGhwfquaavkxnPXnWx0+XNa/7E7k71ZBMqSD+TFWKkZMaV97djWGjZmuEDCOSXn7w3y+QS876tMiME06oLtcbwpXH8+mMxOWapErLQz9L/hCVoGFxliSfeX3hC1+Qd5x0knD13hbjCCjMGxwR10AsBi/mORhjvPjLKC0lqJveaqGOSBqbpivipYqSnqzIF889T950ytt19edGrSoDuYIG9ssCNK6lABQ16wMD2+f5C37wDZcdLvJnCNygpN0QaO/SGl3lGXp7UhCiAD5H7hKPjSRIqS6+8bkvOdeAHqG3sgt1pen20tfLA0viuciSXsu2BpuHjr4Snqopn/vSl+Sb371IHti6SWaqM1LgYrOuJbn48fnAYKlg3SFh1cNukSNr0ptPOF7e+e6/1vOMmmtcnzXVfjbvNbGPQdBywJIaF6FuHqDLp+L0WuRJFDZFChn+ArRE6AoHvEBSnP4LanQeIu6uoGZYKSSopauvAFECrzHO4vLhXFp8BuFCNpvXkZkfxe1HEg+HZ0uKJY25TGkkvv6xp/SOAS2l6jg1NTyc009LAf7g+ZMZsZ/G2BDerTPY97DPH5qnNUblqgQDT+JpzoQaEVjT3ZsXI9g1pjEi9DJZHMCI+JBVmzLSp1NSbcVS4Nr0uzFilJXgV0BoerpvQJOEGWFUiH2E93BSvvjw5uXpaRkYHm4nmn3LkmFJjCvqPH4gOEpUl49j7rNrrEskjVZD0mihVF6rFUqAfUYVLRoen3ntxrC2ZjWTaHtthBwx0lMhAS+GMDU+qvAcGl+or4WWA5bMc61gd4fI/wdCuDwucCnnZgAAAABJRU5ErkJggg==;" vertex="1" parent="1">
          <mxGeometry x="611.3199999999999" y="270" width="62.92" height="60" as="geometry" />
        </mxCell>
        <mxCell id="ehCbc-gGsFOHaVZKTLyM-25" value="&lt;font style=&quot;font-size: 11px;&quot;&gt;&lt;b&gt;XGBoost&lt;/b&gt;&lt;/font&gt;" style="text;html=1;align=center;verticalAlign=middle;resizable=0;points=[];autosize=1;strokeColor=none;fillColor=none;" vertex="1" parent="1">
          <mxGeometry x="605.9300000000001" y="320" width="70" height="30" as="geometry" />
        </mxCell>
        <mxCell id="ehCbc-gGsFOHaVZKTLyM-26" value="" style="endArrow=classic;html=1;rounded=0;" edge="1" parent="1" source="ehCbc-gGsFOHaVZKTLyM-17">
          <mxGeometry width="50" height="50" relative="1" as="geometry">
            <mxPoint x="450" y="280" as="sourcePoint" />
            <mxPoint x="500" y="230" as="targetPoint" />
          </mxGeometry>
        </mxCell>
        <mxCell id="ehCbc-gGsFOHaVZKTLyM-28" value="" style="shape=image;verticalLabelPosition=bottom;labelBackgroundColor=default;verticalAlign=top;aspect=fixed;imageAspect=0;image=data:image/png,iVBORw0KGgoAAAANSUhEUgAAAHwAAACNCAYAAAB10B4CAAAAAXNSR0IArs4c6QAAAARnQU1BAACxjwv8YQUAAAAJcEhZcwAADsMAAA7DAcdvqGQAAFakSURBVHhe7b0JmFxXeSb81r4vvahbalmS25IXGe+7sbENmCQDOEACJGCYQIZsE7I9k5lnkjzzJH/yP9k3QkgyJAxDAiEJS7CNDWYxNl4VwAu2kW3Zsnap96696tb2v+936nZVa7Valox4/q/663vr1l3OOe+3nnvuuYFHOl/q4iVT4KDloRQKhNDuttFqtdBut9HpuNMHAgEyuK2z9N2nwXXR4NfB3zrBAJqhALq8frAbQIinCnW45HqQl9E2/siDurboBnVMF22dguv6MWRHk49w/W73pTfH4L7++sF1ebnpcGU9XDmWb+stydYMJ4t0IV148OInQgYUhSmAFgsubpM7BLpD0Lu9pb5zXdvJ2l/76pgA93fVPnE6XCN/v9DhwBZp/bgBl+Z2Ok5Lpc3iYCC4JHmVWhX1eoP7qXF5gWDQWHSi7SLAu00PgZaHYKdNbe0gwlOHqcVBE4YuOm0BS6AJbrfTtN+SkTDC3FavluwcRyPVw+dB8gXX50E60jEng/zrC4PB8vgsC6pyRCIRxKNxYlFHrV5DMpYwtFes4UdqkJNJtNRYFc8iGQ6j3ajDq9XRpgDqqk0CXW7U4BHYUDSCcCyKFoWiysp6rQbLy+10CSypnesHmaKRKJrNprnWoVwesWgMlXrVhOG4AR+UZELc/xBsX/NPFumqtWYZQcYGsVBYUkaLUkOlQU1OJbFqZK1qi6LXwCKFoUWAY6kEYuE4osEoUtznB508z6M1C5uFlaXVejjMuIptFgrR2vb2e8l0OLPlg33SAadyRgJhmnWaLnIkmkBueBUS2TwKzTZeWJwCv6BCF1ORxYknGLRFMe9VMVstot5sqQK9s/1gUouWrsmPcJKWF+slwydGi1elEqxYw/URSbt9sMW+aT8SnxgxGkeEMUOMV40QQKDQaKGiasRyiOcnMM9fvHgSnUwWdYLN6qLGcL3FdY9RvGL0H2RKUMhNy6nV8uNVxlRahukGn332mRMz6aLlgPY2niwicNVKk4FZCDFqcjI7jGAsgxrN1gKj89luE3Uk0QxmQMOPqWoVVR6Ti61BNj7OMM4lZT/IlEoklwK3RCKOSDhCqxgxbd+9Zw+OOw932t2Xkw4bWpG7fMbxmPRBoRlcFw1+Hfwt1A0hyo8SgCZ9eCceR7Hdxba9e/HIE9/FU89vw0KxyKyAJiwcwKp8FudNrsfF552LjevOwHCIkWqngrBSu6Nc36dBi3Ti1unlpSOVLRQKEVymrIpfIjELWqOMa4TNt5544ngBV+MwBRvQkjYjYQUEAlzLIzWeo75J1X5ujVtsncXolWQ5GNy89J1m3AshnhlCldd6dOsz+NpDD+O727ahzvQwNTzEGtN8U5qjzNfi4SBqhUUC3MEVF12I1736apy7ZhxRWoIQA4KgcnTl7lzvX59rvJ5tWSqSs2D9Ur3SpLL1Gos0uF6jn47H6fK4TWa80fAMlxxdnGL04wZcebcOYBMcxne7PP1IpCZr0cRqqYbuNStZHSRuPZmMW6GDQeb41OKG/BHTjDZ/90JML6JD9M1xfO2++/CVb9yHNiU6SDNWqjUQ5bJFI+MExJXS5efuWtG2h3fcfAN+9MobGNYsIMdfm9488orsi3NI0v8x9kOHQt1WPSVsvTPpjOIIr/fKkhO7IwHuk79t8LcO2+W4AVcni2gQcJ3U70I9GgnSpvo7uTSge0AMghKPM4f0mravOmwEIC9q371oFrOE6YtbHsE3H3gIZQpGMpuzPreax3ycINHCW7eLwFpONPMdD2sSYbzmkvPxxuuvRaRTRqhWoCDU6eOjaDDFi8RSbJgQWqyngLdayQKwjjplmIL4ypFfKdZvAMiXCrjWjjtoEwls/0RmjsnyGVIs+YsjcxSxQ7aFl3EoyIiS+wVpjqjiiNBP8wu3xRlyRfHEtu/h3gcexPT+A0jQTEkgqlWGbbQCOk7y0QdbZRRLBCiY/Ow5cABfve+b2Dl9gGWOo8OgRgITpL+LqDdKAk3262V149FBW57+dNx1GARbtKxhqJGD3w9lXpBXpJu1ZTAUsN4vCYvWA/xBsPALA3LXAx6g31bvuW57FFs13P21r2N2bgFhanY4GkOD/rrJ8rS5R81r9MB2IA+CraV+y46NWafMPQ8/xMqnGOXHEctkUKHrSMQzZvZc7Xhtruh0xryGnfo0p+MHfABsnwSm32eu34/MbHgGSt0u/XyPBVWH2zr8XX6aa8Yypx7dhIw70200yM/v2Ikde/cjkk4jRM2fL5WooWEGcWnm5NyzUvbR6TGvF6BTJlvfOre1aS1iQyPY8sTTeKG0j9vp92nCq3Teij4kaHIhTsvVMyXNpmByk23uicPpSGqaFQHu86D2+oAPBnIHc1dMcAW6A17sTK3+i1v87jGqpLqbtgnsDjXe4/Ue+973qJEx+u08tzHgUgTKfRoKFKndjPhUQivnEuA8qzHXdf7C9CyCyQzq3PTtJ59mAyS5ztghnWHOTqGR0PbANsBVtx7ox91Y34e0YsB9WgLd//jfD8tOS4IEI0A2jekxD7XSBBR4EQD56wCjdOlmMBij2Qae/N5WBOinpYkB+mxGeJYVdOoEm5oeSsgH60eVr8f6buuEW+sUOo9ghxIpPLt9By0HBU1xAxK8liJzBmUUMAe4QHag+3U43ellEVo2xdLH1/QjshqRHOotlzE/TMZ4woB1+gcDDNx0TvpxfsE+Bmo8CSr1Oi0BBYbgK7ALpFKAepiqVQewabcVjUQBNQHgmrbl86jQh1cbTMwKRcx3CtwYRLlb5++K7u0EPIpLFxAYubX+99OR1AzHDbgPnC/t0nb1tulWnNi3AEfkY3wkNImwtE0DF9yn5BXtNujQ0JB1Iqjd5SIkGKFIBF36bzDoCgr4I9ASdrQMAUbmacYBiwQ8F6R7YPllKWL8WJjBhumXuffdtktwvr9B98vtk2+ZfH4F3JIarKdBh2m8lgudDPBW16O+B5FgNE5UmJ83mNYx/aLAocPQrtUk8BQA8xPc5NXdSZadd/A6jPkJdpDCUimWkE0luaWDTCCNOAWn4pXdnmyv/hnc8Ucq7+lGpxhw13DqatGl+40ovXafZtPjdwVYDKDaLXlVhlX0sdwty6DM+vkEMn8Td9WdqzyP0osGfbkJd++82mbkrimT1qozZ+fxut927uQkPFS45vEKAURlvagd2ts/h9asnHYu/3ynL51SwA0LA9qxuzyZ9jZA1kBE5btK2wR2mI2sYUwau5aIhHH+uWfDq1bQIiv4kmIL/EDPvLsLDCwHr2HM81FAwrQMKZ7vVZs28buGbNEyyKSrm5bXVzn8czj4+3w6k9yaWuEUkhpNl5SeOtYtT3kWNaU4xOhY5jtAIOMEQHu1CYh0+9VXXsH/BJeAabBiPEyACGCHPlxBIBTEGXFdtbNuXHWFOpZQZeMxhBp15OMRnLlmHLlQHEn12/N6Xa/ZEzpXFpEfyEnsfhBAP+WA65JL2k0AXAMKHGm5+qoVqavRu0rM+CEQBFjx+rlnnoVzNp6FTCZlJj6ifXU4tTNAIVE65chdp790rLMpX0/yoIvPORerGbFHWQK06EaaLUQ1BMhMuiOTGX4z7gF/upNa4pTSEsBHYDVvhA1vZtoi9Q6iYQlJk343jNfe8BpsWDtBweDP1Er9ohC6y3Xz7fzaJ/+8PdD5W3WRkXkijqsvuwRJpn3q2ukS7AjBjDCX78Grg0k6dgD03vfTmU454NYnzfb0+6ZN66x93TdxSPosy90SoAHEglFi2YLXKuP6tRdjcnQESX6PNhm1a0nA5YvB77rrJv/ufHuLETkDvzaDMnKSmpxqNzBEQ7B+iOmYV0Wc18olsszWYiiXqz1gRRK4HgfUaSNW4vhKkn91LVfCBFx3mnSTvKUeK9Oqk0dqSvngEIMy3Q8380n2gZapz4ZGUGCZ1MOWCmdRrJTRIFDRUJTgdAnPPHY99BB+/T3vRnBuFnmKbFJmv1ZBOhpGt1FGsFWl9rZ4rg5SjRIii9NIlRcwEfDwp//tF/Gnv/qr+NP/9Zv03yE0GbVr5GtdgyKTaXSp5R0WRz36ridfWYMGBbJE1lXrGu6VIuuKtjbr02CerdvUPmuok89SHmEcuK92W9fuViklIeugk0W+NtvyCKTBD+lUCiMYxfbidhu1kSEQStTo4fHbv/sH+LkP/grWDE9iR30GH/rYx/HMzl3IrT0DhUqVuTsQY2AWZZ08CkuzVMTq4SG85uqr8NrLL8N4JIjReBI7du/AJ/7xE/iz3/oTzHRmKPoBAl9Bg7l8LB5FIuY6fxq0GrqTFw6GbXSPAr+T10LHpoPBPpgGf1++7paBB5tfJODOsp9MsEUvBXD1pCUiCZRqJaQTaep8ENOLM8jncviDP/wjvPOd78LmjZdgZ2E/wqksgrQC014Z333mOTzy2GOYptZ3KdGZZALrJsZxzuSZOGvdGVgzMkwRSjJIq2Fmzx5MnjGJp7c9iUceeRjvfe9/RqFcRDwZV88tWnIDBFharjFhCQkQP0Vai2hYGfsrR8cC3Mfy8MCz5TXiZRDoY53wROilAK4Ca4SlBuBpv7nCPEZzI/iTv/xTvPlNb8LFZ1+MOW8Bo9G1eK6wE2tzGzGFEmaKRUxkN6BoA5Nd0hflf0Xheq5MpjnUZUxQoR/XkxmM/FWYL951J85hfn/eeeeZNicoKHo0JxpTj14INa+GENM/xREV+vyoHoA4TehQ0NmiW7pfXmak1K98suilAC4N1zhqf0BkJpjFn/3dn+Hmm1+PyzddhjIWuFcXi9Wq9YkHQjGa3AS9LN0B8+gog68wgVZE4HVqaBIkdcSluD1lIVqYWluxc1TrdWzMT+J9v/4+/MEf/D7qTNkkCHpsKZfNMIZIospzeE0GfdGI9RF0WK7vZ7J7DQM0qL9aX9JwH4RXGvBkMIWF2vxSTHHb7bdj48aNePUlr8buuR0YHckanDVF3DTnVUbdQWpfJBDHXHGBOXrGfK2ewIjQXycCUYv0yyiguFjCSGYMMQpIqVJCJqWBEzXE6UJ+7oM/hz//iz9HLpKn0a+i1qg5380YQhZDAa1inVca8GO5XQVmIh/o5RabsZokwo/OjwbEqaKiV2CalEcsFsMXbrvNxllff8n1qHTK2DiyyUK3qeIssgS71ChYb1ynXoVXXcCZ2VVo07QnWZ88I/ZIu0ngFlFrL9K0a5z6EAWhaQFgKBLCi7tfZLwgvY/jj//4j/Dhv/5rLNJdJOjr47E4qtW6szi0CmrBrjp3vs/JVxR7jowCqqW/Lg7c37i9q0YVK0DSLc6TRS9Fw/WYjEz6Aw88YNL8uhteZ9GySIFcM9BALp5BpVFBoE0QkyPU+CAWqd2tZotam6FZ18DENspVpnS0AKEIwY/L97KewQTT0JZF4SpFqVpCuVLB2lUT2Lrte9iyZQvedMstWJ9bj1lvekljlOak0kkTGKvEK0TH0vCDf/c1fMmHH+8w5RMhAa1PWA8E8kMYUKrrSZGg5YmyNBPpCXz5oS9hcbGA17/+dcjGcgzIZmiq02gzD6aXtWNtBghyWDNA9NilTPw1QBM8yEEte4Xohrmfi2T75H7U/3vvvZdBWhjXX3+9mXMBrrJl41nMl+cQS0S415GbTIpzaLDkSOuD3w9HuuaJ0NHPr7sWp5gUgcuS1Bt1plvTWBUfs46ffDKP0fQo7rz/i9ixY4cFaWtjZ2C6MI2R7Aii9MWVSo1N3b/x4rpx1PlKVkBF6TYW7FwusYmBzxKIgZ4zoqxtIv1/880/iocfegjFQhHlYgXxcBypeArzxXl7bktCdTSS0PrA+uta+uvHIn/flfKx6JQDLm1OMl6W1uhB9RITqSRTIfnRR554BI8/8QR+5t0/a5ryYulFbMptQrFWwIH5KeRSOdNODYCSeVbPnD0lIgtB/+RzW0sCrQGOTgj8O12srgHss7/mrwN1hmy/8T9/A3/yx3+CdCppEbpcRSqRQptlPhb5De/HRgfzsehwxxwPH4tOuUnPBLLYs7AHQ/k8hgMj2L64HcMMpvZPHcBdd96Jn/iJn7SCjzGaLrdLWCwUMDo8QqiCKDMnBlMxgSc9c92yOi+39GqhdQNR2msfbXQ/uv9OQ+2/uQD/m1wCbPKAaq1CkNv4y7/4S/w/v/27tEa0LDol5aUT1BMuR27YwbRoUKF97dZjvEejlwLa0Ujxz5HpFTDp+4v7MTo0YsHZ/vo+rM+vtzTqI4yQBfZoatRmapitzKJULmP18Dh1P4Ei06hUNGk+O8w20QxOdu+aBpxGk0BQq4IM73wOtB0wZDPy6rs3yNWgviA4IXBQuP/qcRtNjFngd+uttzJy/ytmDHH/59OeTrmGK7UJBUP02w0Mx0fw4vSL+NxnP4df/q+/ZJG3mfxIEvvnDjDnHrFj5hbmMT40RtCLiEXiBI/noTp2CKaA9oMzX6udvuqrgjvbbN/1X2Zeft0BqLNr3f7becPhKBYXClg/tI6pYInZwoOYmprBO9/+DlRqZQSivMJRNNzX5EF/Pbiu+p1Mkis8Mr0CGp4Kpe1ZMOXZC415fPKTn8R/+S8/jXK9jGQsiXQkg6mFaZw5cqaZN4GtfvSZwiyiNFdhCowe/9Uz3jZFl4VoNKMEQUMfpe1uqfttTru1j5vOy9duXwJ668aOFFTmslnMVmcQDkZx7TWvZk4ew0MPP7wMuCORABVbmttbH+Rj0eGOOR4+FlHDv3zsWixRT3vsCGqFAihphy0VTDltMdKqWzNt7K1Rs+uIJwg28+b/8/GP4b0/9V5ks8ydI1EUi0Wa8xRyoTymStM2g8FIeBVm2tPW7ZlhlAzm0NJal27JjBNaW9fZ3cfKSNZ+g2yiwYDOPT/mytrTbftdxewyMEvShDfqdW1lDh/lD0F86K8+jHe/9z3I5vX8ma6v89BnKzvgnjzUzmnj6m0Lr8ktNpecXV8nV6TuCyL35jbt55MdTwtjFshIS51ZZXNX8Jv3SHQsoTwE8KMl7mqQRq2KofSQBTWBlsxvGo1KEzuf242nHnsaL2zbjlrdQ5uVG18zjosvuwQXXHwBckM5tDQQISaz6uF3//B38K7//JOYXL8Bi80FxCMxM/OabSnQZaMpV2ZRBGzbzLYzo/LhKof+aeEPSnAN4db9Gmhp+/bWtarzuVRN+bI0QoJKU8jyalxblL+3KVwpu4nSEFwUphBz8Bo+9el/w8/+/AdRo1AEKBQSiWf37MKj39uK3TMz9shTlNZgfHgYF5x9Ns7dsB451idGgFPMLOiMUGxMIx2LYGF+GsMU9Hw4ifnqPIKhCELMWpqdENvHZSAiJ5p96+TKbz+tiAj43b0mcTQI+KC0+IBrKJBXaSARTpHTePCeh3H7v92B/TtnUFmsYmxkNfNlNoXuWBC3mcVZW77xTf8JtxLg8TXD+Md/+Tguu+5SjKzJo8E0aDiTtyBNfdtoUq9YaemKrm4azCCsRdBVYXW2+CAeP6mxZPLVjOr80TWcXwvRfYQ1MINCqelCNNBADzhSQlGqtxi+J/HYU8/inm8+gp/5xV/Gk9uex1/9w8fQTiQQpsuZK1cwOrEWc3OzNsK2NkdXFIvija95DV5/7TUYidM6taoItauIoMnf4ly20eQ2hvYsF1NLCnqXWUI7oFuzzhebaOoun3pAWXGzbCcD8IPBFql3KxVKUqMbbKAw/vyPPoT/uP9bmFy7EXu370c2mWeZNKtCh+0UYRvFUG3WmFotIMBGzAylccNN1+Gq6y7DmZvXI5lLYL5Oc8191mTGMVtjY7HC0vCgKs9rvtyAO18vo6v0To3qzmcazkbtMvXLMUsoM0DU82uRaAbzTMvysQnMwcOjz2zDpz53G3bPTmNk7TqUGVPUWSY99VIplRBL0+LNzCLMKD8VCqCxsIBN6ybwo2/4YVx+3rnIoIVSYS/OzK3mtesolqeRpOtSvwT9B+sapRho1I0rm01JIsC5VaX2XclKydmNARK4hwPblrySV2Pj17r40z/8EL6z5XH61TzmpguY3LAJqUQG6WSWQVYenVYXs9NzNI9tnMGGGR0eRWmhjDu+cCfmZgoYzo2hVKogGk7Qb2cw11hEmsdL41RRXbVfisNtOVE69ArWwMzzFebpgUM9XKjHlMOxDJch7C0s4l+/9GUUGZCtOuscdFneCpW/FaKfDzJ1s0ekIoiMjKPDbAL8PbNmLZ7asQefuusuPLZjO8/N7dTu2XYRBWq7hEqiLCCVIViJTKLF/EWuzNyZ+OAyHz8dArhPg8D7S2lvtejhs5++A/fcfT9yyVFMjK1Ho9zC7NSC8eJ8CfOzi3oaGEPZIeuaLMwVUCvVMZQbptkewkf/5uN48vGtSMSyiLChPJlMg9Q1+pHI/XJiFVZb+iI1eCX5RbGeVWvQl3epbU1qWVljppDGC8Up3PbVb2Cm1cECd9w5NYspuq6hifW0PjFUDjCqp/AHaQGb80XCQ22lAMzWmkgS9Eo0jr/8+Cfw2N5tSMSHUSN+xXqTwpTgdXRhBX+0PiygPsuB1rrLRI7SPC+JXrKGi7rU8B3b9uDzn74d68YnGbRF8OzT2zExvo6mJ4J8dhhnrFnHKDeNJqNpsW6UaACiloF2EDE2SK3k4ff/3z+iUITM/GvA6arYGsxTg1QjXdGuapVz1385NNxvKx/0g8+nb8FgmMGXM69NaTiFvMxftjz+FB749uNo0hfXGbDGVq9BLD+Mqe0vKvjG0KZz0WKQ5xVLGNp4DuIU7jJNPJIpVBn0adaKGs9559fvZdRC1xgZob+WF2csz8xBgFebmsFChVNJxD7YWvrbxCunI2q46GDgpeF3fP5LiHZSqC02sWZkLf3dMHa+sAepeIYAd/DiCzsIom4/prh/CC2a9Fg4RtMdpTtooknRzqVHsOvFfbjjtju5bxsbspM4UDvANCwxUJ3BCpL5d4LCvZx657Nz8p9dhZqmwVAt+mXTcMUL6gRiDPLAtx9Fi2a6qNulmgCoVEB5cR5gwMbABwtT07TtjPLTWSzs2o26hJd+XbM/6+zB8THEhvLY+uJObN21g1vYJuYqGIQRhiaDRgW6Tr8VZ/RAXgL/5aGjmnSf/HUB/vUvf4NmfB1G6IN3PL+baVQca8bXmlnutrvmr7OstPWG2ZRKWvJYJsrhQJT7xxjlN7Fu9XrcdfuXMJFdh73VfTY0KUazZ42/hISjJY0UAC9f3fvtaEv9I9gEVMDLpyrHDiPJTKOEZ7fvxNgZ622qETAwo11mBB82drM3M0hlsNfy6ghlUvTT9OsyXdqH5+1Qe3Vshz5767YXUCTUESR6z8oyuGs2kWDb+OUYZP136/7/ldMhgKt3K8YL65algI6HGDWz8uo5uv32O7BmbALtesd8cpzSrx6PWrWBMDVCaUyRZkxzq2n/CCunmRTaTXon+kI9YKBjk9EU1yPY/vx2TNE3aoSo+tY1WtRVz/8vIsgGt/u/TBJWTAPnkOXilZzL0M2TGAJBBm2tJoJ2IyKELd/5DlPICUzNz7OcdQJJrVXLSfq43mFkr+i+Xa9YWocm01Ite5F17zEZlBj5ax6bh7/1HX4PY665yNOEjUWupoPl6bUDi2t9By9D1Q8BXODqMjYcZmnd7abJ1r1ag9Kqiekp0cxR1e2o2Rs0Fi5Jf+UKyKOWCqcVldj1ytlrKqT55BT94b69exGlFuh6Ko071nGfWBY7oXjl5M7on8Mt/YbVUr1ZTAJdWazuegShjcVSmSZXZeJ2Own/yXELTC5db5pLnQbXB/exY/SNiyZN/6JXcApD0jPxEbaBzYJsWwbJSsazuGW//CujQwAXuBpS5PcFK3K02RfZGI1qzcZlh/kbTQEtFrWAwGi+llaLWq0n/AQWz6P/wsitOzIJ5hd7boyRcCQcwvTUAURCDOh0nGw/r+f7r+WgSxoOKe5x0gC8Aq/Xdq4pHas30J9KTOUQCIXiot321CGyCIaanYjKQDDtJg33dU/TSAB62wS09te+PEZdCUF+dC+hWCraGABRm6Y/RivX7rjhU71i2Zpj10nr+MToUMDVN8yCCnBpuABXIbUuAdCg/Jj5pQ4LTvNtozu7aLYbqMu0MaJ0bJC7k1oVXDX0oKAUSIDXaxUkExpeKIB5JQLubmn6YPeOX9Lu/nlWTq4RB89l/wmMytHSKzakpXZ9AU6LpufVpbXc0SyUddw7q+M+PjiuxFrXNvvNpN4dE6TA6gZQXZMS2GhY9adpL3eUTW7Qq7Ir1QDQS92t2r5yOqzKSJsFrh+sCTgBPjScp2Qu0o9VGVFHuK0Dr1lldMn9KL7NDhundx96CXRj1dkVVJqjyWzNzLERN2xYy+ZlIwdZffpwB7YEYKnmJNdwJ1ZVR67RDq62g0vcbTdZNGeSAwS60/UwMjxEBVC5CVqH1k3j4joUeusNdECoa9QNs3Lrto2/aR+3L4M7HhthrJNgcDrKtE2ja/S8qh57lrUMcak6unq6Nf88UjtX9hNrhcMCLnBFZsb48bX8zDPPRI1aWS4XGVWHkM0ll8BmPRCOqrIHgc3zDEInV6DBCB2azskz12PVqlGmZrQShoP29/f2l34TkCU5J0TuPBYA2bp9G2AnhB26J4FugyZYh3PP2cSgW9CoiD7oDngtpacmIgTamOvaNriP3R9QHEPTfvbGTcggbXPUyIrIcsjNaVIDK9VSg9kV+dWB7gTpxOgQwNXgZsrlo3uAa1C/AN+46Sycw8rT06GuwQqsD12PmXR1/fpg28AEA5sf165cc9RmY0qTZTpvvPEGXoNekqmQJgKwyXqW9vRJJyDbiU5cwnV2QavzLF3JzDlZS4Lc8mipWE7NFKknyc4/71wGpxHXWAYitwpIaR4r3tHNDlsOst8fLqAFujumwaD36quu4FmZDVnHCwM1CoHiGRoR7qOSuY8rlQ+4hOjE688zuCbwWXeJdEq7W0TQZWQUVGib+sMvu/ZyBJMhzJbmUWX6IfEMMujqEhD1m0uKTQvMBOtDslro3nUT1UAF9VCV5qyKy666GCUGL522OiKjxjreikJyFqJvMXSOpR9XSlYgncM/l87bW5NloxSr40UCJuOl3u2N2XFk6arijFN0R00+vn88j7HjWO5B1ja7mGCj9tJyRBiUdatFXHLOWdxSoY7HKFxNKhT1l6mwrIK7V6+j3H93HdZ/6fuJEUt2KClokw/XROvNbtMGxnn0ZeVmGe/6wLuRnsiiHmbhE5Re5trFQhW51AhC7RjSoSxQC6JZYcO0pbWK8Nto8TydGHnYw1xoGm++9U0487xJZPLqb9cMLnHrqQt1qEnUBGsmCUmIfjRIq0DuBlw3xcrJNb4A81lCpCaVKdacq+1QHJF4lnVOMrfuIq88uTWL3/zp96AzsxPRbhm5DIFpV3gsTbIG19El6YYI1HGkblkKcCBKH2cT8bP8jRKahQMYYRb2gXe8CasibWhYZs2bp2bHeK0Uyi3GQIGIK4OBrrJKuJTP+6wYR6VdORFwX3KOzV366nAmgg/+j19CJ9pFsVa225eJdMqGF4+MjDIXT9rwJe2vVE0+PpJgyhHwMF+exY7p7bj0+otx3euvRSxFgfI8mnmen3/pmHroZAalNVzompJu0/ABTT8h8kEX987Fa0m7ZYI1hbbNu06tC8tndt0sExnW85fe9x4NsMb83h2IB9vIMsOIKZhLEclmAygVbDrQUCJOrOvIJRMINKgM8TDOWD2CHGOcqy44B1mmr16XcRCVSp1cEuOWWUTZE99P67+4L6BO20+MQh/47ff8Tm/9mCRzGw+lWKc4LrroQtx++21YNTpKaW8jP5S3B/TmF2btsZ5YMopGu45ynSabjROmNQgngnjN667FO37ix3HeeecvPcWpR3Ob8pkUP5ea6WJ2SV2U3HMN+tr7rJiWHTp4IZGmF4lBb1eU4Cp1mp2bQzYrjY9gaNW4aeGOnbsR4WFBmv7y7JzN/qQpxkbHxlDZvZtxn4es+jGo+XEGf5o16pLN5+BXbn0/1uh+P1O9lqJypqiKlxQjcWFW1Wl2n5av033a/5XTYU36EYmNP0PTNJ4fxSaa43/+zD/RdHUwtbAfrVAD3WgTo+uGUGkWUG0XMToxhMRQFPsXdqNNF/DqG67Cz/z8BxgEvcqe+arVq9YHra5MPYlS5fe+dPvE6g1+PZnE66ijRWPpNDZNfRIpAt9iUKnBjcPBDDatGcfVm8/GukwKCQI6xGxlIpNAlhpY27ebri2GNYkYAkxfswxORyNBrKHw//Qtb6VzqKPUmkeTgaoESCN49ZQqzQjCjIOa1h3r6Eignygd1zBlaXgoEMWeHftw4eRFNEX0sdU2nnz0Kdx951ew/fkXsXfXbqRTaXtAb6Ewj8lzJvG2H38rbnjtDdSQPFrBBnN3DezvIsaGUW001YYaIUYTuZSaGc78UMjcd1dMS23MBKyU+udabkpEbj0VyqDoFfktiOHoCKarU7Y9n1yN3//7j+An3/t+mukRPPDkt3D/w1vw4u69bAsKrSb9pXDkM1mcu3ES6ykc11x+KaqFRezbtRNvuOl6uv0y824GabQA2lccDDPWYZSuNtB2q2+P3Hqv7lYi/u//fNx0XIDrkhq8uCo6junyFLxqi343zcg1jNH8GA7sY8PQzczOznLRwdoz1jAoy5rp9qjRArjaKNu7QFPJlA3w128y59F4FCFW3OO6A/gwgBMg6+nSjysmVdev8sHnCiAZSmKxVmQwxeBRETsBycXy9utn7/o80rkR3HTdGxhCdamvTK0Ya8+2ihTaBpkan8sjStDUy6wZpMYirH9rEX/7kQ/j5z7w0xhJ5XkssxTNHUPL5mu2AmV1W+upV1dzn3r1J70cgB+fSWcFU4xEn5v7Hg1fHeNjI4imgwQ1hanCXiRHYkiMRLFqwxBNe96i8nJrAa1wHeEUg5soGzSTRI5CIE0W+FoK7CD92ZHIICHQDppBgF5+UuPqbX4i+ddCsYgEP1OFKbyw7Tm88bqbaOwr1Nr9CFNbowQv3q5iKNbFZWMbuF7BhnAGwfoizo3Qp1f32YxS//OX/yt+/3f+F+ZLU3YN3Y/QCwPUv6EHM/x1v3aDtXw5a3xcGi5tazMPzQRSlFLdzmzTr40yBJGZ9lCr1hELEzxKbpAmykBkZK3bngpM2qxUhL/Hwwl7ikMmLJfOodmhzFdrSOp+MreZTPfE2C39Ikq6T7T6Cor651venAF7QWs6lWHwuYBoJIbh9DDqnRo+/+//juuvezXWrV6NaoUAp1TvFiose5iBXpHRuAYuxgMxai8jc6ZaO3e/gLPXTRLGNgp0b7sY0E3TvF9+xZXIxLJYpFDIl8uMy+rJrOsWs193kdpisP6nWMPZWGyfMj8KbpSmzXdnUO2UmT/SLCcpqdG2BWiyAI1OBXVKv92AYD4dZGqqKLzGBgnS5ik6r7WqJhDROM3ZQWCfDDqsuPhtStaUYZ4n0BmUMXgreyXs27ePqWMLEwS7LdcUD6LcWWD9ygzsdAO1ikQswMhdBrlCQeky7Sph7VoKBYNXTSiYTEZw7rkb8fxzz2Fufh6lRpFxgO5NlOgU0uZCFBiKlotgn2z9BJvmOAHvF8CA4ceNk6bHDrQt/VrGts3lzl0FY708Wks3oJ7fD/4cFmxddbDqKyP/DLrEMta2AdZjwbrBUafFGme88tnPfBZve8tbUSwWlspvHSDG8rnqIFnOsE4ilzsP9hb+2I//GD71yU9iVYwxz/x+rM1PUH1KKBVLyEQy3N+RX1aRXy7R4PaV0HEBLi86+HFbRGoEVo0VWs49weC624vcq/jhWvpwYNtdsgE+UTrMZZczf9erLPV2hOHMEG77xr/jsksucX0NerkOd2qz1ezxJrJK7P73gF1i1bvXJhR2awuynoXX9GP/8G9/j3XD62wCo3K5go3ZjZgvzy+VQaT1QTr4+0ro+DTcGkt+xH2sYL3CHUJW8t6KatoDyzTEb5CDPq84sQh6Hv2s3FkWpFUYVH73ySdx3XXX9dIlwer30fl93o4OLr391qu2HUNfqGNy4SGblWrv3r2YZgCXTCTpFgLYXnwB4+lx7tGj3gn13eeXg45fwzv+rT4umY5padz7LBXPatsvrFgkYE0zepp+JH6lSLNSFPnRE6uf+9zn8NqbXmvb0vGMdZIs3arssWrm+sYOz4P76tgCUzRV7zd/7Tfx13/9YVQqZQaAQxjODtmTN9ypf/RJaIbj1HDlwdJsH3StK250S/0+UFyytvX2McHg915NnDz0P1bTJX7lSCZ3rjCHffv3o8SA6sqLrmSRA6btYQZWqpN/u9I1n7hf5+VCP7hP7xhWXJG5nqm76bWvxRPf/S7PXUJVg0rimn2SxCaw5UkgleQ4iNVhJfTclwNR61qqcqqqW1/GVkkfdPe7g1S16rPb9spTqVTGaG4Ut992G958yy0svaYEK9iz65qV2DWZNFtLB6zV++AP62q/s762L9tMyxL9dTpEa8E09LXX3ITHH3vcBECp3uHImqe3/nKQSnUcRGBUB4PnYIjsh0PJtg0WWc1xEJlgiPT/kF8HyP+918A6zhrE96hyE31XIbK9ud/S1F621ZGdjXmv/54TLVPxOJ557mmMDI9gYny1TQiY0iuvykWa9oQ7Tte064rdOZdx7zf/v0pizB9S+Tj2V/ciGKXVaJfwnltvxd985O9wxtAG67aWFbCJiujXHSuL14ga90RpfwiV70pE/reDIwyR9ulbpeMDnMcq1XLzqLBhjXlinsW9LNYvQJ+s4cluqVWBNKjxshL+Ni0dH4nMb0pbesdpkEKIQKmiSpMazbqVS71XKpMmw01orvU2G6vasnHn6hTSM2+qfCISRYNaZ8a0wZyaqdg9d38Fb3vzLZZ7623HUmy9m7zZlYbrWrpdyYbVdZdYAmNV1ZlsP7Grt4RQbdZElfl5J6Fuq5p148aZ/l164RW475GHCGkaAT2UGNA7lzQgQk+S6k2MuoXquFBVdw/rH4gw2AtBsz03yC3WO0oBsQFWXZVP5RQJaMUPelpWY+CPg6TZqoDTor4m+Z8jUX8Pt88gsA7cIwO8nPx9e8dqTe3ZY1EkRgAJVKXtsWH0XtIuymykJtPiRCqDYr2BcqNl/eD1Vgcec+50OoNC0Wnyo48+iquuvAqjyVHr61cPonoMdUdPkxz42rOcXakOJRWqV3NrJ0IY1IwS1PRwmmVoou51cPNNb8a9D2zBztlZbklQFCJY5L7zrMEij6rwewsZgsXgLrkeVZa71mHZefZ1iUkKI4WXgq3h5Y7cdd2aStjX8OO8eXJsOtFpp45OblyXoHZztrAKPa1TrttiQ7ZkaagVHvf0CKxucyYjCXTZsOVaBYmhDIXAQyacYtRNbfM8m681k0yhXCziXz79abzjne9EJpsh2BQM5uSpTBp6CW6UWtXs1ux6KyFpeavbwFhgNfZ7c9Cd0cncZuxvLKLMcnzmji/gkmsux67pvdi6/Rns3reXZWhjZGQVzly/EWtXjeKGyy9nXSrIRJNYhRwe37UF689Yg3wwhRIzAL2ox5EDuEOtXgKbW08rwE1a6b+k3TLjAlxL/dJmbTR/S9skXXeeCThtcTSUoG5krbpVxsaaQX2hs4BMMM2j9GbDBtq1GtanJvDPd/wTNp9zNq4992rsk5+18XoUIGp3ielTOp20GyorBVzHaRSsWogxG0LhLKKRIWp0ELvmZvE3H/8H7FucRVtd0EoICJ6NFaSVajeBMC3Xunwar7/ualx75RVo1Ss4LzOJ6fZuxCjwcZr4Tnfw6RUB7dJBsei0A1wdGPpoNicNJ5MPFynAadlNmzSmW0xz2l0kYkOsZgxT5Vm88PwL2H9giua8Tp/cwlkbzsTkunWYGB1Fgg21/YVn8fA378Ovvf+DPJuH+coUwgQ7HU+wyYCF8gJNvG7hComVkdxOhLHF9GwBI6PrCXwK8xTYBx77Lj75+S8gNpKjltbhWYyk/gpCx7KFaFmYzCGmhzf27aK7iWL9xGr85DvehomhIUxQ02fbexirKCiTD1dL8Vhezx8jzxO5MpxWgLPM6qKUhmtyPjexrumNRbNNmuYXZ2ZwxprzuHcaW6a+i7vvuQ/PPb/dxqhFGCDpSU/dmZMpD7RbGB/J4w033oDtzz6D//aeD9JfzqNanEM2xcCp2SDgETYn0ygU0NSjQAE3wHIlpHJ3Gm0kE8MoU4xqFMZ7H38aH/vXz6JMcMPZNLwwtVkSJukQmekSEzRq+Hg6ili7jsLcDPLJGH7j134Zq2R5WhUMh5P09VXn7gxtnUBWsR9pHNeYtpdC/tMqJ4VYZgWLKrolB2xA9QOYbycQLUbUq3IbsHV+Nz79tS/iX++4Cy/sm0J0aBihdBYFRuHlJiP4RBoRBmoeBWZusYSFUhnbtr+IDZsn7b0nek49F8zYs3J68iSmQY0KsejPgxQqK8gKyPokyJFQ2sz4lq3P4CP/+EnEx8dRpXa2EozMLSbh+aXdykaCMUp2kmlCCtF4EuVSAS0qlYZSx1hOPYx53nnnYE10HHP1WUTDeg23D68jnUroa+EM+2lDEiYyQdfSxb1KkJSfEnCavT21Odz9jftx7yPfBpJpjE1uQonAzpZqCOdG0WKwU2ZDeqE4v4/QjI7h2b1TNhfLn//vv8e+hUV69jCmu0VC3LLXatT4UdCmJzxPhGShpKwlnk9zSn/iM/+CzMQYZuplXqmNDoNKJAkuA8iAJlRQ3k9zbm/LL9PUL5aRyK9Ck0FoND/COtXx/O59eOTRJzBL20QJZYtItx3U+u/WtEVtJs0/zUgjQ2Sg4synS9UKLayAZmATDLO+SXz0/34SL+w9gMTwKE18DAcKReaosv8xVFVnmvVuOEpNb9NfMjXjcXHuO8vUrU1//Yd/9RG8ODtFv8kGR5zRfwD1joeI5b0n1lwS0ECEmszlXQ/djQWvjMVmhTEF3QuDMaQIsIY7M87oMrcOMIWM6D0udEfqTwizfJW6hwYtjkcBz6waM4t151e+ZtOFxCJ6f3ofZkdSEqcg4tMKcAFNxO3uUq2tETIpagpjbX6PMFh75KknsNBooOgxnWIdPTYMnbaBrfnWbASGQBNrWBGXLQLucb3JpTiazeGLX/k6GyaOBfrFaIT+kcdVWprPSc012JjHR9JwFgYlpnbP792JbkyWhmck2N22XoXdIrOOFOqwQFaWQY4wWItwm4Ixu35IffEBm5KkyzJrIr8D0xpHKEj98vWWvVjAdQCdZoCbkCo6Z7Eb9MdxSrSsXZ0NoVfFf/2hhzBXrqJI0GvcT5pvIFOjGb7bKVyr+43BJVndlS2CLvC7FI4tjz2ObQu7rCHBwEoGosNYwUUPKycVXwJaZBr4wp5dCDDo8pgxBPWUCrdB8QEFWhlIlAAL7LDAl5BLGPyOFe7HXVBvtQm4q8P2HTv4q9kQ7uCXU1fsL/X/ZQdceerR+ERJj9Ra1wvPpWHSHhukTt42uxvP7tqJksbWUQCk9dJgV3kuqTGgeXTmzTdxPeK+9mwH96/ROkQY1H35a99APJQjQLQmXtuES6foa9Dxk46tMggs0VQvlCo21abKp6k+GYXRZNN/s2ghoinQnUa7Xk03QSG/i9WO/M1jlmEROFnDsAR3n/hNu2mbLR2dVhquptYTpjLtet1kuclgijVo8ofHt26leaTmk9thaoq9O0RHkFRbNigaHtepJUvaMgC8Go7NoaeeRsZW48mtzzK4c3OtBugW1BcdDNBS+OdcEelYug9evt2iSdbDNjGC7PGicj3cHqIl8WeblBlWD2KT7IV66Zrmi+mZZ5uo1xDUpMUy8rqC6iMWuaW/RfyyA36wRh/MJ0qajkN92noHise8tCszGA2biQwx6OkqkpaJFOi6HDVF7aPHgpTH2pylallbLtd05fiReByNtkxlGPunZtlAMWq3Zlz06H11U+NE6hBgisf0inFBkOlWo95m0RmoheP0HCm0GDjqJpKppqBje+mVHh7Tw5aebZIM6waVym4TBTkYO/Tx6YwmSpIyuGoP1qu/dpppuCNphhvdqldEsuWIbZxaTilvN3taoO2u2qIo1SBBjVc/c5iNo44JGfE+6GI1jIQJdiPF5IOslC8IaTh9/LKmWwmpucPIp0cZkGeZjzM+UBCiXJvrFpDYfXM9QUprQ5bVagtkPdlgS/5OU65uV4esNL2D1czlVVKjoxTztALcNFWP43q6T9Si5tHMstbUQXu8qVJmKmPmkKzWEGr0dfayNjaUBhq4fniep7efaxwu1XhkPeOm3sLFhXmM5PP8WcLlIc1grkkXot1OhOqMxvUSgFwmiyStSbvC/NlmguCZo1FqNEGmdfEYbGrpAkeyX1b+bpE8hUF9/Obm+W8onzMwZdIduyqJBst8ygG3hxSOwkcj3ShJE7w0kY8rcrXRpfZ6eXuWe2x4DJloho3YQojOPaoJbhkgVT2CyPy3QY0OMn8NdaM8Jur6qBXFq0HZFOolbNPPjwzlMDY0jG6jZjclG4U5hD09XMBjrIVXRrJKGjPQYlJ15ZUXo7I4Db0GTQ8gYv4AAWc56JJaFEyPqVdLU4u0yB3m4Cyz7gKiwmg+wXz7wJTdRdO0acXFBVx83gWMMtSXp84VRfW0YizrINii00rDRfJXqoRHYDS/W4fN1yZvOmuSDVgwTlNzJAReuWwNGKKPLzeqVCRFSbp7xEZnyqMpq/XqaQYXtABhe1uhnm8rLi4S9Kw9JVttFrAql0dLAxh1y+oEABfkmh9dQy9ed+XVWMNrRJjfFw7sRWJslCadYMo3KwbRM/aJBK19DDGWLclyJxWhKUZhG2DVKGb370WA1uED7/spikIQpcYCa+aAFh0Mtui0AlxBVYN1abEBqqy0ntj0uk0a3AbO23w2A3PdIZOUN1EvznPHBhJ6oyEbGvUqgrkMGkxxFPV25RPFbCAwIGvXa6hVSxilZktDzj9/M5K0H3rFNMWBkT8FSOb9cK34EkmilgnpfYx1JHiN6y+5FFHdbxfGMuvi0gK1eJEVpbB2asS2xgi8jGJ5HpXSLLA4R+2lBaPFyccZW7DcN1xytUQJq2Or+FvfnAv2Prv4/fsO8MNF9j53afKth4mmtUOzV1d6xe1KsVbHh3HxBefQJDPgalYQTdBoZzRZL7Whw/2o9VFqjKykwFO6454c4ZKtoFuhCQZ6teIC8oz2L3rV+bxWHZlkBsVuCUHa3grBtx6rFZIyhTgzgLBXwwh18u03/jCuvfB8pGh+S9TyHE16IkU3JC/TqVPjqxQCMtcj4Q5SyQhWr1uDzvwMYnRTejb9V3/uAwxpChhGCvuLewzwPsyOHNiOTysNV4Fb1JAW/VswkkDF0wS1GtIgzBq4+cZracr1tgZNt6GHFgOoS2MIZDCdQb1coppRQAS0hMBMdBtx/p5hwDScSKI4dQAXn3suVo8M8XpNannCAi1ZiRaPk5VZKcn/Z8P0tCxHBFVkqeXvfetbcM2rzsNqAl3Y/izaRWpwrUQz3mFgF0OeHAu30KoXUVucwfTzzyDPqHMsHsa73vyfcPH4WQQ+jnJ7lud39xlk0g1yltV/AMIxg9eX+/boidLhNNtnabjuirnBeNI4TfArf617y2WsS65lLh7A1NQU9u/fb5VUmqVBBNaLrIlxbXpLAk6QldNH2Ei6WdEuleEVFnDFBefjvW//MWQ1gR6P8lDitWVJ2vZ6DisjPyshZQcRxgwZWhq9G6XZ9TAUG8LGzWfZg4sakKi4zeZqpTCG6K40Ua/GQkUpbPl4zALWizZO4j0/9hasG85jFfP4Wn2WAhvGcDyFbkd9/iQWsQ+4u4Omz/cd4EcjN3rDz4mZT1ODpbAxVqhJf5cMxHDm2vVo0u/Nzy1Y75NmalaABppSC4b08B8bL0wtiNLExrhdZlacZFxw69vegquHXsWzF3lWajZNaoyZgYIhOgX+V9C4MsBlbuuFAjakzkAr1iKAw9gxtwNrkmswMbEal15+IYvWQoyC2CwX4BULFntkY2FsXLsGF5+9ET/x5jfipisuw0QqjzVhPXK8D2fF1zC4XDCweShLRw0X0D1W3C7ARS/7iJeTSTa1pYU7FPpWmblxAo22BvYnGcRVGWDpddNBBm6jeOS5p/GZu76CHdMLCKXzaIdi9N8BpLJJNBmxN0pVBOoesowH1uRyOGN4GKPpFK686AJs2rCWDU+tpw8dSWZ5ziphdtN7u9dsrcwTSsgyTAOrlRJqLdYkl0WpxSSNFigbGsOBzjxywVEUaK3qXYEna9ahYZIPDyEXTku02QLqYlFnLwWD9S4XFnHG0JhCVcq1+g2cZos19EuGXqAL8tMO8BAz44JXRJImLMkqy+h2aKZtgjvdWWKOqqGKXiCOv/unf8Y5l16JO++5DyWvjYVS0WaYajFo0hCpcQJ9weQmXH7e+Th/chIT8Tx+7/d/C7/7m79FC1KBRrtoel22GWYLM1idW00g1OmzUg2XZaGFEYwGhutN04MGNoiDoPS8MPdxdsRnp6OybT34KDwuItfSHaXzinxT7sB25xTbuU43wCXXbRZfZtxGl3U8mnU9jE/nx20K5DrhKP7jie/hQLGCG298M71wB1t3vohIMo75wjwtewh5+tFVmTzG9OYhNqN1nNKH3vvVu7FpcgPOOXcjItyv2tRoFJeOaRoviwms6Y6f1OzKKJQZCCofXOdjfbPrfK372K4EVFt1YbF/lIhLgi7SNlvjD7qKmXKziP3ruCudRqTKaQYGZS1dBjRt5tkyVGGCbdkSNbzbaNEs6gV69+CWG1/HbUWsJ6SXbTgTF66awOs2XYRrNpyDc8bGsYqplgYEBukWQjTzUVqK17/m1fiPhx5gkMQYr1ZhYwecGTecfBhWRr7W9aYMIBACyYEoPdcAa4lzhFYgKvfBuEIxRpSxhRsIQTtg2txne8CB7Jtwsflu/upEwWTAvml5egFuhVbQRL+nOd1YeQVlzWYL1WodhUIZGWrtJ/7543gH051umwEXc/UKDrAxy5YGhbi0iXho+OMEOEbtjXCfaJBWIxLEqvww1q9fiy1bHmHkTH9PV6FHeoL0vergWmrFFZIPlQ+DD4LTcZlqgaqhxlpXXd0R/SPFTlBUFGe+fe6ZcWk2l4e/xmlFLLByaOkH7ZxuhugOVqVBP8vgK5pM4fmdO1FkinXhxoto6vXOFhDcFtLkECPvGAObNBstz2/5YMjeHhgN0zfaS8nbmC/P4C0/8hZ88+EHZXzZoEGUKUzxCM+gmzHWkCsnWSSxPv66gcFTm+k2Ey2tpfZyg57ha3HZYk6npQZB9gGmg+iB7LPvs52GO7Aduy2nF+AyX4RBkhplqqLbJrWWdXgiER1CKJbAPfd9E2//yXdhT2EvxoNj1PpZWvoKUxYytVsaHdQoVJr6cm0Oi6UZlCrzjPqrrsVpy/XM12XXXImv338vkkx/dJu0yutEosrM1XwrI98lBPnxBzrokj4LbNNeM9EOYBvgwaVHbnJdL2MYBNvpvBxC31/7gPtk5zXmdXrbTgsyuOm7lQs76NkQtLN6PZTe//Wdp57C0PhqBKJRRuAT2FnfiaFcBnFqcr1WpFYnaPr11kRqbDCILAO3TCZh3bCaPFW5vUB9YXYHbrz+9fje89uwoEn6aNqrDQJOW3EiJAhCep2XZpkmYv4jzEGyD49MtFiaLD+vnEBdKWJ3U5hgG/fB7bML/Bz7pDUHv/iUAq5LO8l0rHU3/YeJd2+PwSIfzKooUxku1ZkiyOP04Vnm46XqHO695+u4+ebXYiQxjO3zLyIeTxAigqXOEwrB3sJumwstEFQkoMy6YTMiNjU2jB/pXrlZwZrRCUwVZ3DeeZvx9NZnEApFkElpfJvyA+cfHft1cOyD1W9eMY02tdmNZNGyD25/H1F/3dV2UEsPv58jZzX8rY79EvTPIhYtAa57wSf1qRGSGkOvkNENEEmrTLG0tGMfhcFsUAZS6j0TN706NbJi87dpaLLdww6laJZz5Dhqi2UEi3XoCbLnv/0tvOnGV3OPBirdGQwN63HcBhbVY8Y0LUKhyGZHbOCgTKEybAlOkKmWnhdjAExrQS22++NAJp7ExedfiEfufwj5QM5umap91BmiUEodr76/bDCini0s2HaxHyU7sBlE2Fw4bj4cCYZmgOoLvHwvTbIJkDRU+6tjRX0Ouo7G22iQh1vXNn3835WaquPYdTi7bN7f5ptxka8yp1zDj0RqHpFeaaUerUZTL74JIZ6IEyxV2VUpQcMs893yuhghgOuGJ1CYn8VdX/gCrrn4UlbICY7ESFrrZNxplxpS6457oLCh+1fXGIQYKlVNuBfAZG4SP3Tzzfi7T/wNVudX83g1JDN2pkqafVJWQk0fC8bt2XKGjTyDu6rTdJG70iD5lmCZZeiVx8pEliVwj1K5PnifzUIYa92x3wmz1Bnjs7vcMjLAT7Zm+6SL6WXN6pF28xGwErZdFXBmr1SuskE1M0MGmcgQNS5JzQPKDJoq1P4DDLQiNNPKZTv0w4uNCj7xqU/hd37v97Brau9BTTsI5XKSlvi/+QDJvWhbkwIXCCu0q+OCV12AQqmAubKCv7bd8FC/vO7SqW9dEKk3rsvUsNIssS7SeQkC7UeArkIc1Lo6b7SUB37liALhmuhUmHRJn920IEd66y5SVeM7c5ZM5wh2jutRlNiQJTZuN5hAMjyKVHAU6cQIZhpFan7OBkPsOnAAoEnuMkXLjYzwOF9LHNiO+/XyI+Xet6WFdWDwo+EUci/S8P3lfYSthbe+7a348lfvtmlCvGoNQYbteseRAA/zfAI/H8/Y/KpOuwiqulCZ3+uMmqtBbOv8zW/rw/HJplOq4TI/Eeay7hEaNhrbxSbakamVf2MzeoxiW2zIOhuxTIWotvXS9ijmqFkvlqawuzDD3FSGNUWtq+CfPvNZfOAXfgn7ZubcEyL0g0JwEFYjXXyJ+r9qK5uaH/VaCRbPTLWADsf01GgbG9aux/T0FPYe2IshpmlDybzNrKkhU8EWAWfULdB5dYu4XYqlq/SuYDk1Bde0e7Acp56WNFx0soFXA+ipir6v0RbnU9sMhlqBCBaqDLpsW5pmNYdWRHOeRKlxOeQy6xDPDkNv5N/fLmLH9Cw2XXgR5r0a1q7diKAeFDQZdk2t/75267+02KC267p9HNj9j8LHDP2xIFffeZKfQr2IH/mRH8FXvnw32rU2LVQMnSpNdyNIt8MAMpC0l+jWiw0EKaABsSXMugDPSpZm62NX6W07HJ9sCjzUutOu4l9MU0yeLNKID/UPS/r1VKbe4NMS0OoepXYzPqeZzGKvN4vnd+zCi7v3YN+BKes5SyRTGBrKYXLDely0eTPG2NB//bd/hl//hV/kMYJRZrPOevQCtp429aHlsidgIjZvbx8HgraIdCa9E7RGi9Ji8JCLDaFYr2AiPoEPffRDePubfgwb105iobBoE/6kM8wGGrRHkSDdTZICO8+6SZuZcfQmGFaPmSYgtrP30rMj0bFG7p4oGeCDknWyAdeTkAJcD+81xdRqPdOhbo0m+Yvf/Bq2PPYEXtCrNLJDGKJf9ppNlCv0nSqnzCiFZvKMtbjlh96A8zeexXjAjQxJRTUShgGX/Ccb2Gm3zyI1uOrnQq0+4GKR7sWFbVhzPKq7zlHUKh708vs6LY80+JGvPozNZ23G888/j63PbGWQWbJZlldPrMb5F27GLW+7xcx3hza/zWCtY6zvvJbkzYTuyHRKALcVS0/6y5NBFrSxUau1BrKpVTSbUexqzGEsdhb+Y3Yr/vX2O7Fzesa03t0AsGyyB0bABEba3K4R3BizckrOL/z0T+GyVZsx29xF8xrm+WmKdfOBZ+/ZVLax6TOPdHmxNF0AOMBlEdxHJA0vM1PI0VfHAgke0UsJmTh/+/7v4C9/768Qbkf67aXjpLS8hrRZ982vfc01+Ilb34FLLrsYOw68iJGxIYSZ3xe9BdirO3vXOhydEsAHQT6ZgOvMesthiHl13ZoqAWa8eGjrk7jj6/diulxHUwPwqfl64qLvj8UuyMtp7jS9lL5WwXAuhQQb8APveTfOX7WBe1UJD20Fo2P3BkGBSigFhjWyAip1gPiAO/NvQmFLOoaGh9HYGMWmjcJChbn+OCqFKv72w/8b3/zqgxiOjrEcSihFEg9XNp7YCRB/arRrdh/9re98C97/8+/HzOIUs48E6i29xUn7SRgPTycbcGYfJw/gg8l6pRidy1/X2UZ1Arq/WsQ3tnwb217ciSpBrhNwj0FZW7cjfTaNV1AXRqXRRoVpUSxH39ps44V9+/H5u7+CqY6m6FDPnQsCpXYCllgbCVL34bo22g+O3VYH3lAsj33z+1EuVrF2aB0S1PL/+7f/iAe+8iByUb2nkPF4IIZwIM41JWYJx90ed+IYzYzDK7fxb5/8HD7x0X/ChpFJRIMpeh22wFH896mg0Ad++1YbxCjgTzb46nJUzlxnpB4OamakIP79a1/D93bsRmx0NbU7aqBqpiTHrlvGMS0CG6tJdxBSHzkj6Rp9bX5kGHv37Lau2M2Tm9j4PDc1zZ6vltYuabhIdXTnGgTcJ3UA6b0selldhsFauw78w4c/hjs/dxcmRs6gNUlRatXtqam0FC/o7UVKEd1H3+ORGNO1FoaHh81afPe7T2B4dBjj4+NIpxIUZHXAHFnDTzYGpuGnTsvlRaMIBZNcj2FfYQ4PUruLFWbaiSwbSLDIXIoJtgIsP6plmmPawQaNJNOMhmsIpTLM1ZkQJ+K47+GHsVDXYCa5ClcfF5WLfE0eXHfffbidftMCVT0MxUcQDyXw9KNP4VMf/xcMx0eZnKVRmNZIVrWXrsCcm0uXYqrE9PQsX7veQoOuqcNljuUbTufxkb/4MAJNlszJ3ytKEnejUwN8ADVG2brxUKfxfW7bdrQJaoi59ux8gWDq9iPBNqAHwCZwdhtRANIKVBd1y5IaTk3SvKqdEF0EI/kHH9lCALmPTLmWdkXXwg7cHsjaxbb65O9Lk54exszsNDOBIO667UtYM7QG2XgOiwcKGB8aJ2hETT1oZNebpqxDYBJ4/uYxoBzJMeBjmTQnW4oxh3775j3fsNGn7kqvHBngp1LDdUnNB6xw6bnnXkAmnbUcW9NLxqLUfAGsYvlgE2gFa2IDXEaAy0gywejIQyybtyk2Y+kMHnviCbuG1YaI+ss+Odh9dvC7/dy+Eo8OM4gcatTSB75Bv53IMUhsIh5ksMgUrduhgDFH74o7NM9kEwBu10vm07Q2xYUFVIolJONR+m3PHjz42Ec/SiGQi1pWoFNOpzRoU1XTkSwDryoNdhT79h9AlQ2i5wRi9MsNRt/W9AJWJHPJo0yDLBwT6kHk1m9AZXoW0CxOPGk8k0HF8xjdKwtXr51SOj94UxomQ+zYkQP8cFRhvp+me7n3nnuxbu16ghhAlBZoODeKeCzJIrmIXz1neoebdcNyKVYffJ1xhcIEvWy/UmJUHgwzl68jEUliYU6vv/DF65VgKQ0rMMgnm9TosVgCpVYJB2Zm0NStMUq+jRdjOuZ2UjkIrtImu8NELQq4O+iax6wqwZDvpobrTf4K3sLpJHbxfB4B1rh0BX+6p6WuFHT1MK3YPUHtk2uCQfhpTSLMl6tlmvU5LGqON7ZJOMZAjMVZoNYGdKuW5trmkCF3whSuMD06L6NHuQNxBnPcP0JTHtMkPUwDU4lhTO8vYN+uGQZ7EUu9jsQt1kvCIvanMfXdreaJC7Ne4hCDRX33Ffal4TdY+1NCGlVWopcOIRFmpE3zp9dQ6rVRoiBNn0OBBRfoZOW2etLTJuNX1EPhaNIX2vPTcfp8NoyZCFY+k89LTHg0TbNpuIvsl9yDO7lRf80nHROgW4kTYMYJNTf7YiAUpBXSkycdu+fNUi6xu45yevM8ZJaZoOkZsST3rVCztZ/AGcmPos6A0B2rqx+e9b5TZRJaiv3tDiq5HGsdY/+3l87u6qeUdIdJ1VBSMzqcQ1T5VLuFCBtWz0X5VemTGtSNCpGZDtgcJwSZoNi4Ya5r1IputY5msjyvP9qjF69baNzjQ859KOkGh7qXBbReeB+OUsDanr0qUlNvyiTrBT/GDCyDzB78977oo5kinabp2kCdghONRuyhBtfmRy/DoLb7mq2PTxR9K6OW9ulpta/px6JTCriKlIwoU9bosAYm169jVMtsnMBFdDOFmsEW4169RlElyNIkfxhuVwJCq2D7lMtmXjU7Qrdax9qREQPchvr0/L65Bmsgx8dq8GrVzRSxbsMZjPyZS9A3ByMBeJ26vV5DwIYOAVtLwkLWrBKanLdYLNrMSrIOAqhMNzE04t5SfDSSmT54is8lcPlps61k6sUHm/CXAvop1nANa6D2MLTSneaLz9/M1KWGdqPOBiM4mgHBAPeBIasOFAYz0WYCmP9qWgz6cu2bjcbQYJqmGecvP28zz9+mtmu0mUad9MA27fb5UNJZjdmAGtWit/effe7ZvG4XxXIBoRitS8iNdrFhRwRao08d6A54FxjyCrQ4sgQ2bxqFU+9EL5YKiHKpGyzWy3cMErC2ZHnEAnfQr/tgHw70Y9Gp1XCWTZqtoQ6a52Tzxo3YwEbQYz3wGkxbpCUEXqAb8KpMr0IOETIrzIYHzWw0lUBMFa5UsH54GFecfwEBVy8bzTyPF+AC25hXdg3ZO5+d0P/fJ5lfdfCtXjOGc84/2/q/9bLcQIwxvxvfyHP3AO6ZcX180vtRJDCReIQyWEE6l0KjVcelV16KTC7T2+vI5I+I8YFtMYgbZH+7D/Yg4N93Gi7j3Ka5lNntshGHgmn80E03Yt34KANxCoL8pMAi+50ayzWeS3VLsgH1YH+k3USrVMRZq1fjDddfjxEkes9fKSHrHWfdmALcge2ax28YLZc3ktosEmVYGQ3iLW+7BdkRvSOFZj7YYPDIzIBn8CF2R7rz+qwpwswNMHJvdSkqjAPG147jzW95I1vbL8eRSUD62uyz3ITPhwNby+9LH24NwnJJwzX9hgYt3HjB1TjrjDUIa/6UasUe6IuQwxpIuAR6n0MEMEIOc59WsYDmwjwuOfts3Hz5dfDaRZpap926lqyBGrjfyION7SDz//vgNSmQWteU1jf/yOsxNjGCRreGhny4JtmxVJHnNXbr9hblHndDdCc0Wc0OLVY6hpmFKWzYtB5XvfoKNwDyGCbdB1LswO1ru8DvYWy/H0x+LY5Gp1jDCTb/6cnPBLWo0VaK1sK7b3kr3vrDNyMbCSLFBjGm/0xQUyI03WFqcpRgx9i4GuwQ0VTTDIK03xuuvxa3vO4mDNOYJxld231wNby0WhfstYFb9TfI1vg/9ZtJy1QyxTy8YIGX167jV3/9VzCyZhi7p3YwbaQghJr05+rOFVO4mB2GkxThcNvehV6uF+ER2OxoGrOLU3jVJZvx/p99nz38MF+ahyYIlDb6Wunn03rbQqVSpe9nRuA17QFJvQnR309Ru2UPLKSwlrZrX73g3vN0jIemYqBj0Cmd8kMNGmVEHdXtxZAGLMvkarq5GEbGh7Fx8iw8eP/9VExpcpearBSLJlomnqYxSK1OMk0qzkxhcnwV3vf2H8ebrrmBFqGBUnkK6Zg6WdRRw4ayvJ0mkudwV/b1WDLug+y0xP3iPn6UrJfGKx9eNbaKPGI9aLt27uSpdTyP07tJAnrNVY1+npkGA7v0UBJdbi/WFrFnejcuv+ZS/I/f+u8484z12DW3A+Nj4xYPqN6+hupaskDOfDPuEKJHIb1pSeQfr/2dQPjLo+vwKZ0QwPnwlgVGysQ1z3lDljocp15q0ndNLufhiWe24qEt/4Ft27ejShMbi+vlNLqD1sWZZ23AFRdfhKtedSFWhzL02i0GgDSjXUo6g6RIjCmamVk2o9iuLL8r8rtbRfpF23sNp3VKSKfVRTySoAGpUugiyKU0IVYaW578Fh78xkP48r9/jQGmOmhi9m4zaV29XrdUTn675tVouht4x7vfiVt/6l38XmYdG1iTXYPZ9gxVrOu6YWmiTWup4RIAp6WabeJYgLMObDeffZAVO/hW4MjE/U814Lql2KVfUpql6ajV960HDTQwQuvqEk2EMxSHKAp6srswgxrTtkQyiWxaT3jr0V+9zl1tV0eG58kRcgWBhdoCUyhm4XQHlCMjNZ/YjX2nSR5oUAd2H3gZA93n1p7tJn0mwW8121iVXc2ShVGqlvDUd7bi6SeeweOPPYp9e90biNnyGBrKY3RsFFddcyV+lMFeOK5ROy1kMhksVGYJcpvlz7D0NNVc9wH3NVxpnADXtqORD7iO9wEXyPaONf6mkbZHplcA8DgbtM4ou+ExFw8xGrZXU6iR1c+tpCqIKjWkQpBBqY1ENIotxPDOs/RmbXgC85hmdF5GLhZDLholik1W3vW41bifYmkHuI50rKc1Bagev/VzYQOZLMAc+PThgTQKjSISuq3JIxvUPJnaTEIPR4AWJYOaOmQoCM70e6jR9yaSCYzkhw1QAShfruCt5tFSMDbJhnLYW9qLHAVAgyyWwKKLUyrma/hLAdwH+3Aa/n0HuLuNyAJTq/XWPZZZCCAaSzIPT2ChrE6KBKIhaa3ieM2wovFpeho8hNnqDIaSmpeF1qFdQbtas1kUI5qGkhUu294CXHoqvSTr/Hp6j6QH692Q4R7gS2Br6bZWaM6lmRrORF1086fRhFerDQZ11FK9vYBAxcOM4kgetVMV0XtPi0W9LZS/07XE6YoUyCk1S8UTPJc6nBi7sP5LGk4WcL6GH90ks3QEWPvreJ8GNVyTJByZ+g7tlFGz1UIsEkUmlkY6TpAjNN6UzpDuM7NxJtLDNk1HkRFuqTDF7TWa7BA1i0FNp4jJ5BiD8CqKpSkGfx2MEJg4/XuTQZZmTKQomXYLcNfXZgadwLJxCbxhe1jSfgHrWtUEuwJAtzvLtTI11PlZvYoyImsUlQOpo9LVw1CMPGK8DqP0cq2AkdwwVuVWIRAJYM/MHvPpEQZ0xUaBpVBz9wsg4AaXx0srOZ4lcBV9aXxipGIpr2zS/GreBgUzmqclyug6SiEI0PeWmgs0S5prJY+hXAodAlmqztOXVpCgVpU6c0jQFWRSCbsxsVBaoE9kuqb+dRbR6bXsASWfrCY2DVbsYKbcNY5tc6tcuPrpayqVRjKhF9HWLY6QgMpc1hiYadxasb1IMaAmMkDz6GIUkVe8Iq1LG9Gkps2tYj9Nd5jHZLNpe9RZWilTq7LJ3J8orVRARIH7G3fY0YMnUQF9lpmwJf2VqEOwTox809mjXjDlaLlQLZWIm916v4z2qFJvXaRfpMCy3LbOX/W7/lv/d+9QBU+D5xkkdz7/NycAB5Puoi3RsrK74/Uosd5RrvNIuz11s9LMaiICkVJSnVcWwzftPh8Ox+PV4lRK4wX7tPx4M+muWQbZ7XPQNm0y0vcTIZ1rgHm6wfvJg2xpldiu3i+ByN0y7bO+63wCV0+kMh1WBmSCYc1rqZr83vLzDJJ+6Zft8MTi9Ll3hM/9cor5O8tkZpyXtX53uhW3z6HkFIxHsrwvlfvH8Tq9eGCQ/H0GafkeJH+ng5f/P700UuMTjkOAVTvqN1sf+M0HzGft57PT+v73wW2Dx9orPsi+FRH5+4j668D/Byqx3R4Ls5B0AAAAAElFTkSuQmCC;" vertex="1" parent="1">
          <mxGeometry x="614.55" y="350" width="52.77" height="60" as="geometry" />
        </mxCell>
        <mxCell id="ehCbc-gGsFOHaVZKTLyM-29" value="&lt;font style=&quot;font-size: 11px;&quot;&gt;&lt;b&gt;LightGBM&lt;/b&gt;&lt;/font&gt;" style="text;html=1;align=center;verticalAlign=middle;resizable=0;points=[];autosize=1;strokeColor=none;fillColor=none;" vertex="1" parent="1">
          <mxGeometry x="600.93" y="410" width="80" height="30" as="geometry" />
        </mxCell>
        <mxCell id="ehCbc-gGsFOHaVZKTLyM-30" value="" style="endArrow=none;html=1;rounded=0;" edge="1" parent="1">
          <mxGeometry width="50" height="50" relative="1" as="geometry">
            <mxPoint x="570" y="400" as="sourcePoint" />
            <mxPoint x="570" y="150" as="targetPoint" />
          </mxGeometry>
        </mxCell>
        <mxCell id="ehCbc-gGsFOHaVZKTLyM-31" value="" style="endArrow=classic;html=1;rounded=0;" edge="1" parent="1">
          <mxGeometry width="50" height="50" relative="1" as="geometry">
            <mxPoint x="570" y="150" as="sourcePoint" />
            <mxPoint x="600" y="150" as="targetPoint" />
          </mxGeometry>
        </mxCell>
        <mxCell id="ehCbc-gGsFOHaVZKTLyM-32" value="" style="endArrow=classic;html=1;rounded=0;" edge="1" parent="1">
          <mxGeometry width="50" height="50" relative="1" as="geometry">
            <mxPoint x="572" y="255" as="sourcePoint" />
            <mxPoint x="590" y="255" as="targetPoint" />
          </mxGeometry>
        </mxCell>
        <mxCell id="ehCbc-gGsFOHaVZKTLyM-33" value="" style="endArrow=classic;html=1;rounded=0;" edge="1" parent="1">
          <mxGeometry width="50" height="50" relative="1" as="geometry">
            <mxPoint x="570" y="320" as="sourcePoint" />
            <mxPoint x="600" y="320" as="targetPoint" />
          </mxGeometry>
        </mxCell>
        <mxCell id="ehCbc-gGsFOHaVZKTLyM-34" value="" style="endArrow=classic;html=1;rounded=0;" edge="1" parent="1">
          <mxGeometry width="50" height="50" relative="1" as="geometry">
            <mxPoint x="570" y="400" as="sourcePoint" />
            <mxPoint x="600" y="400" as="targetPoint" />
          </mxGeometry>
        </mxCell>
        <mxCell id="ehCbc-gGsFOHaVZKTLyM-35" value="" style="endArrow=classic;html=1;rounded=0;" edge="1" parent="1">
          <mxGeometry width="50" height="50" relative="1" as="geometry">
            <mxPoint x="680" y="150" as="sourcePoint" />
            <mxPoint x="730" y="250" as="targetPoint" />
          </mxGeometry>
        </mxCell>
        <mxCell id="ehCbc-gGsFOHaVZKTLyM-36" value="" style="endArrow=classic;html=1;rounded=0;" edge="1" parent="1">
          <mxGeometry width="50" height="50" relative="1" as="geometry">
            <mxPoint x="680" y="230" as="sourcePoint" />
            <mxPoint x="730" y="250" as="targetPoint" />
          </mxGeometry>
        </mxCell>
        <mxCell id="ehCbc-gGsFOHaVZKTLyM-37" value="" style="endArrow=classic;html=1;rounded=0;" edge="1" parent="1">
          <mxGeometry width="50" height="50" relative="1" as="geometry">
            <mxPoint x="680" y="300" as="sourcePoint" />
            <mxPoint x="730" y="250" as="targetPoint" />
          </mxGeometry>
        </mxCell>
        <mxCell id="ehCbc-gGsFOHaVZKTLyM-38" value="" style="endArrow=classic;html=1;rounded=0;exitX=1;exitY=0.5;exitDx=0;exitDy=0;" edge="1" parent="1" source="ehCbc-gGsFOHaVZKTLyM-28">
          <mxGeometry width="50" height="50" relative="1" as="geometry">
            <mxPoint x="630" y="340" as="sourcePoint" />
            <mxPoint x="730" y="250" as="targetPoint" />
          </mxGeometry>
        </mxCell>
        <mxCell id="ehCbc-gGsFOHaVZKTLyM-39" value="Ensemble Model" style="text;html=1;align=center;verticalAlign=middle;resizable=0;points=[];autosize=1;strokeColor=none;fillColor=none;" vertex="1" parent="1">
          <mxGeometry x="740" y="240" width="110" height="30" as="geometry" />
        </mxCell>
        <mxCell id="ehCbc-gGsFOHaVZKTLyM-41" value="" style="rounded=1;whiteSpace=wrap;html=1;" vertex="1" parent="1">
          <mxGeometry x="730" y="240" width="120" height="30" as="geometry" />
        </mxCell>
        <mxCell id="ehCbc-gGsFOHaVZKTLyM-42" value="&lt;b&gt;&lt;font style=&quot;font-size: 13px;&quot;&gt;Ensemble Model&lt;/font&gt;&lt;/b&gt;" style="text;html=1;align=center;verticalAlign=middle;resizable=0;points=[];autosize=1;strokeColor=none;fillColor=none;" vertex="1" parent="1">
          <mxGeometry x="725" y="240" width="130" height="30" as="geometry" />
        </mxCell>
        <mxCell id="zVfbZX9N3bfvn9KIprG--1" value="" style="shape=image;verticalLabelPosition=bottom;labelBackgroundColor=default;verticalAlign=top;aspect=fixed;imageAspect=0;image=data:image/png,iVBORw0KGgoAAAANSUhEUgAAAJwAAACmCAYAAAAvWeaGAAAAAXNSR0IArs4c6QAAAARnQU1BAACxjwv8YQUAAAAJcEhZcwAADsMAAA7DAcdvqGQAADr5SURBVHhe7V0FXFX3Fz90SIigoIASgmDMTlTsnB2b3TVr5mZstnPOnDW755wLders7u7uwsJEkPL+z/dwcYgPJN57gP/33edO3rv33fjd8zv1O2EUHR2tGBsbkwEG6ANGCkP92wADdA4DazNArzAQnAF6hYHgDNArDARngF5hIDgD9AoDwRmgVxgIzgC94v/WDxcdHU2vX7+mkFevKDwiQv02BiYmJmRtZUU2trZkaWmpfmuANvB/QXARTFBnz56ly5cu0bHjx+nMqdP06NEjCg8Pp9CXryjuEIRHhpOlmQVZWFuTqZkZ2WW2Jx+f3FSseHHK6+dP+QrkJxcXF/VoA5KLT4rg3r59Sy9fvqQHDx7QlStX6MTRY3T4yBE6euwoRTLRWZqakYWVNVlaWAiRGRkZ8W+i1V+/D2PmcsrbmKGJjIqitxGRFBoWRhEUTTmyuVDFKpWoUOHCVLBQIcqRIwc5OjqSBZ83PQPPDM4OYDkzLZY0PwmCi2RiOHf+HO3ds5f27ttLd2/dprv37rHcjBICMzEypojISIp4wwTDBGZpYkZOzs5kz9zLjLmYubm5bHgB4IbYQLzPX76gpw8f06vQ16LsWpgz54OINWKuydwxIiqSHB0cycPLk3z98lC58uWpZMmSlC1btpgbS0c4dw7js4fOnz8vk8nfz4/KlStP/nn91SP0gwxNcG/evKH9+/bRL7Nn05GDh0TfimZCMWHORfxUoSEh9DzkJbnnzEUB5cpSgfz5ydvbm3K4upK9vT3ZZLJhsWkqnA7Av7HDAe4W8jqEXjHHfPIkmC5euEAXWSQfOHCAzpw5TdZMoPaZHYRgcU38CgRrYWVJrVu3ls3JyUnOlZaI5Ik2c+ZMmjxpMllZYHz+43ChPAH79etH3bt3J1NTU/le18hwBAfOA/1rHxPawvnz6SgTmp2DAxkzsUSyuLBiZd+KCc/dzY3q1q9PJUqVJE9PT/leG8ALfPz4MR0+dIjWrVlLp86eocgw1gX55YFg8SLfvAwhq0zW1LRlc6rfoAH5+/unibgNYxVg4sSJNHvyNLLJYi/iFBME0wsc35RVjDDWYXv270vde/bQyz1mKIJ78uQJrVq5kjb9u5EOs16WicWlvGC2Nj29vKlQ0SJUukwZKslE5u7uLtamrvHk8RM2SM7QAZ4Ax48ep1OnT1EU63x4eaGhYeSU1YnKBQZS+w7tKV++fHq5p1hs376devXqRVGscjDrprIs8suUKc2TVqG9+/fS/l175H6gTsxbtJCKs2Gkc4DgMgL4hSrVq1VXvHJ5KD5e3opvbh/FOVs2pVKlSsrSxUuU27dvK6GhoerR+gfrkQpPCGXnjh1Ku3btFDYilNx8n3n4Pr09vZQCefIoP/04XmERrf5C9/hu8GAlp6urXL93r97K8+fP5XuWEsqLFy+Ur7p1k3v0yOGmjBo5UvbpGuma4DAwd+7cUUYMH6HY2toq/t4+Sh6v3EoeH1+lRIkSyqKFC5WQV6/Uo9MPmMMpR48cUVq1aqX4+vjIS/X3yaO4umRXGjVsqFw4f0EJDw9Xj9YdGtSvr/jyeFlbWytnTp9Wv/0PN6/fUOx4XH08vZWGfF/6QLoVqdDVtmzZQtN//pkunr9IpuZmrCu9IXfPXNS4aVOqX68eZc+RQ0RqegWMmj27d9OSpUtp+7ZtZGNtQ5Fs3Tpmy0pNmjah1m3a6NSnV6VyFbp/+zbdun+P7rHVnjlzZnVPDF69ekVubEC5ZHOmHO5utGPHDnWP7pAu3xZWAMaMGkXf9u1PFy5eIiMTYwp6+IBatW9L8xcsoG7dupErGwXpmdgAWM1Vq1WjadOm0Qy2FO0d+IWbGouvcP68+VSPJ83hw4fVo7WPnKzHwmWU2caWDh48qH77H3bzZLAysyAlKpq8PTzVb3UM4XPpCMHBwUqXzp0VN1c3xc83j5Lb21spVbKkcuzIUfWIjItLly4pTRo1VjzxbKzb+fPzOTg4KPPmzlVCQkLUo7QHJnQll3tOJS9fp0jhIsrBAwdEd3v27Jmyc/sOxcvLS/a55nCVe9AH0pVIPXf2HI0cOUJ8XdZsgb4JDaW6DRtQnz59xLWRUrCyTK9DQpIkgsNZDOJ4RyenRH1TEJdPg4Mpm7NzsnxYTFi0du1aWsgcDg5qcG+KVqhe00bUt29fypo1q3pk6nH16lXq8VUPun3jOkVFR5NlJmuxlN+wanLhwnnWW2JevY9vHpo5e5ZY9jqHkF06wIkTJ5TA8oGKN1uhsEA9c3oo8+fNe2dZpRSwXlu2bKkEBAQoGzZsUL9NGOPH/aiUKV1amf3LbPWbDwGjYNKkSUqpUqWUoUOHqt8mHciUu8zcrnevXko2hyxsUPjKM9eoWUO5w/erLeA+dzAnE0s5Zy65Th5vNrrY+MLf3sz98vG+vbv3KNFR0eqvdIu0J7i3bC3dvKmUZrHp5eEpA+/n76ds2rRJPSB1YMNDKVjgMxFhsBojIiLUPZphb28vxxbIlz9BSzIsLEypXbOmWHespylPnz5V9yQfEyZMUFycXcTyxrNXqVJFCQoKUvdqBw8fPlTatm2reKjiFaLc3c1N6dSpk/L48WP1KP0gzbXuCxcvUKf27Sno7j0yYg7vlCULTZk8hXjg1SNSDzg3sQpgYWIq1q9WYMRDZ2yUaqvr66+/ptGjR5OFqZnc49UrV2S5ifUs9YjUA2u78+fPp8aNG8vzY+vTpy/NmjVL78tvaUpwly9fph49etDN6zeYKEzZ8nSlST9PFWLThQVqwufU9nlTu26AydCiZQsaNHgQhbx8IQEC+/bspSGDBoueqC3guU3VVQ4sbVlYxAQr6BtpRnBsLdGYESPo7o2bZMxKt4OzE02dPk2iLfS5/JMeAPfJl0x0cxcupMdPHsvnDes30OTJk9+FE2kbaWUqpgnBYRBn/DxNwolMmNiMWDRhRn/22WfqEf+fqFmzJg0ZOhR6NVlZW9HSJUtp8+bN2lMD0gHShOD++usvWrxoEZnxTH764jn17t2ban/+eZqw+PSG9qzPVqlaRSZlVEQEzZwxk549faruzfjQ+xu+ePEiDRgwQMQmAhw7de5Mnbt2lbAZA0iWn4Z+9x0944mIMTpy9Agt5Mn5qUCvBAe9bdKEiWTNijHERoXAQOrzdR+tcjacF9cJCgqi+/fv01PmDvgOeBMeLt8ltpmD8NlahGaNcChNx2CLiooU5dvMzFyuhS3kVYhcJ7XInj07/fbbbxJjl9nOnsaOGUtnzpxR92Zs6HWl4Z+1/9C333xDb1lcmJiZ0tSpU6lipUpaJbgNGzbQymXL6IWaHBPy+jU9evhQ9KBMNjaU/SOL5ZfYcoY1a8Sbt5eX+u37wHkRwg6PPWLf/PzyCPHZOzpK3Fv58uXJGG4TfJlCQKR+N2Qorfz1Vx4rMypaojjNnTOXbGxt1COSj4H9+9Pa1WtkQvXo3UsifWOjnfUFvREcTPy6n9eh2zdvUnhEJLXv1IEGDRqk1dDmPbv30BdffEG21tYSAYyBxYC+G1R+1Lcfedy4xJ+Ysh7/OAwjzmyTyZpmzplDJUuUTBHB3eTx2bVrl4wXIjzWrV1L4UzYUDlq1a1DuXLlUo9MHkJDQ2nN36vp0YMHZGZqRgMGf0stWrT4NAkOl5gxYwaNGjGS7G1tyYE5weatWySvQFtA4kvVKlXo4YOHZMrcxcTcjEzZ+tUXot8qsg77hu+jWfPmNHzEcImkTS7q1q1Lh/btJ1MTU7KytCBzNqxAFBjD0NehEuKeEoBrWzN3fMscOYtzNlq8eDHlyZNH3as/6IXgrl+/TrWqViUjHkS8lFlz51D16tXVvdpB8JNgKle+HFFkNGV1caYffviBcrjmUPfqHkePHqWve/aS0PKq1avRZFYXUpJH0bRpU9q9c1cM51Hni30mWzIxNREOGhkZJck9yeae6lvOn9ef+rFaU61atTTxCuic4CBuRgwfTitYrwIXKMtEgdgwG9antAnoaYEVKgjBefh607y588jV1VXdq3scO3qMalarSra2dlS5ahWa8vPPZM2iPbm4du0anT55iiLZKAFgqf62ciWdPH5CiCawQiDV+rw2RaWA00GiII8WS11pQWwCEJwugWiNKpWrKH4+vkqBvPmUtWvXqnu0i4cPHih+fn6Kn7ePUrNmTeXu3bvqHv3g6JGjirODg0RldO7QQXn9+rW6J/U4ePCgYm9nr/h455ZnY7Gq7sl40DmZHz50mO7cvMWslMg9V04qU7qMuif5QGkGTRv0N1iL/Dwiaox1yrM/AuhbvOF+NN0rtuQCy315WRSyOKLDBw7S8ePH1T0ZDzoXqT27daeN/26gsNAwGj52NHXo0CFFltGuHTtpwYIFLKI1rS3GnO/4sWPickGy8+z5+heptVmkOjg6kX0WB8rt5S1LdvERFRVNZQICqHOXzsnKA501cxaNHT1arNUvWzSnsWPHqnsyFnRKcIhuLVsmgCLYrH8V/JwOnDpKbimMKoUC7pHDTf2kGShh8FZ5m2SCg36JRBJYftApsWieEOCmQCQynL5Y80XkbFw9KJbgnJyyEfLwlWjNLpW3TIQvQ15J1G9y8kCPHD5MXzZqTJZw+bAFjhyFTJkyqXszDnQqUrdu3UoPgoIoPCKc6rdommJiA+rXqy/VjMA1NG1mFuaxjC7JQPZ+s6ZfUM3qNegH5hjIVE8ISCpu3qwZ9evTRxbZYXlrwlu+B5CaYgLnsYZ75X158+ZNdv0RjF2BwoWZg7+l6IhIunb1qronY0GnHK5Nmza0d9duinwTTguXLhHrLaXActWlS5dkwDUhLCyUevToSW+ZWyWFwyFzqvtX3eng3n1kbGYqxLZ8+XIqF1hePeJ9/LHqDz7+K3K0z0wPnj6hnTt20GcFC6p7/+Nwtry/eIni1IWPRWzbh1AoKxObl5dXslQLOG779+tHWzdtlok3eOhQatmqpbo3AwEEpwsg+8ozl4dYpyWKl9Cq1aYJ76zU3D5K7eo1Pmql7t+/XylapIiEXOfx9RULsEaNGpJvoAkhr0KUIUOGKHXq1FFmzZr1gaUYa6V6sZXaSctWKoD7mjxpkuQi+Hh6Kd9++22C96ot4Px4j7t371bmzpmjLFu2TDlz5ozC6oUkqacEOhOpN2/coOAnTyg6Mor8fH31Vp0HvqroJDzVxnXr6dnjJ6LEZ3FylKWwI4ePCOfShEw2mWjkyJH0559/UteuXfX3PCqgL/rwOEJPhcUfzPcexlxPVwDHh5HWuFEjatigIY0c8h0N6NOXKlaoQK1btaYN69eLJZ5c6IzgLl+5QrbWmSg6ikUci4/0FMWL6ker//5bgj8zO2ZhUdVfFHBHBweaPWu2iK/4wOAiMx0BBzd4MqUFnJ2dyTjyrYji12x4wB2kEzBB4znHjx1Hd27focz29qKbmvE7dHTIQieOHaNB3w6ijRs3qj9IOnRCcIh0wEuxyGTNWqIx5fL01J9nmwfG5COPNWPadAlbQu23rt26UkBAALm5uYpCf+nqZVmmig8sqnfp0JGmTZ4qQQjQKTVBZwoxA2FLEcxYMZbBT59JJIwusGXrFho1apRE9KAyVU6PXDRp2s80YMhgimJ9HFp/NOvKzb78UkK4kgOdERySfJElZWZpQQ5ZHFLke4sLuCVgNFy4cEHjdv36jf8eJpEoDywdLV24iDmaDbl7eMhiOTKXKlauLEUIw0Je0xZWzHG9uHjx/DmfVyEbFq2vn79IUJwgrAlxd1cuX9F4n9iS8pLAZeP/DqVkLczYGmdrN5gnzPlz5z44JrXb2TNnJEnb3dWN3rK60a5jR9q2dZus8SLh6eCJY1SwUEHhrtkcHCVVIDnQiZUK+d+yRQu6dPY8mVpZ0sSJE6hyKtP+EEd3aPd+tigTniN4IQg/SshKhd/tp59+otnTZghhNG/dioYNHyb62LmzZ6l2zVpSUhWia9GSxWJJxuIYc70vGjaWCpcgyiOnT0pd31jEWqmOTlnJisWznY0tTzJ1Zzw4ZXehqVOmkAtzLE3AhO3VuxedPX7yna6IlxTN/3/2OFiqWGI1w8nRicWcdnkGxggTAlU9MQ4zZ/9C/v55RXLEAqJ0QN9+rC5FUVY+ZtuO7UnWaXXC4SLCI5jo3lA03yS86bZ2duqeFIJHe9r06fToySN6EPTgvS2IiUz+5n8TfMMq7t+7T5s3/CvVKbEaULFSxXcDlTdfPqpdt44si12/eoXWr1sn3ycb0K+YO6H4Du7pvfvlz/d5Q7zbVea0CQEO81W/r+LnffLuHGyFS+iVlEzlewSfQIbXu+ePc40Prht/i90f9zj176BHj4htX1xADKUsmFTxhtXdzZ2ysL4LqfUmIvwDaZAYdEJwMfMRG0nIdkriwt4DP/CkSZPIySUbz6is723ZssX8m4O5haJx2SsGeEGoFoRQcMCM72nH9u300/jxNAEbcz5zJr7I6Ciys7Wn2b/MTlBPSwzgsFgVcczK96Xe27uNPzvxFhgYmGiGGqI6EJyKY2PPIX9ndSJzLIeBIBjZmMPFPn/ca3xw3fhb7P64x/HfTvyvMyJJ+NxwUQcHP6W7d+/Gvsp3uMoTEtE5GFPkYCQnKkYnIhX6TrNmzegG61XQj6bPnEEF4zhJU4rg4GBh+ZqAfQ3r1RM9TJNIxaJ5q5Yt2cI6LpMAs/gNi/5oJrDYWWdubhHzQhnP2aDo068v9e/fXz4nVaTC8RtYsSJ9z6I6oXg4EFRSJiGs6biA3jhwwAA6euCQrGRMnzFdwo20CYjJoYMH066du2WJrhLrtqNGjmSijFkZOXnyJPX5+mt6cPeelFUbzsZFpy6dZV9SoCMO9x+isRTDOok2gBeM6kKaNrB4BZYwTx9NfrgTJ07Q7j17xEv/OjSM7t6/R0+ePaVnTFhP1e0Bi6j7PHMR5JjZ1paWLFkioiY5wIQwYWLARNN0n9iSyvHj/y5LlizihwNwDQf+HP+Y1G7QK7/q3oPH4pHc524W/5VLlaOePXtS+3btpKbdAxbtfAPkkiMHfdm8mdxPUqFzgnurRGuN4FIKLM5DdEKRh/X3db8+MTqLukEPit2OnzhO+QvklyW0iDfhtH79+gS5akLQgdAQ4D5ePH0mupOZiWmiwQapQZFiRWn27NmiL+LdKVamtPnfjXRg336yEd9qlKQKzJ03j2z53+RA5wSH7CW9RpeyvmccT8tF/Ng+FhG4D6wqtGzRUqJDNG1QiMuULStEA7fAti1b3+lyb+HiT0PAFQGjAwQHa1qXqx1IRvppwgSJxYNeClUFq0YYI0Qcw3otVKSwenTSoRNKgNhCvqYJvx8MEmS9PmEUjyGBi4WEv2Hx+VyiTlDKPiGgUUidOnVIMTWmsNDXFPw0WKwwFChEszdkwbvmyqkz7pIYwJ1fvnopOrwdK+u6vAesDGEcZv4yizZs/JeW/rqMfvtzFf21+m8aN24cFS9RIkWMRCdGA0RY7169aMfWbaKcjxk7hpo0baruTRng29u3d58k4WgCokUGDxlCJszd4hsNIPo//vhDDAc4euMq+wnhFOt823bsoDJlyryLW0M4E5TmJk2aiNc/LmKNBnsHRypYuBA1b948wWoCOdxcxUpN7nLf6dOnqVnDhizqiD5j7gJiSA/dbpIDnRAcTvnLrFk0cdx4cVY2b9GCRowamSoRMGP6DBoxbJgst7wD7lyVnqbMrGOThJMagKlNvHP8Zs1GUSx6XoWGyO3FvUcAHx2zONJff/+V7DQ9FLbp37sPvWFuXa5CIE2ZOjXZOlRaQyciFTpGAOtBj1gcWZpbSD8sTQviyQGcnOLjMrf8b7P472/41VK7fKYNiJpnbESWpuZkhS3OPaJiuBWPx/MXz6W7YXIAgwH19KJUxy84W0qywtIaOuFwAHxGDRo0oCvnLtDzkFdS5bFDp44pJgqIxUWLFtHDh2ySxwN0CXDP5UuW8YsMT1MOh5wGV3d3qlq1qnQb1IRyAWWpQqWK6qekAXokigD9u36D1Gbp++1Aatu2rbo3AwEEpyvs2bNH8XbNKUGYeX19lStXrqh7Pg62DJUDBw4oO3fuVF4moV1Q3DTBWjU+HoCpbcQGYObO6aF079xF622Y7t+/r9StXUfx9c6t5PfzV1iXVPdkLOjUX1GqVCmqULUyRfLsROGXaT9P++i6G0Tv2jVrZPb27t6DevXoKdUgkwPEbqUV4J2PiFZTFrUI1Bk5f+GclE3FKgO4eEaETgkOYq5N+3Zka2dP5lZWtGfHTjqBDPJ4EIfmixeSN1CexU3n9u3p/OkzklH1/NkzyZRKLrT9wpMCXdL5wQMHZDJilQRWMvxhGRE60+FigciHbwYOpM2bttBbnvmNmjSmUajara5ZIrBx5cqVtPqvv+nOrVtkY2cn7b6h67nndKf8hQpSn759P1o1CGup5cqVkzY+WPL5dvCgD1wXugScyz+OHisGQ42aNWji5Mkpqi0C3RdrqPElQetWrejxg4f0gifg3MWLJE0xuYCbBsZGWvgQY6FzggOQoFyrdm3KYmtHRqYmtGPXLkmTQ9QtEqNPHjvO1qy5NNhFFGtpFsUowYriNDmZ0JLy4vCiWrZsSUcPHRbOasPXMjXTX1g7VAb4+dCaHDXivklhKbJt27bRjz/+GDPp1O+AqzdukDUTCpaVcubMxRw8ecttAFQN/LZf//6yfJcW0AvBgRggBs6KmHxJGzdvpkKFCtHevXupc9v2Me1/GJ8VLiSpeKXKlEnRy7p6+QpVrlhJwozMLZOe1Z5aYACxwZJG/Bg4tgRvpkDGDh8+nBbOnfdRkZmSVTaF7wfLdSZWFvTXn3+SbxqU6zLhBxyu/q0zwG1x6+YtyYpCVaAqVatS7ty5RQz++ccfcgx8bHn9/aXUlVNWzf2msJCM35w6dUqqMc1fsFCSi2MdqHjZ1WtUp7CIcBFtqENnwYQXxlwT8wpZ6265ckqsGtZUNW0Pgx7wBEAjESLvPL4aj8mcxUFUhUieSCj87OmTm5xdnKlChQpSJswLCn0KiA0Al7x68TJlsrCSWDPwMRAyujhbWFqRi7Mz2TIxwuGb3A1jHBkdyUZcBBmzpEHJCX0nN+mFw4FQ0HHl33XrpbbZ32yFli5dWpRg+OcWzJtPDjy40FtQk+OrXj3p8zqfv1saAoc8dfIU/bPuHzrFRsdN1vWeMeFh2QxtLBFBC8KKBa6HFwdjBJlWw78fJkSHAZ4weVKi3NODRQ70HHDI/fv3q9++DxBAq5at6Mrly/TkwQM6deG8LJdpwxEbV4dDGuAPPD5Hjx4TFtqwSSPq0LGTTLKUAH36hw0ZKoRXPjCQJk+dkvpo7OQCBKdrXLt6VWGdTfxxudzdxacUC355yq/Llis+uTzFx4RGZG6ursrkyZPFl4XyXhXKllOyOjgoeXP7xmy+eZTc7rmUzLa2ysiRIxNNykWvrSKFCksCcZf2HZLUawt9rwp8ViDxXlu1aitInrZNZa+txHDo0CGlSOGYey+cv4By5PBh6U0mWwpw6uRJJY+Hl+Lr6aW0b9NWfJ36hk7dIgBKKkycMFFKJKDZf706dd/rTAwu1vTLL2jOogWUi61SLPkgn3XK+AlUtnQZ6tS+g+QiODo6SY0SHG/vmIW+bN1KdMHBrJxre0mL2T6zSZ0z/kQBLjr7l1/oyeMnFMrcrlTZgJjoXjxqCh8XKkDom1AR02kFnRPcun/+kdwBEAWSV+o3aPiBWQ49AnH+KMb8ed26FMEDjGPDXodK0CQWwrO6uEjr8VE//iB6H2rolmRrFsnMnyKWom35lm0yVgj3+ubbbxOMPslI0CnBwXE78acJxDKPQsPe0BfNm1G5CuU1ciR8B0Ni3I/jaNS4HyicjYu7D4Mo72f5aeHixbR6zWoaOXoUff7559JoNz1l8msb8Ol99913ZGVlSS/Yqv/hh7Eprl6e3qAzgkPQZedOnejls2fiX/PL5y+JtB9zd1ix4o0q4OfOnxen8Go2MFCAGvH8SHDRtvhMb4DBgBom6FMPAwK5sjVr1VL3ZnzohOAQgLmMRQKWskzNzMnBwYEmTJiQrDL5cPaCyLQJJPfCctUWQPraztZYMH8+Xb5wUSYWanp06twpQxYeTAg6ITj00/pt+a9MYGwovI0Wz7u/v7+6V/9AHQw4PKMUZFQlLortLK0lgBKcNjGdCWXs4V4A+aY671bFihUraPqMGeIzfPggiDp160rFihfXGldH7wdLC0vdK+6JQOvXhnWFaN9bt27xC3lLeQvkp0aNG+s3kSYOihQpQqUDAsg+qyN93afPR0X6+EkTKFNmOxo+fFiCLxoE1rRxE3ECo8FGajkQROc/bFx16dJFsqKiwiOodYcO1KlT5xStuMSHEPDDh6wbHuPzmUmq4QP+DAc6giawX2+Ab0SbWL16teLi4qL45/aV2DAU/jMgYURHRyv/rF2rFC5USPGDf9HTS2ndspUSEhKiHpE6oHAifJnopZ/T1U3JK7GJeZQ83rmV7M7O0gv/xIkTOi9uGAutrjQg0x71OqxYb3v28gWNYOW3ExsOacXdMgL27N5NXbp2lRQ8gAmBpsyYFrM8pgWsX7eevunbj96w1Y9c1oiwMIlExjIfuGc4S6SCBT+jGTNn6aVzj9YoAVYpzHcrZtkoXV+talUREQZi0wwYL6gi2aD256JfYt5bW1nTlOnaIzYEbU79eSpFkkKo8Iklux59+9DwMaOpTNkAviaRBasHR44coQUL5qu/0jHA4VILsOM/Vv2h+Pj4yDJMscJFlN27dqt7DdCE06dPK8WLFZdlNC8PT+XzmrWU69euq3u1g/Xr14uYxjWqVammXLp0Sd0Tszy3fPlyJReLWSwn+vv56bwOM6AV9gMH7xJWnpEwiVWCGrVrSSXv9IpbN25KgT0k9EJh1zcQXICggqfBwfIZHO2nSRPJ08tTPmsLKIoYGhJCEaFhVLdeHWKGoO4hWcH48ssvqUyZAImxux8URDeuaW4FoE2kmuCYaGnF8l/p0OFDEm8fyvpBH7YG0zKq9GOYOHkS7d+9hyZOmJAm9XphyV87f0kmKFwwX/f5mvz8/NS92kNsAzioOAj5im91Q93J5eUhZRwA3JeukWqCwwsbN3YMZbGPCS9C5WttO2x1AXPki5qai5Na38AkjXgbJQGR0fySobvpAq5urrLWbG5tJZ2yIYniArXy/v33X3HzWFpYSEyfrpFqgps/bx6fxEgiGlBBEvmYBiQOOJRRYBCOYzMrS/rjzz8+IAZtIG/efOTCRATJc3j/AZo1bTo9f/5cDJbz589T39696dmzZ8LZEDyaUAlYbSJVBIcgxx07d5K1dSapz9a8eYtPelFdWwDBodAflvwwXihindxUyKTAP6+/BJ2i7xfE54zp08nP05tyubpTpYBydOzYCbK2tGYOZyYBsvrwKKTqCpgpEA/QAOC9Tklix/8rkLOL7C64k6BZTfhpPJ07dy5mp5YAwh48ZCiVLFXy3RKcVIHKlEliCiMiIyhTJmvqyZyuUOHkl95KCVJFcDAMsHQUzjf+6sULmjppimRiGfBxIDgB2VOlypSm8NBQevokmNq3by+5H9pEFiasqTNnSAnYsoGBZOeQWcLn3XPmpIaNG0nIfdsO7fVm5KV6peHyxUtUrHgxcs/hShFsXiP9D/XEkhMZom/06tWL1q35h6JYJdi4fat090srIBypUYOGUsMOsqJc2fI0bcY0rUeI4DXDQAJHhc6G/AsQvTbWapODVAttX788tOLXFVLz1YR1gMePHtHA/gPoEf9rwMcB73/vPqw/8fghmuPQoYP0+8rfY8KotLboGBPgCpEKvRH9F5DFpW9iA7SiJVZnXWTI0CFiDZnxQ6B78/hxP0oRwfQMKOzaCfxJOUAItWvXprbt2tLTZ0/FdzZl8mRpBpzmN6cDaIXgMFOQ6Nxv4AC6E3SfOZ0R/fn77/TNN9/oxZmYXCCxB/FsxpKAnfZvFfoTrMSq1apJHgcmarsWrejunTvqEZ8OtEJwACyidqz0ohc7EpGtLK3oz99+p5EjRkjScFoDOswdfoGTJkyk3dt3kqmxCVnZ2CRa7zcW2owSTggguilTppBfvrxyr2hVPmzYMPGTfUrQeuZ90aJF5d/jR4+ShbUVnTl9mj8ZUYmSKStCrA2Ay/799980ZvRo2rhhA79cC2lPVL9BA0m4Tui+oMiv/G0lrVu9li5euiiOUTsdJg5Dkcc1du3cJUR+my1WtFbHmH4y/k1YqdoGggd5dirZnbIqvrl9FB8Pr2QVI9Qmbty4odSvX1/x8eX78PaWgoVOtrZK7969laCgIPWoD/Hw4UOlUN68cjw6MOPf6tWrK9euXVOP0A14cijTpk1T3JxdJMrD08NT2bVrl7o340MnLAcm/ZAhQ6hcpYoSGfHs1Uu6c+u2ulf34OeS0GlYew3qN5DyEKaKEesPRpTNORut+ONPEV8uLi7qL94H7nnM6DH0IiRU9DzUD1ZYxKHj4Lx581JkQaJDH9pNQn9MDFBN0HG6fMWKkriMNk3t2rSl27ffH79Yp3tGg85kHAYOpjcGBYNmlzn1fjmc62NGCHxNEEm9e/Sgr3v3lgazxtGKtJRs3qolLV6+jKpUS3y9F63TUdnJksUZ6tUhbRHPg0V2JAfh/MmxNXDPHVi/RR7EmFGj1W8TBowwlMT/rOBn8ltYsgP69xenMFo4rVq1iubNnUvLli2LCXPKQM52nRWzQeRIrZq16N7duxJVumHTRnJzc1P3Jg84F1oQbdmyRSpi2tnZU4WKFcSdENfBjIXpH8eNk372KARjYmIqoe4VmFugQKGvr2+SPOqHDx+mNi1aSlohyopNnzWTli1dJr1WbVjPsraypI1btya54CGsTvi+XJ1dKOxlCE2ZPZNYzKt7E8axY8foqy5d5blAdNmz56BXL54zB34rE0vcOmxto+/D999/L8tl6R0643AY5CAmNvQfRQeXlIQsYS6gGUaFwEDq0bmrtCGCeNyzfQcN6NtfmnwgJRHXQiG/woUL08plyyVOHyW3wqIjafiokbRw8SJpxJHU5ZvbLP7xe1zfOVtWqdXWoWMHKsmGD5zboW/CadasWUl2+cCjD+v9JXPbTPZ2xPojXU9CsCOep2OXzlI/z9TImB49fECh/Kzo04BVCayF4tmvXblKtWvVkgmpD4s6NdAZwSGS9jFK3LPoQaPX+MF/SQHahSNb/8mjR1JG1ehttBAvmo6B09y7eZs6tmsv5eS/6tZNWp6bWliIA7py1aq07p911Llz53flXZMCcI5z586KHgfvf+48eYRgoB60ad1a4svM+Pv1a9cKJ0wqmjdrTmUDAuTeUe1z5swZHw1JgvVckbmzuXHMigCcwta2NlKHpX3HjtSwSWPK6e4uEyOrU1Zq1aqVxn796Qk6Izh0hQ7lGYjBQB/S5BIcXjwa/cPYMGZCwqLzsJEjaRq/qPETJzIh+PBsZoMkOFjqzsEgeMrixtvHh/dPoB9+HEd58yV/jRQ1626iWzMTnIWpGeXx85N7x8uvVqMGlQooI6UrXrx4STNnzFB/9XFk5vtv07aN6LNGzK02b9xEe3btVvdqBoj+3w0bhJNF8d+I2v2BVYafJk2ivv370fARI2gGi/uA0qUlEceOOfEvv/zyUcMkTcEEoRM8evRIsbO0kgSN6tWqJ7tvwYULFxRra2tJAsnh7PyBC+Py5ctKxXLlFX8kgPj4Km45XBUWWwrre+oRKcO9e/eUep/XUfz4vHm8veU6cXHr5k0lc+bMkt/plMVRWbH810Tr08UFc31xx+Tx9FZ8vLwV1nElbzQhBAcHK40bNZK6ef48DksWL9Z4LeSVlilRUmrnlS1ZWjl37py6J/1BZxwOHAGlHsDXXmOlIZm2yaVLlyiztQ0r/2HMGdp94MLw8PCgoiVKiHcC4huuhIEDByZLfGoCSrqiagDabqLUf44c7+dqosg1eomiiS8TnFjCiJ5NCqDkDxk8hOycWD3g8Thx4jh9++23CeqCcO2EvHwleqMdi/TSZcpolBQoOZvV0YnVFyOpOpWeVyd0RnDwmqP2LZTY4MdP6FG8dtofA14CAgGilWjWnz4ssIyXl9nOTgga1iRivFLtjWfq3bljp2RTQYQVK1ZMY5hQ3Tp1qTxbyYgDhNsE/fJBHEL9H5lX6C0/aSLKvpqRva0d/f7bSlH2NQFjF82iEkCV1YQKTSMKBLolxiKCVZGkGjNpAZ0RHBTtEqVKMveJppCnz2nL5s3qnqQBNXPfvHwtxVeOnzipfvsfoHCfZc6COr8o45XangwP7gdR6zatafT338mLDXr8kBo2aqTufR+WVpbUpVtXcSJjUqAGL/x28saTACzz1WvckMLCw2Wcpk6ZSkEamp+AW1tYmIseHP4mIsEGKU94Mr988kyOs2JLHCFI6RU6IzigRfPm9CaSBzWzLc2cNl2szqQC64cOObNLAeV9+/bSsKHf0ZUrV2JE3s1bNIfF2pmTJ4WrZWJuWoLFa0qAFYAli5dQk4aNaC8r8VmyZhMOUa9uXapcubJ61IeAm6V69RrSVwIqw9y5c8WFc+DgAdq7Z49Yiyggo8lNAY7UpnUbyu0Zk4d64/p1+u233+TvuIArySO3tyTbhIW/oRW//vqBkxd5JegF+/jFUznOSY13S6/QmeMXgJXVqmVLOrj/gEz+gMDyPJuniIsjKUBFoT5ffy01MSLfhJOntzfZM/cJCQulG6xnQZ959vw59WOLDbmwWA1IKnBvu3fvlvu5dOGiJJqgtBhcIV2Ze7Vq1VrEX2IAQdVgy/VNSKhMjGzOLsx5X0piMbiuY1YnqlmzJnXs2PGDCucgxFW//07du/dgXTCLlFVd+ftKypf/v4YdeDU7d+6kdm3bkjXKbDE3hZhv2boVubu6SXXMP1atou2bt0gwwjO2Tr//bih1Zn02LYIrkwQQnC5x8OBBpXjRYoqfTx6p+j13ztwkV+qBBTdl0mTF0y2nWI2wRmGVYlEbQQFOTk7K8OHDE7X0EsLgwYMVN1c3OQ/Omz1rNoWJRxbnYU0mFYvZcnR3zi4Vifz5GWG9xt4rzp3dxUVp3bq1xorouM5X3b5ScrrkUPy8civFixVTWOFX98YAY4WK7pntM7977hzZnBXmfoor/4vr4Nperu5K06ZNpYRDeobOG4PAunz14iUdOHSQTJgjQVdBk/74M14TYOkWLlKYcvv60I3zVyia/7OwsJIVA3ePnFLBHGVdk8rZoPdt37qNvvrqK9q0aSNzS1sRn9D/evTqRePH/yi+roTCleKCx45F515iYpIOz/AJYskNfjtPby+KYhEYGRElTugLZ8/QYxaFZcuWfe9ecR0sR23cuJHF8ms2rh5LSBe4WKwBBC6OY6DrwRoODX1NFmYWZMOfYXhERkfJb2rVrUNTp05N0rimJXQqUmMBvQu1PO7eui1m/s8zZ1CjxpoV8oQAZyYCKKEvWfJg58yZU9ZRNbkJNAF1NmbPnEWb+eW+YSKDWwIvtVa9OmwstJEKnckRydD9sLpxkg0a3EP58uWpe88eUhgb533GBLZ69Wpijk7hYWFSmnX27F9kXTcuIFp/Zd3shzFjpfg2VlKmTZ8mFdrjAhPjJPrwb9tON1gXhoMaYjOXlycFlg+kUqVLpXtiE4Dg9IEd27YrjiwGIDoCy5ZTv9U9IMoWLlyouLmx+IQDlUWQt6eXUrBgQWXbtm0pdhSjeXCxIkXFMV22ZEmFuY+65z/g3AP795dGHL6e3kp//luTaH3+/LlSu3btmIYnHp5K+9ZtEmxKAvUB8YY8ARXm2BI/x0Sr7k3/0KmVGhelA8pQ0SJFhBtcPHeOLp6/oO7RDbA0dub0GWrfpi0NHzSE7KwzSY00MjGmBo0a0qaNm6hSpUopchTzuEk0LlLuYHyUKlfuvcpEscC50RXRkkUg/4ru37snnCk+wKnH/TCOXrwOEa61nsU9elHgOvGB/fANYm0X7htw5aRy+fQAvREcBh+6SDjrNkasu5w7r90s81jgJd29e1earLVv14727ttHFpms6TmL5FIBAVK0GWFGqS3c8opFO1Y4QHDorJOQVYgOOmz+MlEY01v1eE1AO0ncFyZKZls76YkFN8unBr0RHIDGaXAZoCvebR1lJGGloA3rZIsXLaJXrC9iFQIuBxgEU6ZOkegLbQC5DeLhZ30NMX+I2dOEGzdvUJQRonP5Pvj4xNwVjRs3pkCsYPC54L37YdSYmBWMTwh6JTgo+zLo5maidGsSGSkBFG/EsH3/3XfUlMUljBMzIxMyZU5atlxZWvPPWmrRqlWyjIzEgHOgeGAmFmkguONHjtGJ48c/eB44aVevWiXl+hW+Fx/v3Ikq9hCPPdlazsZWMybJmbNnad26dTHOY52bdvqBXgnO3SMX2ariB12iYcmlFrBely9fTm3btqEVS5aRk1NW6WHq5eFJAwcPkhUJWI7aBnQ2iEGIQFjhw4YNpzVr1ogl/SDogUTron3R/kOHJZjT2NSYatau/VFLGNZyvXr1JDQ+MjKCZs6cKedM6rJZeode3CKxQBRGt06d6dqNGxIjN+XnKYkuHyUG3Db6DAzq14/F811Wk94S8uhDQ0Ooc/fu1KJFC8rl4aEerRsgoqVa5aqUycpSro/VBSvm3m+NTciERzX4xTMyMzWjx8FPaMSIEVJkOymuF4jROjVrSd2RcCboqtWq0uw5c9S9GRt6JTj4koYOGkxr1q4VhTugbFmpsu2Q2SHJMxi3G/IqhH5d8aso2UiQAcdE20usO44eO4ZKliypHq17oJhPmzatKfjRY1kWQyAoRC7uM4rlIKJO+g/oL87m5ADt1AMrBJKtjS09ePiAvh82jF48f063bt8WJ/BnBQpI8Uc0fUNWWUaBXgkOAFdqyHqWubGZhEw3atKY+g8cIEVdPga4FPbs3kML58+n3Xv3kB1bc3BNoLQoFO72HTqkSblXiLzFixbTyWNH6SVPBgwpojZyenpSo0aNRI9MjlM5FtOnTadZP09jxceIJ9kr1hdNpXU49LmIiHBycs4m4rdT584fxO2lV+id4KAAL128hAZ+M5CyMGcDB0Cz/++HfU/FixfXuKwEPenwwUM0l8UKIkRehbzmwTemF6y/1W1Qn3r27EW5fXKnyKemLYBjI7sKy2d4Riy/ZXHIQlbWVuoRycea1WtYIgyS82ELZasbTYqZhVKmTDYSA4iAyxo1a0or94xQW1nvBBeLn6dMpZ/Gj2eRYSMcIZgNiDLMCZCJlcPFhQc4Jpn51JnTErrznPWZrC7ZxSrEy4WlC18bjsd3nxrAzSuUD5QxgIg2ZS43aOh3VKZMGSbsZxIOtXXLVnl2cL8fxv9ILVu2VH+dfpFmBIcBXbpkqcR4XWcjwpo5AqJbw8NCpbAhgCQWhOQg4BEzPCI6puBhhcAK1KFjR+aMvnLcp4jp06bR6DFjyMbSipxzZJekZ08vL3VvTK7uLzNn0ZRJk8iCx86Jx2Xnrp0pEt36RJoRHABRefnSZTYi1tA/a9bQ1atXydLMXOwHFOdDJARcA2gjEFipkuhCWCTPly+fOF0/ZeTPn1+6CoaFvaEVK1dIcej3wGMC/bXZF1/QxQsX6dmzYNq9bx/5p2E1z6QgTQkuLiAm4WaAUYEkEESygptld3ahwkWLZAj9RFuAGIXv0Il1XDe2Qn9f9XuCYeNobvLzpMlMmKG0/Pff033bAr06fhMDXBvgXM2bN6fu3btT3759RSepXLXK/xWxAXENJyxzJbT+CiBpBhlmkArw+aV3pBuCM+A/IBoEdVBAROj0cySBDH9wwnVr15EZW6vQet3d3WN2pGMYCC4dAhwOJS4eBj+RtdduHTqJuhEXUDlgpSNwADpRwcKFycv7P6MivSLd6HAGvA+syjSoV1+K9cDyNDcxodZt24raAf/j+n/+oYMHD5GJmanUK5kwYSLVq19P/XX6hYHg0jEOHjxIA1iXvXcviK1yMwlKgL5G/MqM+D8Tc1N6GRpKXbt2oV69e+u0HKy2YCC4dAz4HrFWi1buGzasJztrGzK3ivFXomQXrPhBgwZJBHNSS5GlNQwEl96hvp1jx49J7wZEM0OvQxgTOgBmzZp47mx6g4HgMhhiXSQZdTnPQHAG6BUGt4gBeoWB4AzQKwwEZ4BeYSA4A/QKA8EZoFcYCM4AvcJAcAboFQaCM0CvMBCcAXqFgeAM0CsMBGeAXmEgOAP0CgPBpRMgZfLCufMS6ZtUIE3wyqXLkvGWUfBJEdyZM2fol5kzE+zYcv/efdqwfoP6STNQ0w0lJY4fP65+oxmobLRwwQLavGmT+k3qAIIrUqyoJMYkFTeu36BqNarLbzMKPhmCQ3TsmDFj6K/Vq6VOm6aoqzt379Dfq/9WP2kGCiX+tnIljRwxMsH0PJx7+/btNGXqVNqoJYJLCUxQ2CaD4ZMhOKTTXTpzTrotHz50SOptxAeyoRIreQqgjgeiaa9eu5pg4WtwFLRhittPwYCk4ZMgOHActCCv3aCeFK5Gadc7d++qe5MHcEqEcKNO8LQZ0+VzfAQFBdGJEyekV0R8QJ9C4UVUwMQxEO/xz4H7hehE0Wj05Dp37pzG6ubgsPg9xDs2hJdrup+MhE+C4KA8H2Kuhr5WqOPr7uZO+/btU/cmHyCa+vXri9i8ffu2+u1/QMFqVDHSVB5MmnyMHUvLli6jRXzcd0OH0vr169W9Mbh+7ZqUY4WuiCI16OI8ceJEde9/+Pfff6VX/tKlS2nx4sX0/ffff3CuDAeebRkeaMrRqlUr6UINMLEpLO7k77g4fPiw0rVrV/WTZly8eFHp2bOnwsaD0q1bN2Xq1KnqnhiwjidNRq5euaqMGzdOmn3EAtetWrWqwuJWOmCjgcfu3buVwoULK2yBqkcpSkBAgDJnzhyFuZz0xkJjkJEjRyqWlpbvnoE5m1KpYkXl2NGjci6eVMq+vXuVInyuWzduyjF4bg8Pj2R3205LfBIcDqUQvLy83hV8KVCggJRLSCmXA4fjsZE6JxCLcXvIo1UkCsZ45/aWY2IB8Tf420FSFwWFaFAWFfdQrlw5atCgAU2YNFGO37Vzp4jTdu3aSR4p0vvAldHqMy7Qdbpa9epUpGhRORfEPCooVa5ShX5ftUo9KuMhwxMciONvtkwvnD9PkydPlrq/EFEwECCmUuOjAuG8ZOK4efOmfAahrFixQlqdxwes27Pnz0kDt/iAeEZSM0T/5s2bhQDjGy8u8RoMQySD0CG+Fy1cKBv+fvTwER0+ornWSEZAhic41Je7cvUqlWVOAm4RuzVu1Iit1cN07WrSmwLHB7pS+7HFyqJYPh85coR8mAjRYz4+oiJjCFtT9jvOA+4G4g+6d19jm6T4ePnqJTlmyUImxqjpy5xU3UqVKincMaMiQxMcXuKChQuoZYsWxHrXe9tXLNqaftGUNm7aKMelBKjpUYVFGJR3FI9BIjLq6cJ1Eh+o5Quuiqa98XHv7j0xMMDVHLNllTaU8RHfSsWkCWDDBM1427ZvL1sbJrTOXbpQdRa1GRUZmuDg7V/F+kzDhg3Vb95Hk8ZNpCU4ij2nFIULFRJxuYMt1ocPHop+qAnQw1ChExZlXNcFdLslS5dQkyZNpBlbnTp1RCyj6GJcxC/JhepJK/nZ4i514Vzz58+XSqEZFRma4Pbv3y86k7e3t/rN+/DP6y/cDRWIUgr7zJmpIetcffr2JWMTY2KrUN0Tg9hlJTiAx/84nn5b8Rv99ddf0lMMdXhnzpopfrauzJkA9JCASwXuDuhouD/44+BCiQu0LUc1UHTZgSjGdf78809asmSJ1BTJqMiwBIeZv2PHDmrbtm2C3n60eCxdqjQdO3pUPkPkfay0vvJWIUs+JlYMQ3x+2ayZXA89F+LWFsa5YInGAkbGwkULxXDJ5uxMbm5utG3rNuHCsX3+8Zs5c+aI6IVljf4U0Mm6dusm9xsrrlH1c/r06bRgwQJy5nOhazW4G/x86F4I4HnANTWJ+PSK/4tSDxBFyVqCwoik4h1CH4O4h84GYtG0nAau9ejRIwoLDaPsObLHNH3TcN3Yc4G4ULgGul1c4DwfW65LTzDUFjFAr8jwbhEDMhYMBGeAXmEgOAP0CgPBGaBXGAjOAL3CQHAG6BUGgjNAjyD6H40/mSQXY8KfAAAAAElFTkSuQmCC;" vertex="1" parent="1">
          <mxGeometry x="900" y="195" width="84.58" height="90" as="geometry" />
        </mxCell>
        <mxCell id="zVfbZX9N3bfvn9KIprG--2" value="" style="endArrow=classic;html=1;rounded=0;exitX=0.969;exitY=0.467;exitDx=0;exitDy=0;exitPerimeter=0;" edge="1" parent="1" source="ehCbc-gGsFOHaVZKTLyM-42">
          <mxGeometry width="50" height="50" relative="1" as="geometry">
            <mxPoint x="820" y="270" as="sourcePoint" />
            <mxPoint x="900" y="254" as="targetPoint" />
          </mxGeometry>
        </mxCell>
        <mxCell id="zVfbZX9N3bfvn9KIprG--3" value="&lt;font style=&quot;font-size: 11px;&quot;&gt;Evaluation&lt;/font&gt;" style="text;html=1;align=center;verticalAlign=middle;resizable=0;points=[];autosize=1;strokeColor=none;fillColor=none;" vertex="1" parent="1">
          <mxGeometry x="905" y="280" width="70" height="30" as="geometry" />
        </mxCell>
      </root>
    </mxGraphModel>
  </diagram>
</mxfile>
